<mxfile host="65bd71144e">
    <diagram id="V-kYW9GV2uXmBUqnUB78" name="PÃ¡gina-1">
        <mxGraphModel dx="4830" dy="-1117" grid="0" gridSize="10" guides="0" tooltips="1" connect="1" arrows="1" fold="1" page="0" pageScale="1" pageWidth="827" pageHeight="1169" math="0" shadow="0">
            <root>
                <mxCell id="0"/>
                <mxCell id="1" parent="0"/>
                <mxCell id="119" value="" style="shape=image;verticalLabelPosition=bottom;labelBackgroundColor=default;verticalAlign=top;aspect=fixed;imageAspect=0;image=data:image/png,iVBORw0KGgoAAAANSUhEUgAAAcEAAACfCAYAAACBSGLbAAAAAXNSR0IArs4c6QAAAARnQU1BAACxjwv8YQUAAAAJcEhZcwAADsMAAA7DAcdvqGQAAABhaVRYdFNuaXBNZXRhZGF0YQAAAAAAeyJjbGlwUG9pbnRzIjpbeyJ4IjowLCJ5IjowfSx7IngiOjQ0OSwieSI6MH0seyJ4Ijo0NDksInkiOjE1OX0seyJ4IjowLCJ5IjoxNTl9XX0iq3GHAAAgl0lEQVR4Xu3dDXBU5b0G8EdtKxpcoo0xgJTEBFswlYQPKY6RUkhrJkw7bYrM1ItMR4OjRWunXpuKME5Rb67XTm1FnRI6XvHaGYmrczsw6W2w+MGIChisGG4lManUJMRIwwIWvK3e9+vsvufsR3Y32WQ35/nNrNk9e9g9exL32f/7se8Z06dP/xRxlJSUoLe3F6dOnTJbiIiIxo8zzU8iIiLfYQgSEZFvMQSJiMi3GIJERORbDEEiIvIthiAREfkWQ5CIiHyLIUhERL7FECQiIt9iCBIRkW8xBImIyLf43aGZcEsr1tUVYm/jbLS0mm2+VY+aZ+/CvEnmJkI8L5T1Jj7wS5QWmxvCwPYf4v0nzI0EvvalZ/DTi9vxbzvW449mW1jRZfiv712OvNCf8IvNb+Mls9nr6sW1+FFlACfbtuNfdobM1sz7tOZPOL0gIK6F8NlNl+OsHr19vGMl6ENF976Jdc+3otLczqwmtHynBBuWiEuww2wjStHV12PG1l9i6ipzO8NO3PlDvHmtuGzch4/MtiFN2YifzsxDR3uMAMx2c3eIAIQIv2JMuMc/ASiN7xCUFdnzXQkub6Km2uw7Zhqx0nNct95bb+4jf7oUBZt/idniTT/q8sDXzT5jS1ZKruPafD0+Z+7zpfN+hucWlOLEwQdwc7wA6QvhiPz5t1DcKlB6aeCY+nlkYPSqwE9mlQGdLb4KP8f4DsFHq3UFoi73Y6/82+p82to2xs1yKqRXoNh1TCVoxrVZEM405rq362rEvtz5B3PnWPk6porQKy3uRqd9XFuAC++81OzjPzfNnI+Jx/fg4f/dabbkknp8+nlz1YdGt0+w+inc2lCOjsbZ6FvehWWlZvuxV9D0nevQZ25qskISAWFuAR3YtqQabfKqepwrMRgswZOPqjtdZHNf/cL+yP6K6ZsaEIGzusFs81B9eeITUZj1nJbKTdaxC4O778fDdzeZW0KMPkF9TLK93XlM8/pkAMY7HstQz6nuh3is5mnq3OSb7d3hc+Q9n17Wa7WO3/V7inU+zO/Ceb5450yJcV7GUuC6FsxEEK/t/AIuu0G8iZntR7bXoPsNc8MxZyMW1Fq/gHfFv3tqs7qqHueCPdj/8HqcVltsN6J4XR3yXn8Ab/9Psm+QshL8AaYeFSE4ZOjJUKpFgbkl+3Pe37gOA+FSw3qsbUWYsWYuzjX3fLT3ERx64B1xTe9z/juPoLfgB6ovTN13pBaza+VfTOQxdV+ZDMBf4IR6lPg+d+cGzJwn/+YNGerW61H3X3oIB2/sw4XWa4gcV3TfnFekr06fh3Ndx61F9+cNdc4sshlWnLOPEvUJyipw6Xz0vVYTvwrMavX45+1r8X8fPo0JT/7EbPOPMagEA5jX0IWr+u83lc/T6J50Jeo3NZr7BfnGKt6w88UbvVMdbesswzKnH6v1MAbFj/wpCZoNj/Wj11xNinzOin3h59OVo/Wchg4j+Ubv7FeCXYVrElZuTgDK4NoQDpq5KpC69w8VgLq5dFmB+KDgPGfjK8DCu7DOPmdS6QqsayjELrNf0+4QiuucJt8GPGlt12FlHk9dvMGlf08qWNX95nw8+xSKzB6qb9F8GHEeR/+esqGZOUmX1GHBDRfg8IYavCYu+18/iYtqn8FFU8z9wtnfeEYEYBG6f6P3eW1DEEfkv7vuRnX/6YGT4o/xApytbsV28oMMVAirfoTZ5o3fqcgO7gWmronRd1YsgmHNDPxto6nctnfj3HkiHO39Ll2JyQOPiMcI4VxxfUYtRNhtx4D4Wzj/K7LK+zomqT/at4cIQN2cO3PeUataFI8jj8HbbBqYi5lbq3A6znF5++ZkoOnH0xdvMMl/O1sdt75fvpaC2g0ouNrskMo5S9LXps4SH6A6sd+HTYnjwdg0h4rqJ1LFNOBAp/hRMC385lq5XFQWojpstiqdttUiLFGGq1R/WSdMs7mmmhUjb7yTC8Wnz4HDnspyCK3X4WFXRdaElh1yIEcZym/RW+QnpiL58bFznysw2lYnqGzEsTkB6KrcKmTF2YEDMSpZW9G9NSIsRWDZlbI41mYZZKU1nrCRIy8jYdb34gHxYSGAghlmQ4pUaIfPSRPa2sVzTirEZHW7EdXmddnVuP49iQBd7gnokVD/K2zfvj3u5VdpdaWeFOG2Rpw57fRb7eINPg/nOH+MopKbfEUeTrz+CI6E3+Q2i6JG/NFeco0Ky9Mf2H9pi3HRrS3hgMSUL4hHO4m/p/THmAwRNFUikUR15VRN0scPPIn3xYspqPL20cnqzap2nnhbhJsIjYsiTZjnBo6i13msQEBUP5Fq79wC8VyrLlPV08DbQ1Snq2oxNSCrK7ta/APeFwEnQ+9CT9gMbE98XCkJ7cNBq0r9+NVDIjwDOLtE3kr1nCVjMZZcnAe8vx+/Nlsot4xJCCaufhpRXiregNtf8ISYDr78Qtkk1YQ+8X+Kvi6CYkqh+G8AZYvku6AJqpFwqF9VnBH6eVXF5a3CYlmkm1e9AZi8elTOEoEeo6qNGXDHDqBtBJsZB3vcx9x39+xIxWgqWe8+sT7UjJim21BbWxv3cls6p3iwXbwGcz2WORW4SITYwFueSq7vaCQs1fUinKOqx1KcI9uGL6kQvx2h6IJwM2vKZOVkDz4Rl3C1cvVXcL54go8GRLC4vIPQO+IdPfB59xt66EN8bK5qIpREFWSHgbvCC+F0l7maoomXyb+MozjlbV6MGXDdOJbE1IOkHe1zv86XtuCQeJ2qYkz1nCWlFBecJyrWkPyjz1FTFuMT8Tf7mXb/NYVK2Tcwpnqa6l/Kl819rlGT9lwzoLdffnSTb7QyKIC9uzvCoSgN9qf+RymbOl3P6err0tpWm+ZEGYRmv9ijOUU1tFD3L0YHRYoSVLUJm4QzLoSBQ+aqV7hizG1nXyhTLg/FN4jqbp11sfoQ0fOeiEkTiDI0392D7kEnFKU+/D2dprIYA2O8zX8fHbFCzOUCTHCaAMdCVOhGqKpyDGXtORttU36L/7unG6euFQF4TzE+s89s95nsC0HT36f7zyJ9TeGL3WSp3mhLUQBRAb0oqrbSuaiUt0VYpho8uq9PNidaz9X4iqcS1HRFJPfRI05lYEcHoX6sbSKLi+u6sDLcpKqpEHc1taZn2AGbKan2ySYjI82hiemmTtlk6vQHui/2AJq8Cxer0DxycD3+fjQPBV/WtzF4NMaAmUyLUYkNV9eHql+u4LLhTdOIrsSyRQbOWTbr+R4+K8JvwlbgHyIM/zHXbPeZ7AtBV7NnfH09/fqKbJaTlVLrC+g45oRKggolJt0EK+fJpDZqUU4EN0EY53jbVuv7IwNUNN2cKbZXJGpWNf1wKtzdihaViyp16D7FWPS5K0TRcAavPLpP9f3pJmhbvObsEZCJ5tCh2M2ecXXi7+rTUinyL4Xq/wsd7MTES0UIys1H3xv5EHzpVTndLEYgXYrApQFP0+YIMc+J4ssSNvGeeFv2/c1AwFtVqT7FEP72arxKLIGX+lQAp91XKGXknHXi6HFgYiDx+9WIW7QWW4JBBIMPIs3xPBE9O3Gm+Pv9x6x/Nxv8JQtD0AxIKV2ReNK46q8rw7K6MtPHqAOjuE5OA+gXoah3S44ZaGOHjRxsE9Uc2oiV1uhIpfqrKJOVZ9zmVxmUZrBIgzXSNDy4Jbp/seje1nBg9t3dIv6teJ2e0bPL1aCUrZ4RnUlS5264g1ca0CqOP3/hGle4V26S578Du9LqA81CPetx+F1EjRh12ykqP/FGeEWdeO2mj/GN/TiSPx8z5aCagUz0F72DgZdF2BTXukY1fu7OlXpQyrZMzCcUz7lFjtIsRunWH7mD8OrrMdWZJ/jEdrwfCmDq9fZAk69jqpy20P1y7KkIQ+rGafG/y7nzatPvY83IOduJ5/96EphagZvMllFxyfnio5lUgiUNVeoapScLQ1CQk9ydaQB2H5099N40m9ojLJ3qKvWmOCeo5PB+81xL+9EU1RzagCcfA5bbx2SmCCQe+CL+nXos9/QB1awqt1v9i/KyHFutilRObRDHZu+T1HMmIEfCyq8wcz1v6l+jJo+/aTfUVArncfRUDmu6hZruYu5XczD11At12/uBIkuFnpJTJ8R7p7df8NafhadFqGkSwol3dpqqbzOOivCUMjI9QnriF2pKQUFtZOCMnpYQZ87bSFADTR4RISeD0Bq0cz3wQXiQjQibG8U+kNMfnH3MtIS0J/vLx5TTNdzPm/K0hqTOmf5CAHW/mVcZ2d8T/sIf35cjiktREfdDUgY8/t94Q1blNGz8Am0iomG66YoWfHdqJ555bs2oTZWoatiC2+fnoWtbHe543GxMCyfLExHRMPz64B5VDX73CjM/NNMWrUW9CEB0/26YASg14YwPzVUfYggSEQ3X8fX49mudwNQ6PPelxWZjJlRh7eNBBG+bA+x5CHU/HplJlmfIL+surcE/R7NJN0uwOZSIaIQkXE8wy/l1PUGGIBER+RabQ4mIyLcYgkRE5FujFoKyaXXChAnmFhER0dhjJUhERL7FECQiIt9iCBIRkW+N2hQJTreIppdvMjeE7mCJa5V2rR41z9prKcolmhKsZJ9QI1Y+vwL5Qy3yK7/v0/7y8GOvoMle2Z6IaJxgJTiG5AK9idYt1OSXe5v95Jdejwb5BdtmTUW5HmK2Ofsbz2DBuo2Q03qJiIaDIZiC8MrznqWP1LJL9goXRESUExiCKQthsKCGgUdENA7kcAjK/q0urLxFLkL7pq7Q1CXWunh638g+0VWbqvJkhWevfycu8vHd+tHRjhgrqkfo4/Eehz6GhAsFD5eqSCPHnmiNwKHPWbK85zb+Y+lKOt2K+UYUm3X8Kq6Qy4mWYqa9tp+reVTve9k3FgNzNlr7tKB4jtlFCFwntllrAipTfobLPPspnsdZcN0orRZARBmV85VgcV0X6gtbdJ/Zkvux91gZltmLtapg0INB9D4l4YVgowJOLjLbUIhd4f3kSvXRb9py8V4svHYYwZEBMrwr9oVfY/hcxAqlWWtQP+sAmuz90lngVn1gcJ/bbZ1xnlOEZbkaBBRI+AEivs3o3lCD18Rl/+tyAdtOHDS39WWNqNHdJl5xJxbUIryf/HeJV4iPTfVB1hah+zfOcwVx5JI6BiHROJD7zaFy5OLqBnOjCW3t4q1wUiEmq9v1qFlaJt4vn3aNhuy7e6N44xcButT7xi9HXkZWRdcr1QdQMMNscLReh13izb48qkocQ3IwS/g8SE1o2SEH0kQfZz5EAIZHe5r9Jl2J6hRfT+XyK5Evzn+zdW7bVusV+q+KqngbcEANsgmh48U0V8RP1eAe7LfC8fRbcgXwPJyTUtrfiMmi8jzx+iM4Ev5WfRHI28WLueSalAOViLJLzofgYPsL8YfuV38VZZPEPv3eIY7esDSOHUBbklMP2ppfQX5UiGaZQ/0xR51GnTOzX/6UVCo0XdlFn/9ODIgPGPmF1twPQ4+GTXd6RxqOvofT5qrSsx5vi0qu+w1zOxlzKnARTmLgrZ1mg9F3NI1AJaJsk/uVYBIGe+JVHoUoSneAS+sL6EDq1VMmhUevOhd7rl8irYcTTNGIo3qaeuz8hXe5n/N5e05j7jv7QplyeSi+weoPlJcb5mOi3oWIcpgvQjC+fvSlXZXoZsTiCs90iTGiJ97L5lynT1BcEs4/tJhAi/9hIQYTnINWf6Dr4mqazV2nP5B17kmrP9B9SamqJKKsM75DUFZrsu8vKqjqUTkrAHTuC/f/peXRfegunZvcAJlb5qLYXB15ZtBJZ0taTY1Fi8pFCIYwcMhsSEr8Zs94hjc6NEIHUxHOyUB/3NlfnuWu8FJt9ly0FluCQQSDD2KV2URE2WucV4Jm0EfpCtdI0KJ712DeJFE1NQ+3WmlA6+5CXLW00NzW+nr6xX+tASlyhGpdmbmRCTqQYAeyfM5kmkOrn8LyhQFR0W1MMUAj5za5aR/DHR1qMcFUvHh4ozNPD5wUKT4L+SZM5ShQPf3C0rMeh99F8qNKLzlfHJlUgiUNVeoaEWWvHP7u0Njfgynnv9Uv7Me2JZFRntEh1OG+X1DNiQWe78g036E5aL7TUzc5ev6t2UdWUvZ3eurjcGauyX+zFUXP3oWydud49fHHrg6t5wg/fgyu7/T0PJ687zFguXX8kn4N+rrD+52l7mN3k82fru8djXl8sb/fNNJkOwKDY+S8vVr7hcgpE85IUDlPsA4XvRvEa09tVlvikXMFZ15ibsjRpA+/h8ni32K7u6kzZkCq/de7B9+gCmsfvx1zxOk7uechXN/4stlORNmIX6BNNMKqGrbg9vl56NpWhzseNxuJKCv5fGAM0QhbtBb1IgDR/TsGIFEOYAgSjQjZDBpE8LY5wJ6HUPfjJ8x2IspmbA4lIiLfYiVIRES+xRAkIiLfYggSEZFvMQSJiMi3GIJERORbDEEiIvIthiAREfkWQ9Ahv1/UXhdvU6IlkupR86zez/5i7oTkd2ymsr8vncaO3/8F3dZlx03mLiKiDGAIOh6tNmvh3Y+9ckWGLKOWIXo2y1eyHyGhVy9G8TXT1WXpr81GIqIMYAimpQkt39GLx9qrLxARUW5hCBIRkW/l7HeHxlzbTzHr6nU+jQ2rzaK5UWveJVrTTvb33YV5A9a/DzP3TTI3Ez5O7PUCvWv3Ra3vl/C4PVzrCQpR+3vPj/Xamqe59o1aJzDq+BO8Vud57WNPi+wT7EPhqxfj8nvOMtuIiDInZyvBtv0d4r/W6u2OW+aKN27xhh1eNV68md8MNKv+Pn3Z1hnAvIY3UVNtdklapBl0Q1A+fxxqEIxe8Nd5zg2Nr2DQ3O2Qi9eW7zf3O/uUrogMymm9Dg+b+7Z1itsy9Jx95cUKQPlYciV5uYCuc/+2zjIsez7G65TP0VCOjkazr3gt+QvvsgbtWB8knOda0oKCm2P3SRYtKtdhaq9sT0SUA3K3OfTRfegWP4or3KM4KyvKRFgcQFu4YmnAk3a1JLQ1y0AKoGxRvdkysiqXi6pIBFazq7KK1nf3bHefogi9XTLsUg6TRlQvDKhqzn68ttVPi3MkAn+5d6SrrBCtqs6cy/wp5nxUT1Oh1r3fruqiz6Oj78UDOuA793mqciKi7JbDfYINaN0d8gRGI8pLgcH2F2K+WYe1Ho6qykZOkscQR2+/eE2pUtWveM4eb+g24IAM1YJp7gruWD96zVVNBJyo9sLNoeb8FNclOaXDqViH1RRKRDT6cnpgjK5ArCZRFQYd2OWpwFRToT0HMEZf3diQzY72cXWhXlR06Qlh4JC56jWpEJPN1eTIUNRTRWQQ6mNLp/mYiCi75fbo0NYX0CHfqE2TqGoK9TTJyQCUwSIHpET6t2Qz4Vgz/W6efr4mWd2OtKjKLxlW/6fqz0y3H5WIKHvldgjKN+odHaZJVDdDuvux6lE5S1RWImhaR20+XycGRDDnF9pDPk0/obmumCbM7h2x+9m8VDNpvIpO9enF6uMcXtNsmGzuNEFYMMNss6mBQKJaTPgtO0RE2SfHQ1BQAVCG8k0iVKLCrgl9A+LHpHJUOhWMGbmZuebQJrS1y77KmnDVJKvRZQUhdz/koX7d72YN7JHTJeI1h/b19Iv/luGqe2MN5tH9o/kL17gqtcpN8nVGNw8P6ZZW3Op5Hj0CNHaTK0eHElGuytl5gjZnrl30XDfJO7dPjozch3IzhcHZP2q+niU8ty9qHp5FNmtaoyddj6fmz0E1f8KeJyi/r7SuzNzQx9+MNSII+2PMf4w07YZ5nnOo+8PnAt7t0aIeK2rOoYXzBIkoR42LEKTxgiFIRKMr95tDiYiI0sQQJCIi32IIUtYJfOWvXE+QiEYF+wSJiMi3WAkSEZFvMQSJiMi3cjIEZdPqhAkTzC0iIqL0sBIkIiLfYggSEZFvMQSJiMi3GIKZ4Kyq4Fyefcq9qK2H/J5RuZ/3S6vjk98BylUbslL4d986Nl8mbp4/qcWQiYghmBHOSuvisk2u7J5l5Jdjj9mbNBFRFmEIOqu7x6vWzCfr5Ku01LWt1oEZvQIG5ZzwB6A4K24QUVZhCKIBB2S1Zq85aHHW0et4kQFFRDTe5OTXpo34V7CZdf2i1yOMtf6ed33CeOsYampdwYLY6/d51zAMr1sYQ8z1Dr3r93nWJ3SvASgr3kSLCXvXC/TuH8LextloaTU3Bb3moFz7cCuK7HMStY5h9PEnOmfxmXM/IF538zTX2o6xHs+7JmLM53TWQjQ3Nfu16vNgrz0pRV67OWfex4lxDqRUzllSxx/n95rob4mIIlgJSmp1eiB/1lfdTaLVX0WZeJMabH8h/OZUuWkN8JhuvlSXYAfyF96VVnOp0wy6ofEV96rzLnoQjApS5zmX3I+9x8zdDvkmXLEvclxqnzIsC/f9NeBJc1/T7pC4LUPP2VderACUYWre+J37m3YD8xpiDbiQz3EXytqdfZ9G96QrUW8N2tEB6H6+XYXuVfBTUroC6xrK0dFoHs/8Duxjk8+pw8bsI84xvL8n+TpFcA2KwHCOSz5WWlLqB07unA15/Kqp3v17Svy3REReDEGlAa0yGDxNoroptAO7rE/fbavd1RAe3aoCKSpAR8ot14pqQVQmj0VXFS7yTdi1qnsTWnbIN/QylKc0UlCE7lJRTYoq0646+u7eqF5n8dLovlNZdUT2Nc3LBdPMfvUoKhA/Ove5+siizmNKZKBa/975EDPFBIQIh6tE1dkdtIJdnJ9m8TvOX3it+VAQeZ1jUTElPGdJHb8IyuWi8hQVZHNUdUhEyWIIGn0vHhCfoAMoW+R80q5H5axA1Jt3tCb0DZirGVBZId6ojx1AWzqBcag/9arAqX77veVME9ra5QeFQkw2W7QQBg6Zq4aqcMNNe+b8yOptpKZ0HOtHr7mq6SrXCRXnw8sBT7j19fSL/xaiSH7QMa+ze7/9wWG0JD5nSR0/GlEugtJupSCi1DEEHa0voMOu6OK9SaomKD2vz7lE9dWNEdmEZh+XbOpz93Ulb7AnXnXhvAknT77BqyZYGYTm2DI52nZyoexHk02OnvPh6i/NXrl+/ES5hCEY5lQ6ukk05qdxGYAyWOSAFKcPRlyyYS6g7neTAzoix5WZ/qF+9KVRlfbdPdscl+7PTLcfNRm9/bH6PJ3LcJphR0euHz9RLmEIWiJNoo0xm0Kd6RJ7m0evCU29IXqbIFU/obmu6KYxdLYk9QbpblbzMBVxcYW36TLZ5uGhNKHlOyYIC2OU0IvWYkswiGDwQawym1KV8PU5Wg+rDwjhfkTF9BMOyZyLDEnq+NGJgRjnUPUTmuteq34uz2sQWxqqzBYiYgjanCbRhStUyHibQvWbk7vfUI3czGBzqA7mMlzlVE2yGq0rxKA4zgj9hojSuZFvgTEjH2O+Iaq+wgDmLY/VR2cG1JSucI22LLp3jR6gk/IHgEas9H4RQdx+R6Bq4ReRp66V4MvfV1dSpwYridfXkOhbcfRgFNdAk01yOkzIUz2bsAkPfJK/c/cUmRGX1PGblovSmvAoWzmlYlmB9/gdVbj4An0tb/630v6AQTTecJ6gR2RulmyOsufNad65W3KU34EKM4XBGdjg2ccWmeuVaN6e57ld8//0fZDNn7DnCXoeT847ewxYbqYARI2ATDinUBjqfkG/TkTNH4ziNCObm1LceWyyErxtjgjCLvyu7g48YTZrJoBc8zbj003E5obDNbfSHWjqd9NzrXjdhZ7X5D63kf0QPifJ/c5TOGfC0Mfv2UfdB3WsiHV+v/8ggstKxJVY55bInxiCRDYV/t4QHC9W4cHgN1ESegMPff8+vGy2EvkZm0OJfGLVz0UA4iTe+E8GIJGDIUg03slm0GAQ3yyWzaDX474XzXYiYggSjXuP34G6ujpxYT8gkRdDkMj2aDXn4hH5CEOQiIh8KydDsKuriyNDiYho2FgJEhGRbzEEiYjItxiCRETkWzkegqex4/d/Qbd12XGTuYuIiGgIOR6CZ2PpNdNRLC//UQC5AA0REVGy2BxKRES+xRAkIiLfYggSEZFvMQSJiMi3GIJERORbDEEiIvIthiAREfkWQ5CIiHyLIUhERL7FECQiIt9iCBIRkW8xBImIyLcYgkRE5FsMQSIi8q0cD0FrPcF/HUDAbCUiIkrGGdOnT//UXI9SUlKC3t5enDp1ymxJ30g+FhER0UhgcygREfkWQ5CIiHxr1EKwq6uLTaFERJRVWAkSEZFvMQSJiMi3GIJERORbox6Cn6zsxql75GUHPjHbYrnpiha0XnGjuUVERDTyRj0Ez3yyGBPuKcbnOsvwcYIg/PXBPTgxtQ7PfWmx2UJERDSyxqw59MznX8FZKMSnU8wGr+Pr8e3XOjFx5p14LN4+REREwzDGfYIBfDrZXI2lZw2eeR8oW7ARN5lNREREIyXrB8aoZlGU4poEzaKrfh5EMLgFaxeZDUREREnI+hDE8Z1oPw5MvHgxvmY2ua3Cl4vlzzx8cWGV2kJERJSMsQvBnsM4w1xNbCee/+tJ4LwLMMNscXsCb3XLnyfx590vqy1ERETJGMNKsANnDAL/qPot4i5jYfwx1Cf+W4QvnKdvez3x4zrU1V2P+140G4iIiJIwhiHYhLMeKsaElwtxWs4bvH3oMCQiIhpJYxiC9fjn7SL8Zu1T8wYnPPS9JJtHiYiIRsbYheCUxfgkH/hM+0/Mhvi+FigS/+3De8f1ba+qhi0IBoPY0sCBMURElLwxrASTtRhLLs4Djh/FIbPFrQpXf1HcL+TN/xZWqWtERERDy/4QPG8xZp0HdLSvxx/NJreXcd9LXeZ6IS7mXEEiIkpS1ofgTTPnY+LxPWjuMRtiefwtqBgM/RkvcYQoERElKbtDcMpGfHdqoipQq2pYghLxs+ul+0RdSERElJwxC8FPllyJf6IDZ+4zG7zO+xmeW1CKEwcfwM3xqsDvP6gGxNw+vx+/q6vDHY+b7UREREk4Y/r06XGn55WUlKC3txenTp0yW4ZPrif4cam8FsJnN12Os+IEnFxP8LsIovr1zWYLERHRyBr1ECQiIsoWOTBFgoiIKDMYgkRE5FsMQSIi8i2GIBER+RZDkIiIfIshSEREvsUQJCIi32IIEhGRbzEEiYjItxiCRETkU8D/AwlBxqwpQqrPAAAAAElFTkSuQmCC;" vertex="1" parent="1">
                    <mxGeometry x="-1084" y="3202" width="449" height="159" as="geometry"/>
                </mxCell>
                <mxCell id="103" value="" style="edgeStyle=orthogonalEdgeStyle;html=1;strokeColor=#33FF33;strokeWidth=3;" parent="1" source="101" target="102" edge="1">
                    <mxGeometry relative="1" as="geometry"/>
                </mxCell>
                <mxCell id="101" value="" style="shape=image;verticalLabelPosition=bottom;labelBackgroundColor=default;verticalAlign=top;aspect=fixed;imageAspect=0;image=data:image/png,iVBORw0KGgoAAAANSUhEUgAAAp8AAAA0CAYAAADMrFMMAAAAAXNSR0IArs4c6QAAAARnQU1BAACxjwv8YQUAAAAJcEhZcwAADsMAAA7DAcdvqGQAAABfaVRYdFNuaXBNZXRhZGF0YQAAAAAAeyJjbGlwUG9pbnRzIjpbeyJ4IjowLCJ5IjowfSx7IngiOjY3MSwieSI6MH0seyJ4Ijo2NzEsInkiOjUyfSx7IngiOjAsInkiOjUyfV19iLLN+wAAFIRJREFUeF7tnQ9sVVWex7+7s8mOJbaFhdpxaVqh44xaQALzB/njuNhEUqMRwuCUUTSRIowmq+6OjeJmMoMGZ0bdrIIKJIuOgkiqcWPDJIVlrGAzE7GCiI5SaAMzUwoDpQbc3exk9/zOOffdc++7r31/7rtt4ftJbt67951377nn3HPP9/5+v3PuX1VXV/8fcuCSSy7Rn19++aX+JIQQQgghJFv+2n4SQgghhBBSdCg+CSGEEEJIYlB8EkIIIYSQxKD4JIQQQgghiUHxSQghhBBCEoPikxBCCCGEJAbFJyGEEEIISQyKT0IIIYQQkhgUn4QQQgghJDEoPgkhhBBCSGJQfBJCCCGEkMTI+93uhBBCCCGE5Aotn4QQQgghJDFytnwSQgghhBCSL7R8EkIIIYSQxKD4JIQQQgghiUHxSQghhBBCEqOwmM8JD2LTwmkoQQ9aX/wXvGo3X8ws/8lJPPrd8+pbCd77xQQ07jLbyShhVRseW1RrVxRd2/Czpma7QgbFK7uz72HjwqXotZvJMFD/Ku5vvg79LVfgV+vttqxYjgVvPIKZZXYVA3h/7TTsaLOrReLJ9T1YMkm+lWPbTWV4WG8tnKUNL6Fhol0Rju9AY+trdmVkM++GBjwwvRTnOlvxw90DdmuYUqy+pwEzSu3qwAE8s+ljtNvVkUso3+o627elFWuSvmlUXoNXGqfiRNtWPPSR3eYyZQ7erK+yK8IxvPX0Hmy2ayMae25jRug1cRFbPm/HEytewqbZs+x6DKw4q4QnlOisRs1NFJ7xsBZ37DqK+9cst+tFZn09fjb/CrU8gffP2m0XOdM3HMVjb7yKSrtOLmQ2YsdCuf7V0nLYbis+D6+Se2Y1th3px5Jfn8WTdnshGOF5Hh++sQyNL9pllAjP7KjCUw824Jtdrbjt6a16eaarBg/ccw3m2RQjlwGs2WTyfFvbMbsteeZdVaPF2VuDCE8R/1753jZahOcooDDxefJp3KMbNa2ewpPT+oEjpQWJTt3RK7GVtoyQzr9yzf5Q3tow3f5G8iO6zkdhuXrCPQmrp1hZ08pMlv1YUG/TjFTEKil5Dbdp75wuYqH/cMt4JUv+B1Xz7Ya8uR3XiMXz+Dv4+UmzZbTRfso8/Z44FWX1FMvhHFwWsoq2734X+zAVTTekTIokI1W4VSzLXccirYJ3XSkWz2PYmdHqPMLpHcAJ+TwzMCIt4Yz5jI2/oOrv7NdCEbeltr45y7C7McUddxTLZwHvr3Xztg91G9baNCRvAnW+Dd2oxc0U9kMgLmH3WpSl+C7i2Cirw3RHKE+/1gn3uKg5j4qYiuJ8f4/9doExZSpmlEYJIyU0ugYwZlwqboJkYko1Jqny+vSTQcTlwBkcsV9JvOQX85mK9bR8sR/rtjyNvXZV0C4P7MC6/uvxozqVUmJtfnd56n/d7cvwyCfqi97X1/HZGyvxh2878TkR+0w7blqs6Sz8uPFeXHs2eCzh/MEXcM/eDsye/bzJTwa8dLnzF2zZdhzX/bkSNav+1m7LHbGC3Tw+u5g5nXayXVH0dzyBZ1dvtGvGSrl8Vh/env86Kt04LicmT+8D27Cxb4FKq56WJcZxe5WOFytXv3fbmDGzLxGeWXTuNt5M/m84rPJQj067Zn6vw2G1r97Fzjk4+TLHy/z07p+rjVE7Fcy3EC4PYagy83H2W+SYz6g6987fK3+PcLlE5j+t/DPF7Q0S35e2jxBuXGcWcbKm3EPXgUbCKpagJvCfLOIO9TErsroeh6xzZ1+B69G5brNtJx6DHlMfT7Wljgr1iPGc3S7lMAOn1LaZVx+MvBZSRMYh23K0ax5uvqKuM6+eI2NDhyzjLOopV+afw4F/PoW+N6tx44t2W15IWNUCVGS6n1/1U2yZNwEfhvudqPELg/Y7ps+5sucF7C6/V+9H9yGnF6j9V6vfxe2/Mnbr612LfoAbT2eIBdXuYvixiUPGLYr7fg7QthVvjTdxpoaI+EYvjtCu+ngxm2ZfYYusiV89Gx0vqfNXljnmc8j82/jRM3tw297SQP4yx8s6/2mJdvtLGd86dvB4SZ1GqtmSdjzn3I7PdtP656D3gT145vRUU/Y9wfM4EopHHfKYObLsqRbcUnMOH/zbnXj8HbsxAfKzfKbc7cvQetxui6Lsetxd/g4a29XT58TrsaleROYL+PALoGbS7TaRUIJrFxqxamJzdqD70mn4UYOfRkTjFnUD6FOi1YvfaT1ejYYVz+PHE2wij4mq4WtBa9Oq45fU3YsnrgL27l3pH0MllRuFtz9Z8hOeSWPiIHVH4ll81r6n7oOP4LE0K6RY0B5B7aEnrGVoG7rLrsNyN934BVhcscPEeE1egPtXijA0MY8110q65Zh+tWoUZw+ic4iORTrKx2xn5lmj3u6SPITdoaWY2XwUc/qi89W7epq/Xa1L5+3tT5Y0wTV5iTqu5NumUedSrsrjjlX295zKbKQwgFOf268KEQ/mYSKY/2A8rDrPlcB2L41a3u6Ssg6Vv4gOdV3MhFMe858DFluXb9tSPJv6v1oPW+NdAZNFnGznhxI/WIu6VH1YVs1QgkmJlu2emJJ6sqLfHmujapJp+c+KXOrcXI8iMP1zUdet6wIfsp0YjPAU4WqPqZY9Ffel5b/3nYMqL9/X1u3KNQtQ3vE6dvyxT903K/A1nULEXajOpT3Ite7mS9flEvV/p42o8+y3PxeHOOspLkQIvoQtK2RZoIW43PfNuizhviLc70jfpPqUxgcx26bIut+pvhM39L+AdQfPo0R93zQPSqBKH1OCK6+McVyBpgpTqn2LnYiRNx+0i8R7njyDc/oXhYjFK3ucmMVW7Buowq1KIN5lk3hMqv8BHhh3IJjOjR+1whNK7Php5AcRUkUaLJRD/lGthF5jDT7dYtO2HcOY6Q14aor93aWyCt9UXdqRz4LCU0SyV5Za4JUqQeiVrVpeSYUziMhWaUScennbckA1fvX/Ra5QFkoxo9EIzMA5uGU7diqapOwl/rV6Kl65Wc7DlO8k7f43GOEp5W2PqZad4+Zidd5xOsswRT+xjsE3Zs3VW5KiuG73S4HPfucFeKvnxp6X/SfAsstTDVwTGIX4GlpVI8bEq7FUr9+OhroSLRS1tdTyaqtp3Nd+2xWygjyZOk+bnxzSAqZiXNw3geFBOqoascq4AkCJhe0d6kpVnWL45i/WD1+sNeOgiInxVX7nVQYcTnX+qnEdes63Xki6+u+hVqXpP/Qb/3iRrEX9rFItFF0rSmeTCEjVuS8Odfhd2wbPV05IZ+9YXdbv03VefrkRZrmW2bCixMRisXS5Yl9tmzNZ6tKxHNr8l1sBY2jGr9xzVHRuFyFSitrrfZE6ffF1KHetl5qN2NEU/G9s2PpwRZqgXc3OeabqybHs9a5+Tgm8iOtnCHKtc/2AkzruRnQeUulSQlAxVDvRX5ajcrz66NoXsPB2NkVYBNt+g8NK4Natkoc7te93Qg9Uq76PmWViTXStxap+RfyqB7V6K+S9utwefiArInHWU4BdfwMlv/OkAz/f4onEKONCugVS/57qdzqwt0f1O5eWq3MTsu93Si49id2e4eLSEiVWfetpSbljpoqDylJchrM4ri5qEUueAHpLIgzC8X29H+OHAcveANb8VtaVgA2LMhkVnUpr3PcoHQs9CYFCD85RQtN39Q+yr7jIJf9hEfxRj3aZXzbeE4w+mQYate/2Bxfp8pQyseuyeBbGeTdMVeWijudaRVVeN3Sq35V4DItBPWhpkLKV28mne73f1UrXu/55jC21IrUUE8eqj56egPV4c0shwv8lfCQNRT2u/L7jXb0lKYorPr/4HHudxt53OrNVsftIcBTi3tPyxwn4e3m6vOpqfTNI//9r+Fgsr2Eh+0W/vvH4vIZH1M2nqFbN+f+FOumc9ufvck8hFkAZeOAsvnXLs0L24U92i4dYUkRkjP+63aAJWs+EzqYrgparkEWz/495dmLaihX1/2hh2f2h33EVTFp5qE56vie6cy2zYcCt8+brVD+ohJBTR5XX16FcdfYHQ67RXrGUoUI9IJj1SNTTdNAKthZ1SsgO/TARJ81o06JvhiOUw/mw9RQSbiIEe0+pj7QHE2OtdNuJbxHMvc7D162xvjvCL6t2YvMq1skMFvXKyytsvpTY33kYNTfeh1qkexVMDGgfesOiNfBgNRx1mWs95YISn2eB2n84p45SfMJ9ivGMWeGYS79z/JDjqj+PfimHYjFhrBJOEouoRMlkb8CMESbnTmdwPbi4llGHTANvPCaNU3UeyQDOhER9UcmQ//T4zGN4yBGMPoMPNBoaU+5R8aDtn3SrvJVibMgbGx40ZkSuEzow0I12pwFHDzIbwPEz6kMsvGnW1fx56aFFWLQoWZe7MIoGHA3SoFNPqsOAxCj9ugfdTcCzNxUap2QJuzhTIsrh1LGMnY1n7Rse0sVuCteKNByM2DJTpOrchBkErZnA1yrkxi/hCyGx5cZaWnToQyBdKBawvkrHKeb9kJEnRvQ5rnf9sHIYe1LX9mSMl/hBEW6B/Isb26QIIlbBYDtJG5g3DHUuD3cbtdD2zyPjVGEiJMtK0b/TzbfzMBEhnj3KKyILJQFyradc+Aoal1Sj5j//F4/KfXVbMiI0MyOv35knhS8WTus6NkKlTAxkkaIl4JaXJTJmc2g27z2ghFUVbky5nkux+jtKBIWEU9zElf8UeqBRDKPYBxlFHmVtjYPNLVvxjLauKgFqy8MPBRhdXBij3dMsnQmyawymKtFZswG4X90sd66w24eR2EWFtZyVX/29AiwaikE60uEmaSGWGetWVSJtjiNY/tQnN0oJLQiJLb34Ll13oJL/uxG0Kbz6TFpwazez73rXlr2A9awLenYZGVATOD+7hIVlgRSzzv2YZRMTKvHH0QLUWOjTBvtkQX+fuBOGg2LWkwzcVKJz2lf1vJ81S8ZgpLTMNIaz30lhrY7aFe9grXImRlAGA/muY4lNjLQcDoVYXNWHxFEa4dOAGThQ1AnMY82/xgrmkOs6bqItl/HghwaYmFCpj9EoQEes+Fw6qdp32+uYzajAbTOX2/mejuCo+KzoQf8XMcbj7PoqDqobcu20/7YbioWNRQu4Lw2ZXLOFY93moalh0tDuwGBsoaEQ16Dp6Aqz8hSvzGSkYEtLC15ujjFYe/3rVrD41s+s3OspV/N7aBv0fGyZZvkwoYVvLFZr42Y29WCuiWDoRRxuW4/haCdRyKTtVoDaa9hYsYdGD9KKanN2kJaJEY1uHzoO1H4fDFMWuRJnPYWIM3ypUIrS7xQTK0RFJGqrnAxMUus9B2IYDOSJNm/QjF2yEp7WTZ0zcebfkmGgUW7YmM3q6rRBT15c7EdRk9bHjkzUbwVoAVNrzW1+Of4+LAtGpvi86qd6yoruTm+qJTMAqaTuzsAIw6UNEvTe4wd650QH/qBu2jIKP220/Aind7UEvNfiZjemzA5S6e94PRSHFQ+pQUNpo1nX4o5UPkxcX/ms+wJppm8Qt6/rXs0FL4ausEFBxSmzuZg4znwb861bscx8jQEr0lzrpxakUv6Dzf1py8oVLHYkdNA9aPcfnvVAidcFG9InODfCN2iJzRv9gFKLug1KQEWIZD04Ki1f+TEc7US3h/Ak8d6AvWwslZ/3+fGoXp2vdPen9i+hFl07rLXbE9l++xDr983jB7R128U8RPjXRtoUTjkQZz2NXIrR78SNiS+8a7bvipbJ0Y24Oiue4aBIkql/8nJb23jD1OCXTJhjjplclRokE3yNZi7EmX+DLqdMbzTKgfbdB3BEYkfd2MvKa9CkX4d6oEhW1So8FX57lRXTWcX6RjIX875hSjPePmxo8hKfevoJO32Fnh9NpkWy6/m+rrJmnjcdhlr0/Gt2HlCLBIKvOwg9NUbq2GX7sa6Atyu92ipTa5jpNrx9xvq6zaIhrjo75YoXb2WnN0qLDY0N4x400/a4cV4zcDAw4nWanXLFT2OmugnP75g9nU1iOQoeN/fXbWZXZjJNjvndzl/opPenbfJ4F4+3H7XfYybN+ikWNCn/iLhPRwCklVVzBfaE3e6CTI8k0/EE4vbuA7ZHuExVWolhFNdxKq0jsHIrM2NFr5lcG20J11M8heop476GYpjayfPAYiff+R/TWk3hDkC0UyqF2pzbLpfLdFALd6SJz7R0Mp9o+NrQDyv2WDqe2LmWXFEdaz2NXIrR7xSKfvORiMDej7Gzx0yRJHN+vtXjT+lj5oUUy9geI5K8eMnvnMEzebqtN7eofYWmHvIWfzoje8xUOvv6T5lCyEWmUPL+r+fwNHnX6ymBFW/+PUtq/gONXGQwk8qbE3spovhEW9QAp7hQx3wbaPKOF8sx3T6sQmxxiZHfJPNxMsFM4CvzqLlic/QRzyTzZLSxDL9suQVXDHyAf737cdWUCSF5E9sk8xcwer7NsdgZmGi92JjJ4yfJ1EMhV7sfl1mkuT7jQk/47ky+TyzD04ddGAOORgRfwbE/26/komHZU6rRqufwDzZTeBJCEqD3GD4dcEedJ4Ad0BRlNTxyuliWvjhJZqDRaGRu83zVhwFH25Ptwyg+Y+RwXwnUoyG2zLcbyIXL3b/UQdq31BzFfwzDHGmEXIg8ueiUkgnl2Eer5yCYidbT3t4jFtEY538M0DuAE+rDj+W02DjHYk+3VDjiwt+a8VWaFyW2D/vHb/WpPmwR/unf7faEoNs9Zpb/5CQe/e559a0E7/1iAhp3me2EEEKieXJ9D5bo173wvpk1ae88L7br27re7ZpHoe8WJxcnwy8+CSGEEELIRQPd7oQQQgghJDEoPgkhhBBCSGJQfBJCCCGEkMSg+CSEEEIIIYlB8UkIIYQQQhKD4pMQQgghhCQGxSchhBBCCEkMik9CCCGEEJIYFJ+EEEIIISQxKD4JIYQQQkhiUHwSQgghhJDEoPgkhBBCCCGJQfFJCCGEEEISg+KTEEIIIYQkBsUnIYQQQghJDIpPQgghhBCSEMD/A6YfUHbsrdgyAAAAAElFTkSuQmCC;imageBorder=#33FF33;strokeWidth=3;" parent="1" vertex="1">
                    <mxGeometry x="-1370" y="2740" width="671" height="52" as="geometry"/>
                </mxCell>
                <mxCell id="109" style="edgeStyle=orthogonalEdgeStyle;html=1;strokeColor=#33FF33;strokeWidth=3;fontSize=21;entryX=0.5;entryY=0;entryDx=0;entryDy=0;" parent="1" source="102" target="119" edge="1">
                    <mxGeometry relative="1" as="geometry">
                        <mxPoint x="-890.5000000000005" y="3192.0011764705882" as="targetPoint"/>
                    </mxGeometry>
                </mxCell>
                <mxCell id="102" value="" style="shape=image;verticalLabelPosition=bottom;labelBackgroundColor=default;verticalAlign=top;aspect=fixed;imageAspect=0;image=data:image/png,iVBORw0KGgoAAAANSUhEUgAAAfoAAAC6CAYAAABGOo+RAAAAAXNSR0IArs4c6QAAAARnQU1BAACxjwv8YQUAAAAJcEhZcwAADsMAAA7DAcdvqGQAAABhaVRYdFNuaXBNZXRhZGF0YQAAAAAAeyJjbGlwUG9pbnRzIjpbeyJ4IjowLCJ5IjowfSx7IngiOjUwNiwieSI6MH0seyJ4Ijo1MDYsInkiOjE4Nn0seyJ4IjowLCJ5IjoxODZ9XX30VJ1vAAA1BElEQVR4Xu2dD3BVRZ7vv/PGfeMavQkshgxrlkAyM4qABBhZlD8ykHpSUFKah5Q4CtQSXCmcckZnN8UfyxrAl9nF0VIf8yRu+WdmmNLslcLBYl6FjPJHGP9gGEDUMYEwsBhiFpJo5ulbffu6+/S5t8+fe++5N/cmNyffT9VJ7unbt7tPnz/f7l//+vTXRo8e/Z8ghBBCSCj5L/o/IYQQQkIIhZ4QQggJMRR6QgghJMRQ6AkhhJAQQ6EnhBBCQgyFnhBCCAkxFHpCCCEkxFDoCSGEkBBDoSeEEEJCTG7ejDd7HV74wWQU6N3etx/H3XX79R7pT2oe/gTrrrkMm5cUoF6HOVmJn99ajQr58d+iqHrrGRVKCCEkHGS/R79iC6I/+A4+fKIa1dVyexwffud+vFA7U0cgmTJ300NoalqDv9f7KbmnG+v+9s9o+V0ikZ+DzfOEyEuB3zGfIk8IISEku0Ive/ILi/HuE3dj814dhv3Y/Ny7wHdrsG62DtL8/bZ/FsJlbC8vxVz9Hekjc3tx9NYu9Pz+Ksx7Woe5uWIOxl3Ri7fep8ATQkhYyarQL7tlMgramgyR1+zdhw97CjBsrN4Xcv60EPbF5afRMPfHmGtvPwdu36SMyKSP/LS6E5HuEXjy4a/rEB+uGI7L9UdCCCHhJItj9MuwJToXFx29+TjLHo3iFryC6geeVz15S+Sfwv/S3yfCiqt3BJ8dehqL1rdYO6vXoKkaaKi7gPm1lUK0ZJq/xd+8fA+mFYrvW3+LuauaxAfZsLgZiP4YL416CGunX6F+DhXfXQYrbry58SnerPsJ1jbqXYEqE0TaDSOxU+Vr0SLSv2er3tFIc3s8P1f5Ber7cS145LbzuN3INx7PXR43Pscge/M/7kTHjtGJe/OSUU+hcVoJ3trz37HuUx1GCCEkVGSvR79iAsb0fIh9SuSl6EcR1Zscnz/5Sa+KJoWrUgp36/spRF73+kc04xG7x1/XDEy/B03bTAP/cMy/dzh2C4FvwWjMf3kprj3xNB45JJSr/BrHeHZF9T9boqrSexpvdo/GYnO4QDYchKiWCJG1rQyPHAKm1f4znl6t49iU34ymWpmvHe9Tkf5DeKRKfy+QDYK10y/ErRa6/DvdVovCSqxtuhH/XqfjRU/jchHPyrMJ9xh5WMKu46nN21iqmflnRFCEw8lEnhBCyJAga0I/c2QxcOEs9mMm1j17C4rffhzV1a/glPiu47zhcb/6GtU7bTkie9qJmbvpRhFPiNpt24XUaRq34wkl4Dcagip6yyd+GxO7y4XcPxHrMQ/H3xjCi27RaIil14K1e04Lka3AXBWnAo/MG62sAGaPu2n9dtEgEN/Oc/sPyJ5+XGSb9rbgM1GWv/qWDqhaivmiQdMSNYRYl//y6Td7HOpaoobVYOv7onRAyajE/fjEfIU51/wZOHkp/lGHEEIIGbpkTejHXlmA3k9OArNn4TuRXnx4SIj77KtQjF5cFMHpIcR3nBDw7gv4SIfYeARVCO57IixG5/l4w8DFZyfecn730YV4WlXX49pCEadDiL+DFjSdEI2LwuGIZSnpFuGGOd/N3NkVaiih2WXKbzp3Qfx1NUB84mXOlygWx9HTcYneT8w9V4mWyKcn0ESzPSGEhJasCf1Vw62e+8zp30EBOnBWmvDHDot/zoQkop1Zbzc17eeMRoMDtzgn51vFclx+NBabswrkVj3aijCA3HP9bjTeuhuTzs5H1Z6H8DsdTgghJHxk1es+Rs9FyE68MucbqB6/6kWLPvukvk2kSyzIueIC/pSkB+/mow6/8XR7czr39TdPvyUEfsd8HLlKCP68n+B7OpwQQkj4yI3Qm2jRl6Z9NVbf+Bbe6xYBLkc5J9pc7hMnkUk8Exxp6XJ5GyB6GCGl86ATfxN93wiW5iXoEMcRKf5S7yfm6bOtwBXjMDc+KYAQQkjIyI3QR4ZhLJZh0Xftl+Auw4SyUzj2rPzcgrU/bxa9emnWdr3lrWopntYe6U3r3xAxRRzTw158/4PpV+CzQ3Hnu4zxpKWd88pvdnjYz920FNMKP8WbDYkGERKw9bd4s/sKTKtN4012qdA+BdMWJ7OGfB2vvX+ZaFl9jp/qEEIIIUOXrAn9WdHZLB45E/vrmnAKY3CLmlP/Ck5FJuP+6C3ArgfxvI4rvc8X2dPbzPHre4GXYh7vclrZb9Eip7HZ39dWoj36Y4dXfDrIKWtJ09r6lJraJqfh2fGs6XGZmNpFw+G2H6Oh1Wec3jE9MA1kvYnyqal9sfS8DYn6/ZehB12Yco8OIIQQMmTJ2gtzZta+gPuvbFIvxMk/rJfOyPnxmTYSBhs/3XoaS8YW4cWbCxNPs+MLcwghJPRkrUe//9CH6C2b63mfPRkY/jE6QvXql2z9Qof48KnlGEkIISS8ZG+Mfu9mNLUVYPIPtmCZDpLInv6WFXqH9B9NBZi4owgY246jD3+lA118+ie0owDXX7NSBxBCCAkbWXXGe/6BarzSJsfn46+/vf87H2KncsIj/c7Thdj8+8sQueZz1OggJ8/g3h1RtPx1tZpX33g9BZ8QQsJGFhe1IYQQQki+kZvpdYQQQgjJCyj0hBBCSIjJmtCPGTMGl156qd4jhBBCSD7AHj0hhBASYij0hBBCSIih0BNCCCEhJmvT6+QY/ccff4zPP/9ch+QXldtOYWG53hG0RcfgF1lYAW8oMGvOAvywMoLe5lfx/dd6dGj+s7z6Diwylv8/2fhrPHBM76SJSmvYUTz2zHvYp8P6Tike/dEMjMUZ7PzZATynQwkhJJsMmR5986ox2DhXbHUH0aXD+gPZwNjw8q9QovdJ//Fc9Ne49Wdi234UvTqMEEKGGjTdk5Ts6+xW/893Dp7e/OCgGxdllfZcxEkrgBBCsg6FnhBCCAkxeT9G7x5b7zr0CJ5cX6/3bOpwV9MSlOk9uRb8rrlVaNZ7Dqp+hftqb0BXwjH6Gsx/eS2mFupd9OCduuuw22c9+pJNf0DN9IjeM8qm8yjS4R66D6L+tjvRrne95XfnqcvU+SI2NpQ60vavD7veEpc9q5Rci18unYgCvSvLf3j7q9gUP0BrjBsHcOsbEUdcx7i5SqcMH4jfnr3RGF/v6ePYuC7f+YRj9BGsX7kAU+Kn0uOPEBuj3wWsSlR+je3TEOO0OO7oGb1DCCH9S1736C2xkqKtx9fFdqB4DeZX6QgSKapCJIuE4NlxdrVWYGFTIyp1lOBIwdWCqtOqPwRMrf2DM08lvKeEyEMIabxsDbjditd4J57UYbtaxb4Udr2vNlPkVzdig6v8Vp6ncNdqHcemfAk21I5Hi51ntAVF09d644njGK8aRxFUzPZfziZ7lOLRhcA2ORaut52nI5iydAHWux0TRs/ADiXkVrzHmnswtsodT/5WNwpUegdwMjIRP6wu1d9nn+XVM4Fd8fLf2ngGBZUL8Ms5hlgryoTIJy+/JfIQDZ14eo9dmIhHJ+gIhBDSz+Sx0NegZIT413rY0TNvXuXsoVYuFr1bIaQNRq+2edWLaEMFZmxKT+RKNs0Xj3LRsFhVq0OA9vVP4Z3uCKYurtMhgtW3ix6/t7fcvr4qzd6zaDDMqxDH+KKjV27lKWRlntuJTzZ6jDy3HhbHCRSNch9nLY7LBoboWbfs9fb2s8sZPODqbT/3hnR+i+Dqa9xC6ezp73vtKE76xXP0gM9gpxBUjB6N5Tok2zwXdVofcOwoDossC8pLMUsHKUQxpbXBXf4pN8YbIWOHi0g9bdhnpLfvtVcz9vYnhJC+ksdCX4/2TvFP9mK3GSLrwOq5dp143TCDS1oh/ceKig2bf0pqUDlOPKRdDYtYOUaUxkS3cpIQ5+7jaO6rSbzqJlQUivJ3KFU2qEfzCaE0hcX4pg5RdHfgY/3Roha/ED17P9O9NcugH8z2frT34Lz+6MAlgLYzWsHw2DiJ4uQfnWZuyxmwEFe5LQQ5owdnL+qPJgnKj2GRWIPg5AURIC0QK691NhIIIWSAyGvTvRSr+kPiwSnFvumU2u4ze+lVpWqsWpqv7e+tzRxjD0o5RsjfGHnZm+kjELM0dJ5xNS4yp+tcol53MUocQwb5iTRX7/jRHcYm54bnFjlm7szzDh9Te0DkGL4rLXP+fWK8DQLZe5emfyX2dno5HHYghJBU5L3Xffv66/TY9SPKnC1FPSb24oEq58RLhzR7fNuxGSb41FhWAGlG900rNq7u7eHnjg60D0SPPA1sxzPplBYb45bj6vr7XBGbI29sGb3Mx3YklMMFRlo7T+vvkxLBVcPEP9GtdzgKHounpdKRvgkUe0LIAJH3Qh+nHrtv02IfM8lnYqJPRHAB/7hDCErheFQG6G1bcV0meJvG19Eiyl82yT00kWgYITjqRT1NbifCbBPBrHI5Jn0UOzMZgy4pxdXi525TvZvl3xYi6TGbZ4dZ15ShQPoOvJGBV7wuf+8F2UL0RzZIlNgb5v20WbEF0WgU0WfXYaYOIoSQoOSx0NfhLvcb5Txj2kL897Qoc7vDpJ8hzQ0H0VV4A2oS+gRYtK/fjTYhclNrnZ79JZsaPcLafq5D/E3kGBgvv+k5X7JpjeXs15CORcKkv7zutek6UoZZ9olSZvAgpvsI1i8UPelUjYQJM5QZ/eSb2Xz1bBxr/N90CJRT7YKY7uPl3xazJMjfznA5DZZigkzL3etPg5kji60PkclYtML6SAghQcnvefQ+89F931HvO2/d9Ip3z1M3cc+594/rzdc9394aQvBzjHPPt/fMo5dT7Kor9I7EXSadF9zz7xPTf/Po3XPQ5XvbT2OCEPuRxlx093vnFe755bYZXe9aeOfkB8N+j7wfznfLu+e9y2GIY9/W8+btGQWiwbGjymV+950f782372sELMOW6C0YIz6d2lWNB5+1QgkhJAhDZlEbMrAEWhQm5Ytthi7LHo3ilrJevPvE3di8VwcSQkgABtEYPSFDlBVbhMgDvW/XU+QJIWlDoSckb5Em+yiiC8cok/3ddft1OCGEBIdCT0je8jwerK5Gtdg4Lk8IyRSO0RNCCCEhhj16QgghJMRQ6AkhhJAQQ6EnhBBCQgyFnhBCCAkxFHpCCCEkxFDos4V8jW0mi8jI1/eay+K63+9PCCGE9IFwCL0WS3NhmEFD4514Ui+Fu8teqyesjPoJrt2wG2WT9T4hhJCcwx49IYQQEmIo9IQQQkiIyfs341nLreodgbkUrPs7N+6lZT3xW1/ExlXxNd/VcrLjjqP+tjOoMpaq9V1+NuXSuJLgS9lKVPlGJF6K1rPcrav8VpnGo0WUoX2xcazuZXEV7uV43UvjxrHz9V0iOACRO3fjmiQL1J9/dT7a3pWfVqJsQzUK3vonvPdJNaYtiJ+seBzgG//tXzHp+na8v3GNqHEb47f/+zUdJpj8lCMdnIzizV89o3cIIST85HWP3hJmKUDWGLbcDhSviTm8Na/S4XUH0SX2pRDZ8eRmipIUq/FHjO/lb8qXYMO2Oh1DU3gDaprmo7NOx4u2oGj6Wuf4v3S8EyLfZeYn4rmp3LYG+Lkzjkzrvk01OkZQZIPhlBDbDqMuXkSbLL/HeS+CqbWnMKPjkXg8eUzmcSqfhiUoEo0Ou2y7WiuwsKkRlTpKnBpUjrMaF2WTXHUVkJ5fzcebG8X2L2/jM7EvRVvt680WcJvLr/8HIc4QQm59f+StXoxc8K8YOUpHCIhsEExbUIK2f7HziuL8WNGAuHOljkEIIeEnj4W+BiUjxL/Ww45eZvMqs8ccnPb11zl7o4134oB0fiuf4hG3tqiRx9bDaBP/ikbZ4ixEd16F6k2n6t16yrr1JbzTLdIad1N6nvWrb8fUQmktMHvctfiFbFwIEa9yOyGKssWtBrU4Lo9zRGksz8rFN6BI9PIbDMtC8yrRIEAFZngaIfVoPmH1m9uOGNaDXNL1No4YvfUvjp0QDYQC/GValbYS37y+AJ+99T9x/pwOwjNoe1VUxtib0240EELIYCWPhb4e7Z3in1+vO0t83BE3/MZpwfFkAl51EyoKMxU9fUxpUjlJNCzQgXZ3A8fTCLFIXrY6jC8XWnridZcpvxWdshFSbI5tWMhGkuz1Z2K2z4gLf8IX+qPi3EN4z6fnn5TJkzASveg8ZpjxJe0XMmg0EELI4CWvTffSNF9/SIixFHs9zzx9s7eNHJM25quLzTHenQvcc+TFlsynICndHfhYf3TjJ84JqSpVfgVyCMEs14Ympy/BYOcbV0olL0DZ3+3GtA3G9nffxeVWFEIIGRLktdBL7N7kxrmPWGbvjMa4teOZdErTY9JyU42IXGE760mHOSPPXMyV7+pII9HGM8qfQToFmuWKbaZz3yDmi0+kvaLXGJ93bmlZBwghZBCT90Ifpx67b9Ni7+7BavFym7BjrJ6ivMvb9vh7s6eFb1563N6gZPZ40XPuwTsNfRfO5iNyLH48Kt1v3VPH1YOWvf5e/P4kNtEnQjoyyl5/n19IdO5PQnpFP/vKOdZ+NlGmeoO0TfQzse7ZKKLRKLas0EGEEBIC8ljoRS/c7VGux8e9PVgtXtNv9/EaF3zUocTZ9BqXHv2Zme4t5zYzr8ptazFVCK7Mw6b9XIf4G0HFbLtBYHnOZ2S6V058EUy916wPUT/V0ilwd5rOiaLBtEc0HMqXBLSM9N3rPk4r/o+opMuvrxY1kzlWb70cw+037Lmn0EnOPYQzJ5GGt/5YDNOFGjNrnZB9QggJB/k9j95nrnriudzueeGuuHJKnBRGjTRdN2CNnrJmebNb88Xj+xZWunIqWtyT3Tk/Xs2N33tTbA67Lbzuee+yPMcnOefKu+OYOOfcO/OUeObk6/qS0/7MOvKdn+9Tt973AFjYZcx0Hr0Ta7672ft2z6MfGWCuuzWXvkDvteL9jVH85X3/gBF/dM6jd8bTSK/+Jx9yOvwJZta+gPu/K+L2vIvHV2zGfh1OCCGDmbx/YQ4h/cbsdXjhB5NR0PYKqh94XgcSQsjgZhCN0ROSS2Zi3XIh8jiFVyjyhJAQQaEnQx5pso9G78dkvIvHqx8EZZ4QEiZouieEEEJCDHv0hBBCSIih0BNCCCEhhkJPCCGEhBgKPSGEEBJiKPSEEEJIiKHQE0IIISGGQk8IIYSEmEEwjz7+jvfsvGudKEZtx3+sugFf6V35nvu/2DYRXz+nd0nW8F1rIAiu9RkglzwOyTLC+QGfLflEvtwn/zn/KL6YZqw/0nUQ33h8Kb6mdwcj7NHnGHnxbnCvwpdHXPKbMlz6sNwo8nnH1ipsnDtGbNbyzCQgcsGmbCyrTAYHWb5PvrZ7on4mluG/uhdKHaQMAqGX69DLk8gW98AgV+8TjRVjC7a87eBANcQ8omAtKZyVNfjDiBZS85qQ2+C7Lvrz2RK/pjzbtr4u/5x7eJ8MbtijJ4mRJjG59K80hakWs7U14HbMr9JxQoJjrf2qm1BhLAdM/JHmbvuaqD/Ug6Lpa0PVCMwJrntJbYNoOIb3yeAkj8fo4+NnFj5rpauxGWBXXQdmqLXVW7Br7ksosX8XG6ux1pSHeDA1jjLXf5fxzbXnJe517b35xtetN/KSdOvxJd+13g3seHo3SJ42WVsbXo/Rf+03ZbjksA5zoMsUaLwrRfkDnadWdb4rTjyCA8VrsbBcr7d/7nY9/uauk1R1Zn2f/Jxb11jFiYPoml6M4zpc1vFiHBdhN6jfx+rZc179rp/4OXJgnPP49WP+1ipvkTzm9fU6zEbfC52Jz4U7T1V3nnSyhK6HLsc1qM9Hymvbv87U+Kw45zESXXdJxmM9abiI3zMBni36GOFTj1Zdw+caTzZOnPocxkh5nRlpNZQ64sbOu0pjPFrqdmNErax/6xjbF+s6cp+npHmmeZ+kvDctUt0n/teZPs++Y/kB6jjleXLy/+5qw//9K47R55C4WW1jtEWH+VGMGfcW48DcF9GGCsx4eY0SC9nDQPkUVOpYkrLqU6gZdxz1qiUtx3MqsNAcP5cXgX7Y2q3t+kPA1Fo/05T4bZMlTFZckX/hDaiRZrjGO/Gk/v0uOcYjL169rza/B6G84GJxxM15r9+4fg0qx1k3hqNlnQtWT1E3atuRFA+lwHUW8DyNW4MZHVZ4kfh8n2wgqN9EUDFb9xbTOE/qnBfv1vF8zrnidRxvFWVSvdE6VAkRPrD+dXR2A0WjrDzlQ2mDfujYee4Sv1nY9AeHdUM+hCwRN+PpL3OEJ8+6g8BA9a47zzjFw3WerDprdNyXsm7HH4nXlyx/V/kSj0lbHqd8SJuWhI1HpsTOefMq4/di3xFPbHGxCPBsaXwdLfL8j7vJda3oe7B1d0y41LVRXSzEzM5LXK8+5Q9C0OtMIfNQYq7jimMpEufdvAcq7p2Pzjp53Yv7594/YCHEc0Yec+F4VNrpaUGVjRo7z42yUe4pf+r7JOi9ORD3STbP02AjBKZ7cdOdeCnW2i0SLcyGWAu8GCXmzeFoxYqbfY95wYvW4DzR0hOCa7bg29c/pRw8yuZ5hVc+SOJxa8VNIP6NKPUR6CRUlapWtFNQa/ELT2tVUo/mE0IYBSkFuI9UTpKt3hYcN1rSXtKps2DnqahQPjx0eGFEPPDiPZmiYtkVSfM8yXMea7Hr+issxjd1iE3zEfGQlA912cBpPRzL00I+1ERZxMPL7Fk0r7IaIFMX6weFeGDOEEVsM8qcc/zyFA3NBmVKv90hqLmkcpvVgzOvy8rFooco6j9+nu06s8XCon39dY56leU/IO8lswEYO05n7046Yjn2s4Z9rRiCKNHm6vhx2tfGU0aPVdy/UkzL56c5xBXwOoshe91GT3nrYRHPEF3xm6LOeINE3lu7YvdCBCO+pT9+q1jcjz1o2Rs/T6qz4tPTTX6fBLw3B+I+yep5GnyEQOhdF6jZo3DRdeJ153cfdYiWv77g9Q3c1eFuViYShx50fqQ/alSPwlegk9B4RvU+ZM/T3Rv1Qz4UZWs0Nw+3NEmrzgKeJ8fDw1vH6Z4nzzl3UI4RMq1zolxbX8I7GI/F4kHlaURp64aK58DZuCuZPV48MFM1jrJLojzbz3WIv66GbpaR16ztULawXIqO03w7XjzMvfXfavUAVaMtMR93iHNpMBB1275+t9OSJPCUQ10brmtbYj5bTGQPUteZvcXu+4DXWYzuDnysP1oI4RLnwBRZx7Xsia/RZZ1a62M1UAS8TwLemwNxLtM+TyGDznguvDeZTa4emvLmtKaFxB+ciW64/KT/6ywXecqHkRAgHESj8QCKC5JPo8PGx0LQX3yzWA7lSNOuUzwc45A5wjaNq+EXVy/dtlRJU7KjXE3m2LiNHL4y40izrjVEZaOOM5FQ5QxLYOPme8ts33UobpkqGVUs/kqRdJZfmt/j490GjiE6a3M22gfgOlNDjdpqEDsO5/BKnFT3ycA8D1KR9nkKGRT6wHSgPWbyyTbGmKEaX0zWuu4frB5VBcYHsDIkJpd1lojM81TWknQtMpJ+F6A41nmyetNuAdlomnVziG2adQwVaEuVNEN7yyW2mFnYcOIzvrcaD3HUcQ5Ag0qaqmPme9VjdfYKLcuJdDYzjs3Ysmp5y+l1ZlkDVLmV34LXl8Im4/tkQJ4HFv16nvKQIS30DhOSdr7xOrnZzjfu8ahgpP2Akq1rLfZ+5iTlUCJaokHM/H2hfe9x9aD21odBjuosKdnMU/c6U6LGPp0mXAunedrXXK7HI1OizbbpkraJfvY6vBCNIhrdgmU6qO9ofxdHrz6Yid4+7rY9yYXDOs6ADU/dyIiPVfcBaaqWjmzi3KvnRfdxNJtilU3Tb8DrLOfIF9AosdfXVdD7JOC92af7RNdF2uTKRL9ii7iXxP307DrM1EH5yNAVenFhLVbOGbYZTj+sypc4RLRk0xpMFa34dxq8jilBsB9QDrOmyepGj3e01QDxM+HpG0aQVICzgXboUmOKLq/Ukk2N2tqQmzpLTn/lWY/2TvFPjYvWolE5t61xWFksB7SWuPOgflDHnaZEb1V6M3c7e6ce0ZKeypma2rUQTa1NZGp1MXYYCtSHMZhbm8VHkyqH2auPn6ek3v/qAey8ni2PbOs6j6HTL6t2WbpE3XkbvbqRkRVnRGt8uWjc7agS956nQaIdBz3lyoiA11mWkZ0Hdx1azrhBeuDmfRLw3gx4n8T8l2LXhrb+6L20yOp5ijNzpBwSEEQmY9EK62M+kr9CL4Q49vYt9RA0xlcyfKWsY7xQXFhyCovpuGK3ZE0nI2sKSB9MoCJNNVXMzNssv/i+AWvi3yXNUzu1CDyOMDlAmejsqU5G+RbjpXjZclFnqRiAPGVd2NOE7DzVXF7H/OZa/MJRX3Jq0xg0nNBf2+hrIlZ+NYXQ+/pONZ1MpaPHtY3zEH+QiofrbXJqks84vd+0oWd34l3X8zQ76Ie82aiV50nUh5zq5yiX6YMiLViy92gcmz290ol9nMZzQG6TDvuYXWVcy7vfrJNYnaX5bFHWrcIKlBX6O5BJJ1z3tZEorVQEu86yi8zz+CSj3H3JM9C9GfA+8cSz3ovhvjaC3SfZPU82++uacEp/zmcGwaI22cBqCcq5nQ5hH8qkfGEOCSsza1/A/d8twKld1XjwWR1ICPEQ5IU5yx6N4payXrz7xN3YvFcH5hl0xiNkKDF7HWqEyKPtFYo8IX1lxRYh8kDv2/V5K/ISCj0hQ4KZWPdsFNEfTAbefhzVDzyvwwkh6bMMW6QT3sIxyjJ2d91+HZ6f0HQ/VOF69IQQ4iGM69EPEaEnhBBChiY03RNCCCEhhkJPCCGEhBgKPSGEEBJiKPSEEEJIiKHQE0IIISGGQk8IIYSEGE6vywT3IiRyjenYspvhQb5DeqGxUpRcf7y/lnNcXn0HFo0GTjb+Gg8c04FZQKU77Cgee+Y97FMhEaxfuQBTYtNme3B4+6vYlNEyYaV49EczMLL5VXz/tZy8UJ7kHQNzzu37wyb5fWKVcSzOYOfPDuA5HUqGDnnfo1cLFvRh0YGcIBduUOsYexciyQz5Qp9TyVf5GgDkIhDqOOXCEjpscFOKCbLx8KYt8pIebHrm17j1Z2JrPKPDyFBAiuWOlddilt7vD7KV53NRfc1uP4peHUZIImi6DxEJG0XSAmGuGDYIOHlB9o56cPETaz8bzJozUfVqjmXRQkBI/tONi+p2uoiTVgAZYlDoyRAhglnlEeD0aZouCSFDivwco5frRdfegCK966H7IOpvuxPxYVTrXfZleg9owS5jLWU11owXUd8xHzXTxcNejqk3lMbysMeeSzb9ATXjjou0z6DKSK8r4TvyazD/5bWY2plojF5/L9dI1phpqfxkeRLgyTeFb4A6TrmOtKNuBOp3xXinzloT2spXrhH9EkrM8nnqVaPPh1y/P/EYvT4HidIYaCbMwI6qwuTj76niqO9L9Y7EPeYZH6/dhpn4YaV9bv3GRu1xU5u++AZI3Omln6ca98UBPHZholX20wdw6xsR/HLpRBSI72PjwCXXirAyfCB+e/ZGY6y4x/R90Ki41u8t/OsMIu2dIxakqLPU/hT2MZjlljjLbpbHhd8xJCXAOQ+ap7q+gJ3bL2Keii/TOIqr7GOW5yPqGl7SaZ/Psi8LCRf52aNvvBNPqjHwMdjVKvaleOh9tZlCIkVIL1hjf7+rtQILmxpRqaMoRszH4uLd2BhtAcrn4757x6OlzhpjL5tUpyMJCm9AjUgPQtRUeiJ+0fS1uGu1/j4NKretAX6u0zHSssfi29dfp797EW1iXwp7LK7YTJGX4myJtf29+E35EmzYZpQ9LWQdrUXFCTtPkZ489kzTWz3FahgVjkdlHg4RLP+2EOieNuzLVEjlA/Xbp61xUbW9isM9pVgkHvLLdZQY5eKBX96Gx8x4jnFZLbjywR1L7yiGLcxw7FYKhCe905hQbTRKdBwpSHacx0RLeMrSO/DoBB1HMmwiVg0/avkrjJ6IXy60BP1wDzBW1mGMiPqtElWV3gGcjIgGgpHnrDkLsEOLkJ3nztOyzhZgvWt8aWzVHfihzFfFS1RnQvAuxo/RKr83LYwWx7p0GPbE4vWI9HW89vfwfR2+87TYlyKr99WWlsjHKagUjRT3ObfrIq08CzFvoSy7qE9xzPNWzsTVra+qY8Do0d5rjZAADHrTfeVi0SsXDYEGQxSbV0nhrMAM07lN9FpbGuzer2gen3hK9W4VI0od49oO7/KtL3kbAwFpXmX1oGPotIrG3ZSmc2EdqkTPv+uQUWbU4he60ZLp2Ls8znhjohbHZaPKVReB2XpYNVbQfRzN5jHnBX5OeGkiH9aO3lQPNr0p90XaplAKCkRNxHuFOp4QwUV2vJIIRop/J/9opncGD2QkMqKXO00Iiqe3J9KL7cfjmJ7h+17bbwn4NENQxa3xwRvx36F1f7zHPCzibIg48hS9T4cYCaETvdte0bAwe5rPRaWAiUbCjWajQSDFL5ZWD/a1irQiw2LWB9u/YqdxjFb5fdJSPf24NWDf+23oFXkOu1IH5AKHJUCXPyNhlnV+NFZ2eS1ti52zQlyV0c1JhjqDXOjrML5c9IRPvO4yFbeiUwpqsTE3zCVAXecMk7iDFhx3mKfr0d4p/mUqgA50Wumiess9aNnrKvNHHegSD4YR39L7adGDzo/0R43yss/Y7C4aHtIykIdm+5w54X1y0dfjubf1jFOwdbyRI6T9VdDeg/Pin+zFOnrTmVBSiqtFss5Ggwsdp/eCe4qIV1DdVo/znbbIeHHnuU/edLYYiZaVTNP7e3EeZK/W1Wjw1JmDRP4VPTh7UfxzN0D6YrnJkOTlT4cefPC+UWcXxTnSHwnJlMEt9FWlaoxdmsM3NJ0yNue4+IChhhXMcjnnpQelZFSx+BvB1FpnWhuS+TEQjSUSvc3xXlKmqKlRPzK2ZOOuJlrY44jetjLvWmJvpedjgg7ClcNEGYLNTkgs2rnqKSYpl9m4SEmh1HLLJG/Wv9jMueSEEH8Gt9A3nlHzu91j27FtIF9iYzsUSoc5o0zK5yBN2s91iL89xvi8c+uvl9gMSiZMxJSIq5eUAcrJa7Q0CRtjq0HnMGtTvVNojfn7Kh055p2B2CtrQV/N0t04299mmLSmeunpYQ4fBGPLcFydkKFC3gv9xx3iDi8sxjf1vhMfE33WSTQ8kJyS2eNFb1uIc8wvIBkpjiMdE71PXVkWgQ6053Ts3HrpT7++3Eg6yKmenY9DnKbPTngKa4wfp49m5BU/65qy5L1uOf6vxd5XsJUjnThOvxet2MMADkc5F+1n8IG4jbxxEpnEM8NR18dOq7H4q6+RXXETqy7TM3UnMNH3EfWuhiCWhQDXWVAC5zkQrNiCaDSK6LPrMFMHkXCQ90Jv9WZdjnUx6rF7j3RIW5Kzt8pVbpPT7FpwwJzmFgCr3BFUzLbLJafaJTLd67H7RI51jXfiQCtQVp38pTfNDfINdq66qvoVFitHvpdi0w1zwgB43VsCKvE6xCnEA3peX53wFLpHaTpXSfENYroXZVilnNIMpzbx21/OcQpgssaAElBJpAyzPK0o2wnOnWYpHo15wGuHQBHH9AmYNWemsnYcjjnf9QFxTOqVxbG6tspVUDnTYaVYXi2n953BnjRfF/vcG6Ih5PLq7yuWT0Ep5rnOhZuU11kaBM1zIJg5UnYIBJHJWLTC+kjCwaB4171nvrl7rrZtJte7FtLUbXm9O+aX67nolme9nucO6zv4zWv3mReu0kvQ+TY99t3llt8dn5RgrnuKOfcS33n3AerCMYtAYKWDWP344343gYnzPQUWAzCPXva0YvON3XOupZDJedndvt/FiKXhg8OTWk+JU58F8rtdwCo9fcz2LLdM/NZnG7/3kFtlM8+l/zEoZKNCzt93lMeFHSeGT3op4qiy2+sA6LhW2fX8dejvfOvMO6dd4jlOzzHE56GbMwL8z53rHGjM+nUcgxUUO8fmebJJXT5B0ussnfJbJMxT1bn9Hgd9rHpmg/UbOL/TP3eS5DpKyTJsid6CMeLTqV3VePBZK5QMfriojYElgPJFMm4RI4MPS5zkHGQuMJNlkggnGdwsezSKW8p68e4Td2PzXh1IBj2DfHodIQnIkhMeIUOGFVuEyAO9b9dT5EMGhZ6Ek2PSQ9trSiaEuJEm+yiiC8cok/3ddft1OAkLFHpCCBnSPI8Hq6tRLTaOy4cTjtETQgghIYY9ekIIISTEUOgJIYSQEEOhJ4QQQkIMhZ4QQggJMRR6QgghJMRQ6AkhhJAQw+l1Ju73xPfne9tT4H6/vvv99QPLT/Hlw0vwpd6TXPKbMlxyWO+Y2O8NT/be9kzweS2r+73zfu+cD4rvO9QJyRUp75M07jky5AlHj14KdNMp3LVa72dK4514Uq/xnsm68bmkeZVef75OrlCXn3z9zc249OEytfX3A0etMCYeijsNIX8uqtcrD7puPAkHUiR/dIdjpb7w8Y+4RN9rl247iK/rUEL8oOk+R8geuO/a7HL1vKbky82GGr1+ulz3NXs941IskkvBprXGOSF5TE7uEzJUodCTwc+E0RgLLmBDCCF+5P0YvXts2lyjPdm68BLHmvOFPmuo6zF5uNZ9l6i0fdeNt3Gv1+5MP+Hv1Xr4xfG14I399sXm8fit+S7QZe5KMkafrM4c2D4JrS9i46paHZgJ1njhf765GX+x2yefnKLXSr9ordvtS8plVXUaxhLhva71xWNj9HoNenst9kBrzes1xTPFnZ67bBK3P4Ijjjr+Mnyw/SiGLZXrmFtrx5+9Uf8mNg5srXMOcUw7R5h5+q9xnjRPgfoe4tjfiFjjzTrc11fCvVa+q85UHZS3iXL2YJGxFruZp7s8bjL20UhRNknQc56qzjJi1Hb8x6ob8DWO0ZME5HWP3hIsKXh6fFpsB4rXxMze7nFrKex2PLlZQliP3XtaxP8KjHeN4ZfMHo8i8dBr2ZumOCmfgCUoEgJq57WrtQILmxpRqaOkRwRTa8WxQgiuSu8RvNMt0vMz/acgVZ2ZWMcvKJ+SYbnzgJJSXC2eryf/mLmQLq+eCezS4/lyazyDgsoF+OUc48GtKBMiLwXTivdYcw/GVi3AeuMkWQ98CCGNp/fYhYkZjhfLBsgdnvS2YaKRpxRnIR6yEaK/lz4JEOXfUW2Ik+DqhRNxUQj84Z6I+LzAEmFxrIiUYZZxDGOrRJ5SVFV6Mn4pFq28FrP09+nkidFCJJcOwx4dL1Gd7agqNI7xAE7K37nTikzED38kj0HH0+fJrlu3T4YUdis9a8tE5KUwS5F3pPXH0Y7zGfScWyIvG03xeHuGz3TUBSG5II+FvgYlI8S/1sOOXm3zKt0TToeth9Em/pVNqrP2FTWoHCce5K27006vcrHoBXcfRIPRS25e9aLIowIzNtXokPSQve54r7oezSdEK7+wGN/UIcFIr87a9x63HPtc8QcTfk546fJc1LWc7bGjQtyAgvJSQ9wE4nL5QAilHXffa0dxUgROuTEuSGOHi0g9bdhnpLfvtVcz7Elaa+rL3rdZvn2vHYjtz5ozUfRuhXiYntnt72GbEFSMNhsEERRcPBr7XUGkGztjPc4Ihl2pP0ocnt492PSmszEQPE+JLH/cGrDv/TYhwmZ+2r+ieb9xjGfwgGyAeNKS4m3UxbHTov6BkSPcDbIsUXIt5onet8cScOyAYz/YOY/gqmHi3+nTDsuI59ojJAfksdDXo71T/Ctfgg3bTIHOhFocl170Zs+16iZUFAJtR9I1WddhfLkQ5hOvu0z6rejsBoqKk4wlJKHrnNOq0L7+OtEb9zHdJyXNOrNnGfTJbD+Q5MoJrwdnL+qPJq6HOdAtfaWAYZFYg+DkBREge56OHnBmLP+2aEB48jQR+ZZLkbmoBM/EK6guq4fPb2w89fnJRSOt9PJMXn5BIv8KR542Z3CsDw26dFGNyAB5Bjvn+prys1QQkmPy2nQvTfP1h8RNJIWr6ZTa7suwx9zcIM37cfO9MluLXnljunPRq0qVubto+tpYmaxN+gFYUQaSbNZZ3qNE4gz29HWMU0/H2mFsycZ643gbBLInZ5nDpZlZp5fRg133AIN4XSeJk7PebpbynDVC3jQRTFnqrP8dxpj+QGH11BM3iGyCnnM5tCCHLpTY63je4SFCsk/ee91bPVt73NoS2IyEq/F1tIjfW+Z7y2zv7ZUHQNzQ0tytTO3GOHhsy4PecdbqLK+JYP008TB1mULTRjvqFUjnKWPsdOdp/X1SEojxsXhaKp2MenG6EWFYCzLhfGcfG0EZkE6e+6QZTByrOb5tbhkNeWQJq6c+LOb4l5SA51w1ClQ86fuABL4ghGSXvBf6OPXYfZsWLrd5XItv0ahkYqad8qT5XpntM3DCU6RhovcZYy8ZVSz+dqA9XT+DjEhSZxL9oqG+D41kG8sJTfZ43A5NMbLghCexzLNCaN7IIB1dht4LUqz8kb049eD3E+yYJWEGlusgE0tonI5yTkQDo1XEGT3a8/ugZucgONPKcp6+Jvo+ouegp7YsJL/OrEZIKSYkugYTkPScx+jBpme02A/PA1MgCTV5LPR1uMvtda7H1bs63K+t0+I7/fbk3uPKKa8CC9WUsvSd8CzsBsOSpL1ke6jA4ZwnhHXx9Ai6Dr2UI+e3dOpM6Ey+et1rAZWMlePUPiy/0Xo9aF+c8CTWwzyCq6+xRcF6+Kc23Yt4C60ybIsNHcjfukVbCIVMy8fUbQmjxF9MYs5+S51pzpozI+akZsUpxSKz9ygaEKuUg9vRvlk7JD5pZTXP9vewR4ii2xO/b1i+EwWVE30bUDFSXWfaKdNTtgkzjIZB0HNeikfdY/gBGoqEZIP8nkdvz/PWu5LE73h3z2v3j2vPMff7rmTTH1AjhNgPz1x0n7LJVnpsfrwkSPnVPPqKJMcl8R5bHNd8+3TqzI6bd/Po5cPTmtfuP/fZmu89MukcZCuOv9nVOS/cPQda5nns23r6mO1Z7p5LLfGdK+3NN+FcaXvYwFUeJ/G6sPGm583TUW86H+s9Ajo96GPTx2XF96+zZOcgYZ4CNZ3MvT6Aoyw6TOCZhy4xvP+t77td9WSVwf86SF2+1NeZhWd+vue8e/PyPeex8x0nWb6B4Tx6koIht6hNfJ55uh7tJDH9/MIcJU5IIo4kM5IJJ8lbKPQkBYNojD4b6KlxOTOdk9wjemHZcMIjhJAhwhASevkq3CUoc73ohgw2pBPTr31fL0oIIcTLEBB6Ob6t57kjf9aXDyNfTVuHzx9uU9uXU3QgISQHyOEy6177fNUN+EqHEuLHkBujJ4QQQoYSQ2yMnhBCCBlaZK1HTwghhJD8gz16QgghJMRQ6AkhhJAQQ6EnhBBCQkyWhX4lfn7rbjTK7fqVOsyPr7D9xdM4+jAnhRBCCCG5JEfOeFLwq1Hxb1FUvfWMDnNxTzfabu1Cy47RmPe0DiOEEEJIVsmR6f4ZNLzfC0T+Bt/TIR6eLsTm31+Gils/wfa5OowQQgghWSW3Y/RXDMe39Ec/6h8ejoPdf8YNq3qRbCV5QgghhGTGADvjfR1Lf1cEFHZiyT06iBBCCCFZY+C97p++FC3iX8V1X1j7hBBCCMkaORP63/UEXTrmGzh8Uvz7qy9pvieEEEKyTO569J9ewGcox81Xz9EBiWnpuAwo/BIVep8QQggh2SGHQv8Qbt0xH7+N/IOaV78jgOATQgghJLvkTuiv+Al2CIGfdHY+qoTg3/rBa/oLQgghhPQXORP67/31OFyOVhw5pwOSUFH8Z6D7EuWURwghhJDskbsefWC+wJSx4t+/X4J6K4AQQgghWWLghf6ez1GBy3Aw+g0dQAghhJBsMcBC/xW2f68LOBnB0iYdRAghhJCsMaBCX/PwBdxQyN48IYQQkityJPQrsfiaAuDfjiDhwnT3dGPd3/4ZLTuuZG+eEEIIyRFZFnp7PfpqVHz6Nv5HoiVqtcm+5/dXcYlaQgghJIfkaD16QgghhOQDA+91TwghhJCcQaEnhBBCQgyFnhBCCAkxFHpCCCEkxFDoCSGEkBBDoSeEEEJCDIWeEEIICTEUekIIISTEUOgJIYSQEEOhJ4QQQkIMhZ4QQggJMRR6QgghJMRQ6AkhhJAQQ6EnhBBCQgyFnhBCCAkxFHpCCCEktAD/H0lhhUhc7tHXAAAAAElFTkSuQmCC;imageBorder=#33FF33;strokeWidth=3;" parent="1" vertex="1">
                    <mxGeometry x="-1065" y="2906" width="506" height="186" as="geometry"/>
                </mxCell>
                <mxCell id="107" style="edgeStyle=orthogonalEdgeStyle;html=1;entryX=0;entryY=0.5;entryDx=0;entryDy=0;strokeColor=#FFFF00;strokeWidth=3;fontSize=21;" parent="1" source="104" target="106" edge="1">
                    <mxGeometry relative="1" as="geometry"/>
                </mxCell>
                <mxCell id="104" value="" style="rounded=0;whiteSpace=wrap;html=1;strokeWidth=3;fillColor=none;strokeColor=#FFFF00;" parent="1" vertex="1">
                    <mxGeometry x="-806" y="2975" width="211" height="36" as="geometry"/>
                </mxCell>
                <mxCell id="106" value="Importar libreria de reactiveFormsModule" style="rounded=1;whiteSpace=wrap;html=1;strokeColor=#FFFF00;strokeWidth=3;fillColor=none;fontSize=21;" parent="1" vertex="1">
                    <mxGeometry x="-382" y="2887" width="275" height="85" as="geometry"/>
                </mxCell>
                <mxCell id="110" value="Se hace llamado de la libreria FormControl y asigna como instancia de la clase del componente a la cual se le pueden asignar validaciones con la libreria Validators de angular" style="rounded=1;whiteSpace=wrap;html=1;strokeColor=#FFFF00;strokeWidth=3;fillColor=none;fontSize=21;" parent="1" vertex="1">
                    <mxGeometry x="-1646" y="2965" width="395" height="200" as="geometry"/>
                </mxCell>
                <mxCell id="112" value="" style="rounded=0;whiteSpace=wrap;html=1;strokeWidth=3;fillColor=none;strokeColor=#FFFF00;" parent="1" vertex="1">
                    <mxGeometry x="-1085" y="3204" width="441" height="158" as="geometry"/>
                </mxCell>
                <mxCell id="111" style="edgeStyle=orthogonalEdgeStyle;html=1;entryX=1.001;entryY=0.4;entryDx=0;entryDy=0;entryPerimeter=0;strokeColor=#FFFF00;strokeWidth=3;fontSize=21;exitX=0;exitY=0.5;exitDx=0;exitDy=0;" parent="1" source="112" target="110" edge="1">
                    <mxGeometry relative="1" as="geometry">
                        <Array as="points">
                            <mxPoint x="-1085" y="3139"/>
                            <mxPoint x="-1168" y="3139"/>
                            <mxPoint x="-1168" y="3045"/>
                        </Array>
                    </mxGeometry>
                </mxCell>
                <mxCell id="120" value="" style="shape=image;verticalLabelPosition=bottom;labelBackgroundColor=default;verticalAlign=top;aspect=fixed;imageAspect=0;image=data:image/png,iVBORw0KGgoAAAANSUhEUgAAAcoAAADMCAYAAADzsuN1AAAAAXNSR0IArs4c6QAAAARnQU1BAACxjwv8YQUAAAAJcEhZcwAADsMAAA7DAcdvqGQAAABhaVRYdFNuaXBNZXRhZGF0YQAAAAAAeyJjbGlwUG9pbnRzIjpbeyJ4IjowLCJ5IjowfSx7IngiOjQ1OCwieSI6MH0seyJ4Ijo0NTgsInkiOjIwNH0seyJ4IjowLCJ5IjoyMDR9XX13s0xbAAAu1UlEQVR4Xu2df3AUZbrvn73/nK1CJwFjCKzZxCSy8iuSE/aiGKOUZI8UHCmMLCXqHqgjVC2lf7Bs3Uq58f5xZS3q1Kp/uMVWEU+FswqWYrTwSOFusNAQYNmFGwwIHk1icuNCiBGSWVO7+9e5z/O+b8+83dPT8yMzySTz/VQ1M93T0/1OT+jvPL/e5ztlZWX/TRNgw4YNdOLECRoZGTFbAAAAgJnD/zCPAAAAAPABQgkAAAAEAKEEAAAAAoBQAgAAAAFAKAEAAIAAIJQAAABAABBKAAAAIAAIJQAAABAAhBIAAAAIAEIJAAAABDDthTL0+FFa8dxRWvxPq8wWAAAAIHPAoswKT1E5xBsAAGYE014owwfW0Jnn19CnvztutgAAAACZY1oI5S0rHqWtG++mW8w6AAAAMFnkfJutBT/aSvd+j+gvl96jt898Y7bq2OTCCrPCXDuyhvr/r1lxmP9/aPG/LqKRf3+U/rrK2n/0T3T+lf9Nfzer6ljURmeOf5/3/yHdZLa7jynu1Eaa9cd/c1mv//BPb9Oy/zlEl59/mv6uns8yr8Tyree9AAAAcp8ctihvobs3apG8eqrVJZKC43I98+9/om/NNn9mUfm/HqXSkX/T+z/fRtcKf0jLHn/KvG6oaKQVSlT1cc//cZzmrn2b5s43ryfB33/3aPQcvC7CqNf1ApEEAIDpR44K5QJ6aOvDtPCmq3SytZU++C+zOV362iyRepWu9/HDnO/TP+gNhnHqZ8vz2hW99vfffcBiN4uKliIhBwAA8pncE8qiu+nRrffSvG8v03utH9DnZvNEuHb5VfMsgNFLNGpEUtNLfx0luqmo0qwDAADIR3JOKBf840K62TwHAAAAppqcE8rPf99Kra0n6epNC+nhrY/S3UXmBQAAAGAKyNEY5ef0Qet7dPnbm2nhP2+lh35gNk8m81dRUWEit+0qKlzgl+UKty0AAMwUclQohW/oD4da6eSfieat3EqPrpjMKspVNLfxh3TT6J/oaqQ8xIjfglUmCYj3eeZ/UTmLaSzH6a/X+aHioZSyZgEAAOQeOV9HKciEAw9//yt679AfWD4FXdM4Vz330qtqGsPyVNVR/pDGPTWWqm5yTrSW0luTqehrozMHvNak+7yqLvLrRlqxlqLnjBArpKijBACA6ce0EMps4xVOAAAAwCGHXa8AAADA1AOhBAAAAAKAUAIAAAABQCgZNW8s4pMAAAB8gFACAAAAAeSUUN5+++303e9+16wBAAAAUw8sSgAAACAACCUAAAAQAIQSAAAACABCKexop+c+/DK67NtjXpguhKj5qcfo3Z+tpeYSXl1ax895/anFVK93yHPM9WksNesp4FxL9V7nOj9GLy7VLwMAZj4QSmFvAz3/4O28vEBnx8y26czXN2hcHm+EqUNtmA6U0ossQK+vCpn1XCRMX93Qjze+VhsAAHkAhHJG4NzAx+irIbUBZArzo2P8+kz4BQUASAcI5UxkKEzX+AE398zTd116xOAHCQD5RE51D5E6yqtXr9Lf/vY3syVT7KEnP9xE5WaNqIfef7CBusxalG205p1nafnIm/T89iazzU3Nvi9pnd2PuddvX+/5wnR2z110tN2sOjQcoGeaVlK0E1e8cWUCcW3WEbW/QYeL1tLOGsfFOUiHX+qk/WbNoX6VvQ+LbtcReuK4iITE6dZS7Y1O2tA2qF+0KVlMr2+upmt8nl0XzLYAvOfxEj2vwRw/2i7bf/xbGh+j9WVmxWHAO2Z9TaId1sJ07uAR2g0RBABYzHyLUiXqsGiJoKk4pCznaEkaCTsluz+hJeedY/Cy5xSNVm7yJP8YkXSd7ygV/fQASZ5NBCOSdPoF63jDVJflRKKKhsdo55xu2vDSG7wcoXPhUlrvSfoRkdlZM8YCJPvwcrCbfyGsNfFD4+adHQpIFEo+htdx/IgZSyf18boIo17Xiy2SIqrvGhF2Xj88wON3kpgUOuFm/exuejlyHPmc5mUHlaRTR3Ot873Mv1BqNyNRBwDgZoYLJVuIq6t8rL4mei2OxRjEUPNd9NpesyK0P06dvfxYWUs1egsLYKmyEPvPe873yOPkMlTuKOb9wtTzcYvZwPDxXrHGdV/Tb6mtrS3O8lv6xf1mx1QIs4BErKowdfSygoRmR60qtthWsyXW125ZaUOf0r6uMM2qqaYtvKrdjw6eJJxbZ7O1lw3XJAsiW54ipLalur9NBDZEtfeajNal1VQbYsvw/U8DEplYTFfw/mxh2kLccfyEEtSKFcgWBgBEmdlC2fAAVRV4RSuzXB32mCrtgzTKD+WNX9KTO/QmX74Y5v1CtLzpE1rTYLZ5OLHnJ9TY2Bhn+Qn98mOzYwqM9w4GZsLWLyxnoRukCx63aceIxDsL6Da23NRzR1xLQjSXH2ZVlipxqS/iC54Nlpap810b8VxvGesAPxgLd8sCFsBwP3UECXVJKd3Juh4bw/X54QAAyHtmtlAaq23kC7M+YcStatVb8rLtHm98ja1HU2YiYqn38xFDsR4ffJP6lVg6+7VHLdMpomKOfB5xZ+p6wcjClnIElQmqRVOElbq6qc8Wl/AN5UZVSEzRe6yf1SnLNHUCXLppiFus6DrozwYAAMLMFkpjtRXdYdYnhIk9jp2ilkjs8XZqOe13s22ho484ccdTAZajiKrZr62H16tonSWWWXG9JkC7VSVBJhoHjC52okuIZt8qwkr02eVBuhEupaVLjdDa9ZtDn9ITMceJTb6ZMLY4TxhktQIAosxsoXTcoMsykCCzo1ZlsfYf88QaEyGWoxHLQMGWSQ+UWBZTiRHUbLheE2G7WONiyk/E8lxaJqKiXZYV4vZk0itLGRN9pVlz4rhuLwyoWOSdC70WvIwh6lJWQu+1LlXc0jwXhgbpM97NGW+UENVX8o4DA5kXcgDAtGWGJ/M0UbtYfJWb6Jnd28w2ga3DVLNLlXXqFl0pFYlxve5o95yLqOT+JTEuYMmg9cYwa5ZV8b/DNOQtI5lMLnTTuXCIajcHuUe1qFU01FGFEZWOy/00XlanSjLiuzSDMNm0ZdVWBqsNW7kqoeg+1+tbGqW8Y5COmaQcNQ4Wz9VOcpG4fhsKaNw1pDDtPjPI56pzZbjWr7pPJwKd9Cl7AQDkLflRRyklIo0iQg7uesWY2kiL/rbbo5munuOMnn6BDtHTLJbDruOJCLoF1L8+Mua84tb1ZsdmDF0zKOUQ3pILXQridocmqkN0Xu+L1Eua+koRmrRrEZ1jmFXGW0cZU3cpWbyvejJcpfQjElPVdZYk4yVPHaVrP8G/JhMAkN/kyYQDAAAAQHrMcNcrAAAAMDEglAAAAEAAEEoAAAAgAAglAAAAEACEEgAAAAgAQgkAAAAEAKEEAAAAAoBQAgAAAAFAKAEAAIAAIJQAAABAABBKQeZwtXpMPpfqhOnZouEAPcPjCWwAnQIyt6z9OZM/7jZa804uXBeZrzbaz1LmfVX9LRu9XUDA9ETm+k3z+5R5eyN/C+Y4vG5Peg9AukAoBWlxpfpC6obLM5Wu7XaPzOmPbgmWblsvkB76x8rrTneWnMR0oglq9A1ACkAowTRCt/eK36TZsTjjL7l9gwdp8/UNGucH/GgC2QBCCaYv5uYY7X85SLteeoM2mOXlLtkurbOi2+yWXWDmohp48w+rr7LTsw7kGTO7zZbE+JqWUM+eu2hoo9X7MW7fR4nFPUvLR96k57c3mW1uYnpI9sbZ19sD03e/PfTkh5uo3KzF9K1U419Jo22308VlicbvPVaYzvLnPurXBNo6bqTXpgffHp0xnyHB+O3reahUnbPQvCK9PF9pbjFr2SFer02nD6W316Wg+2w6fSl1D09qf4MOF9l9MP37Vnp7ZfodPzGpnNPbv9PuBWpeu+HpwekgDa03V9O1SD/RYGL6gHpI2DfU6mVqk6jvqcKMdZZZRd9QMNnkgUUZouVNfNMnvlmrOOSb1F+wkralkZgiDZmXnDdxPifWV7kpJslFJc2wSErT58i+52vdyTMqUWcTFbJgOPu831tF6z5spxqzi0N5Y+z4N+7eZl5lVDKS+1gtp0l97tQTgXTizroiFmNzLN/YbQrjJ7lG6geLOV5bDxXe82zGkpRS5kI3neN7+qzKUqo3mzSltFRu2gMDrptwRcNjtLOyn15WVukRfm8prX9qseu9csPXomys14Pd/IewNm1XrzrnnG5jCfudUwTVCKE558v8C6V281pqLpHXTZxudsjzGW2Sj+F1HD9iztOp3N4ijM55ZYmKpE6kcV0LeU8Z/zhxjV/vt352t7mussjnNC8bVMKWEXTnXIcH+FrwZ9efE4Dskx+uV5cl1ETtp/l/Y2Vt7A09AUPNd7ktsPbHqbOXH+1jsYDUsSUmIunad2+Da71mI1tXbBkesqyqru0sglRFdbYICp7xX+RzFi56gPR9goVtNVuuvI9toQ01/1qJW/nqA2a/JNnxY1pewNbob/ws7igpjV9ZmpZ1u/cc78efYb7sdx/9orWN2triLK2/4D0yTZg6evlvIFRO9fbFYZWsEKvspMfyCfPN/NVPqUOv0O4z/Lr9XrZ4VrPA9rVbVs7Qp7SvK0yzaqpVhm7KyDkjVpUz3tk8Pk39qmp+zpaVZXl1HD/BQhOi2nt11qh2Pzp4knBunc0WWhZck0ur2cIVy9a2+AZpV7tcs2pa72ShOvu971xXP1gQ2SoVUbat3v1tItbRzwlAtskLoew/73Z5Dl0Z5n+LqaRBr0+Eq8Pun8Al9y+hQhaGi3Fcmpo9tITFdPTSRx4x6iVJ5Cwsdvs8veN30fAAVRXwsYZFsW1aqOsSj62gmOaZLclQs4xFd+widfm5bCOkNn4aG6ar5qmmiV5jy1IL+wn65dZGamyMs2z9Je+ReTou99M432zvXBi1+LYs4BtvuJ86POIx3jvovpmr2GiIZt+qV+sXlrPoDNIFjwtTZ+UW0G1pWD4x53TBVmIlj9tj+Yqg2lakOr8jriUhmssPjhVdX8R/NFlAXUM/Ab4woCzRuUX6ese71i7UDxc7Bu3A13qAHwKtZQAyB5J5UkJicu5axG33uF1r84p5PUYYPDSUqliduB/tYz334bNszeldUmX0Srx4X2Z+ELjIwvgnHbb4jvHNNup+1W7XvjNBFo4/FXPkb0DcgZ4sW75O2aFANIJI3Jmec7rifUrQtVCLmFNXN/VZVmn87OEJEnDcWXNS/QMJcA/bnwWALAKhTBqTuCKJNCYmJ0uLuHEtlIWZyIprH1R1jJLQ4hzHtfglB6XNMA0FWodpkNHxT4XrVbP/c8uFqqyXWKswGbSLUxJMonG06OIk12QSUyYjSS9+54y4iQVt+VbMIfrs8iC/j38QLDXizgdJ9UfBRMlo+Ua2hB4AD3kplMm5Fz3sqFXZnf3HgmN32q1bRUsCE1XiuCjTof0j6uFjlS/zJidto5pFfDPsPWdloSbGV+hV3NI8V2Rw/FPkelWopB7tflWuwBhXpj9eV+tEXKzpkUyiDjMUpmvqiVjL4g7Vsc4K5R5NV7S0SMezDF0/PmxM/Pezy6Lw5seF1yJUcUvzXFDuWrd7XKOt/2D3NACZI/+Ecke7KntIJHgxfDGsrChbkCS71et6pb1v6SSaxk9oje3y5PNGszxb6OixHpUN+kxM4kuqRI9lZ5GW7H5aJ+UcSs06Hfr4In9OKyFHslsbi2nUdU/N5PinEi0cs2rW0voynyQeP0oW03aVYNIdFVUjuLWb9dR6k8H+k900HqqmnYHTvWlRq2ioowrzI0DFZsvqlIs2NvaXDEaky6r9s06da7HOk6ErbuiB7oh1rWPEpbTaSS6SEpCGAhp3DYmtdJUQdZ/rXFsa+fPwa8dQEwsmiTyoo4zW7mli6wt9awYNruxVT22kuB4P0dMslsOe+kGfY/rVUSYan3ndW++oji3lG3YtpbduM6am0VvzaOPZ13Us/RrJOaVExf4MCa+vqaOkeHWr2SVuHaWNU6Pnymx10DWN3jhYX5zaw6RqAhOizznXty7R+1kSj88ZU3SbU3spmanpuoW99Zts3bnGm+h1g6ln1ejaSJLxkvuaxdRk+n5XAGSPvBDKoMJ6kOcYoSS/G3kc0QIA5BdI5gF5jRNvhBsPABAPCCXIX5bWKZeea6IAAADwAKEEeYeaFs3UOcaLNwIAgMPMjlECAAAAEwQWJQAAABAAhBIAAAAIAEIJAAAABAChBAAAAAKAUAIAAAABQCgBAACAACCUuYDMrerq69hONeYlAAAAUwuEMkVKdn+SWSEzE5C7ezu6J1gHAAAwdUAopxjVG5N6qLO5RW8AAACQU0Aoc4GxYbpqngIAAMgt8mAKO9MT0WrILm7OVywLzre/o6tFV1AvRyFR78fYHpgOvuf24O1t6R1/BG9PSlcPTD2mQs97xZWcTD/NuOcEAIAZzoy3KGv2PU30Gyf2x0tbDxXe82yKnfmb6DXz/pbT0o5JhNE6prfpsREk5/WW00TLm76kJ3foXXScUyfuKDEqWEnbrGSe6NhE3IyQOufac4qIx//cvj1mH40Im4ikNJqOjOt8beScqaBF0v0ZO4ufpjUNZgcAAMgjZrxQdm33WHJ736KzY0SFix6gErMpc7D1upotOrbkbOtrqPnX6pzlqw+ocw413xURoPd7ecOYJYS8OO8t2b2GrVIWLNvabH+cDolYV66JChdbv3UsuCKSrgbVexvSaFi9jUqK+KH3nMvCjLmOAACQJ+RhjLKFhibuJfan4QGqKiAaHRb1s2mhrkssbgXFNM9sScw2qlkU8o1fDn18kUYpREV36PWS+5dQIQvqxZRF0Q9zfSo3xVitAACQj8x8oZRYo+XWjLg7s8jolXixvGIqSdV9OTIYN3ZZOF+7aOcV+wtqunRtNy5mEUtzzVJzVQMAwMxhZgulScgplKQWy7Wp3J1TwjANZdB96Qjy1eFUrdXERN3DL2hXdcpxXQAAmBnMaKHULskwnT3kZH4mj35vLENXhvnfOJZh+0fUI7HIZV6XpXGjeuJ+wRh3bWVtzOQGXlerHlMVLUk5cceMK5AWOvqIEcviLJviAACQg8xoodQCEqKq+x1LSEpFYl2v2iJbQjVG/HTJRBwB+WJYxQeXb/SL37GoHOtRLks727Rk99O0vCB1wR5qPkr9LIDr7FghW8kbeWyjp9+Kiq5JUCpv/MSdmbqj3RpHL42I2EWSmGLLZjR76Ml3dNJRhLixVwAAmPnM+DpKr+hJZujFZabkwsomddUNShbqI4PU8OEmIm8mqeCtV/TWUSZ63UKdN7COMraGMya71eCtfXTXUQruY6nayCs/5rGSe3yOy9qsCvHOCQAAM508mHAAAAAASJ88LA8BAAAAkgdCCQAAAAQAoQQAAAACgFACAAAAAUAoAQAAgAAglAAAAEAAEEoAAAAgAAglAAAAEACEEgAAAAgAQgkAAAAEAKHMcepXraV3f/YYvb5K5qstpRf5+bs/W0vNrlnLc5ildWr87zaW8kqImp+S8T9GLy7VLwMAQK6TF0Ipk4U/5+2IMS0Zoxth/fhVzAzqWkS1oE4SJYvp9ZREL0xf3dCPN75WGwAAIOeBRZnjdEhvLObaiFLI6cfXN2icH8av688BAADTDQjltMJYZOEb1Kc3TDv6rovg+1nEAACQm8zcNls+PRVdqJ6TjxOZfpWx/RZNY2NyekXqXo7Sn7J9vt3j0q/XpLcpcpjO7rmLjrab1QwiMcydNfHdreNdR+iJ45Y1KjHDBokXGgY6aUPboFkh2tL4GK0vi32fvf3YnLXqeTz62t+gXRfMCgAATHPyoh9lcHNk08zY2+TYCC1Jc+PmFt5gNT02IjsUI6ZC7PF082jKmlhqJEZZR3O9wmihRZXo3MEjtFsNVr+nwiWWknCzlmpDg3T4pU7aL5uMuMaIrsQoN1fTNQgjAGAGA9crNdHFXn6orCXWkAgl9y9ha7SHOpVIWkREUmiho8d6iAqWUE2D2sCiuIbFlK1MS3SHmn9NZ8dCtHzjHrPlX+hXbW3UFm958V/MfpmklNaz5TnedcKIpDBIu9pZIMuqrSzaMO1+tZP6ZH+VqcpiKhYoi2k8AQYAgJkMhJLpOs9iR1W0ZIdeF9dpzaIQUe85j0uVaPTSR26r9IthGmUrrOgOWYn3vhYaEoO7qNRk3v4H/byxkRrjLbv+Q+2VUZaWUQWL4GeXPWKnkm1CNPtWs65wBFRKO9ji5PXDlnsWAADyCQilsPcttviIypcZi6/hAaoqCNPZQ5YrNikqqUjikpWb6LkPv3Qt6yr1HlNFvRpYiGo36zrGyLK5mmbpXdxc6KTDA/ppX7txwQIAQB4CoVS0UNcltrSM+1W5XccuUlfK8cReUtUcEp988PbYJeKynXzXqy4zCdO5g2/QhpdiF2+MUeKZ68vC1DcQpoqGaTTBAQAAZJi8EMqrwyyCBcU0z6z7MdR8lPqV+1W7T2NcrHFwYpkXVcas18Uaj2y4XvVkBLPmRFJt3fi6WONQspi2m3jmrrZu6hNLdN1iqjcvRxgK0zV+mFs0iZMcAADAJJMXQjl0ZZj/raK63dv0Bl90Uk95o5R1+CTx+NFwgDbew6J6+q1ITLLr0CkaLVhJ2/Y5iTuThamxdCXmWAx9SscGKAnrsJReFHdsuJv2qeQdE68MVdP2mFl/jDjXVNMWswUAAGYaeVEeIugSDetG78peNexop+caq7Tr1C4VUVjlIRax9ZdCKvtmEqe0w6wy3pIO37pLFsWXX/2UOqz3e2sh49VXRkpMzJqAOkoAwEwib4QyKYxQBolfYaSuEgAAQD6AZB6LmmVsTbKl2Z5Vqw8AAMB0AkJpENfsusownf2Nxx0LAAAgr8l7oVQtuD78chKmmAMAADAdQYwSAAAACACuVwAAACAACCUAAAAQAIQSAAAACABCCQAAAAQAoQQAAAACyIusVykBcbW58p2izuBMYxehh95/sCGmLyXIIA0H6JmmlVRoVn2nFzSk9F0G4kzXJx1VjtDuW+voXWlQHZnOL5/Q0xDOjZmeMAdYar4Xh4FO2uDXG9XZT70+FncqRgDSIX8sSrn5Ou2uEojk6OkXrPZY+SmSqr70nQMJuqBkiPbH6RVzvd/vNdvi0LXd+V5eUD1EM4bqrsLcCOeZSGYHmVNYmn5PeLL8Cyx8qhXcETqXtIabBgH8eONrtQGACQHXq4Wawo4tyKQ6h0wmYnF5GkE/ucO8BtLEuZmO0Vc5MxWTWLmextrepdGyrqYILYL2uDIgiBPF/NAZv57JX08AaCCUXsaG6ap5mgvI1HrPNa0kclm5t9PFZe2qyTTIEKa35tTeaMO0+1Wroba0N+Ntrmbbfm7HSUML+U7+w3M3AB+gpTkg4DZ918X8zKUfQWA6kz8xyqL4cS+HZPaLadfljZEp922xmg5vaKMdT7NinWofovf3DFOdis3Ja29RyTvSC5Nfd45pYncikok7lnhbe4U9U/Lp16ntdmqfb38Ga1zeWKEXK3aor8Owe9yCT3wx4TWzSPa7ItpGa+S8I+nGKJNBx+6o/Q06XGS3Jxukwy910n6z5uBtYRZtSWbioTfixNdKFtPrm6vpmjeepuJuBTqG6ncxzPtmmVUtqj77xuznHb9PjNJ6jxPn059PRDLOeHxarrmxz2udc6TaFYf0jysmuIYAZJG8tyiVxWbcmUrUpOmy5eJ8JtLsWW7MMiesiINj2b1J/ZWbfGJ5IVrexMcjvomr/SSeVkXrXPsVU91Pi6lTjiFNpd95mqouvUAtp/lGVVmrrMWS+5ewaIWp5+MEIinCa1qAORZny2lSY/C6aMsb+TMUH/UflzdWaMd1ZYkRL37vh8+qcet9+LO4mlancs1yl4oGtqLmdBvrSWJlpbT+qcVUb14XpF/nzpoxFgJjZR3sZtVfS6+vEuE0bt7ZIdd73KQaT2OhWUe0L2LVsZgPhKh2s6cxtxE8YkFy9ttw8AatDrIAHZGUxCbeX4sWj72SP0u4nzri/oIZpF3mHC93ieCKMEbHt8Hnx8UsvkbvNlBkP3lf4ubiAEwueS+UQ813mRu4vzhELLkdP2arSaw0O7mniV5r61Hi2uARJJUQFLF0WqjrEt84CoppntkiNx669FbkWIV0kQ5FrMZiKmnYRjWLeJ+xi9QVOFE7i9Fq3WzatjqHmn+tkl3KV3sEST5f4LhSQ3p3Rs/bRBflGhaV6nOmeM0ywX1Nv6W2trY4y2/pF/ebHVNBBCNixYSpo5evWWh21HJiYVldJpaQJQRDn9I+vunPqqlW8TvtCnQQa+oxI6LMrbPZckvVTcii5MnO3X+ym8b57+rOhea4gjp2mD67bJ2fx/ZEXKuMx+aIpH38klK6kw873juY2WQnJcbR69ZxuV99htm3mg0A5ACIUSaJTvQZpiGvaO09xxYhC918x/LUjF5xW4FakG3B8FiKI4MJXI1xaHiAqgr4fMPedFF/ERy99FF65/ElTCNfmKcGlZVqLM9Ur1kmOLHnJ9TY2Bhn+Qn98mOzYwokEof6heUsRoN0weMu7BiReGcB3ca/GtRzR1xLQjSXH2ZVlioLs77I8VtPEBNndaGSXHwsTV+M63QyS2S8WcYi4mxZoqQD5BIQylQISPQpLLaL+yYfrzBHEevUPJ0KcviaZYqKOWLBldJ6VyYoL3b9nxIsLZoirNTVTX22VRq+QX3mabL4ZZ/GxAeV8HTysUUso/v5ZamK9avejxIZAFxAKDNErEU3UVpoSPKjCpZQzYSEzseiyxEyf82y5HpNgHareuNxzmInvmiXYsUcos8uD7IeldLSpUZoUxQnJ3FIEl+i5xJB9CMaO9SZtCLqsWIpyUfq9bK62DIUY606VjAA+QSEMkm6zktczUe0dtRSudeNmiHUOfnmWnV/gIuy/SPqkVjkMieBxsHEOHvPWe7e5Lk6HOu2TZWpuGbZcL0mwnaxxiXiFmVxLJN4pI51VizQgpRaWYqTWNNNh1N1UUoBvxLLOOPl11UiDotlJIaqGKQLA/wQKqf6hC7cJK8JANMECGWy7H2Lzo6FaPlP7eSYPfSkTHfXe9Qqw8ggextUglHhPc9a2beamn1OHWULHT3GglS5yZXhWrL7aZ1Icyi90omhK8P8bxXVec6bElNxzaaCC910LiyuzaDC+zExGqmioY4qBgZU8kqHJK6wIK0vI7o2IlZpspgsWlu0JFPVx/UqlueLbLXabFHiHD95qOP4ETrMoigZqfZ797c5LlxvvLOUXvRaoE5s9F7PdgCmIRDKpGFBeuQFOkt2+YgpychaHZ9JjmnrUWLplKzIsuS8lRjEgir7SOmH87ouybDrKFOEjymlKq7zplzSkdw1CyrR8f5AyE30RAGHB3zilBEBcWYCIur73GScDg3SZ0ofU59qbX+blKlYccfNs+mYj+tVRO/CAms8vKyf7c409UMfX5fGRC1L7cLVZSj2McvogjeLVmKjjhs3sl/qM/hI2Y1+r5671T6e9wcAANkCEw6AacpkTDgAAACwKAEAAIBAIJQAAABAAPkjlPbUdJEp1sB0Q7X/Ut+jNb8sAABkkbyIUQIAAADpAtcrAAAAEACEEgAAAAgAQgkAAAAEAKEEAAAAAoBQAgAAAAFAKAEAAIAA8k4o1byinjlL9VyjziTjU8iOdh7HJ7RmKvtH5hGqJjNDNbVOb0g9L6o0QNbzkyZuluxFv9fduQOkg5on9qnF0bZgauJ4Z+5Yz2uThv5+Y+apVWNL9PcSouanrL+rpWbe2yn5HPlFfgklC9G2e0LUfwxzvuYee+jJSZ4EvevQKRqt3JSFc+pOIUEdOsAUoJpY676c0h1l8hGhq6MKv/ZoPLZjarL5FCaOVx1aGDTazjr5I5QNB+iZxioaPf0CvbbXbAP5Tfvj9IrpzGK3KEsH3X8x1XZZMw9tWfvc7I01l8+W8pZG6YAySIdf/dRX2HTHllJaH9dCdDrQ4AfYZJM3QlmzcSUVjp2iQ82ZbxYMpjGm52d5YyZd7+aGFr4R0/YK5Cn8Q2F1GVFfe1B7szDtfr+bxkPVtD2ZHxSmGXhqTb9BOuTHFHZiTTatpNG2232tSYlR6v6N0R6PqjWX9EZkcXW155I4ojQedui12jyZ18RqfcUjyPp4Pa5zOOMqNKuaMJ3d4+4jGRmLwT6+ei1uCzFxZ+r+j680V6rnxNegfb58Xuc/omdMKaGPX27WYo+lXw86p7728W8KsdcyuXOqz3zlx67vqj/O9+98D+TzvWUDsbp21kQ/83jXEXriuGOJSgyrjubytn10n7UfWyLeHpJipW2upllmVf52zh08QrutPwSJ062nTtpwMuTat6/9Ddrlcv+JW9D0fPTgHp93P/c59WcbiztWCjyW91ypjD/2uirC3fSyjwWnjit9OeNYd873EG2E7b3+0e/piZFqerch2qDab2yJzxdF7Vvm832DKSMvLMqS+5ewGPXQxSRdro4wyY31eUuAVNJPYzELGW9/UJY3qb9yUzQhRHX0Jypc9ICnwfEeWiJC13suekMXUTXirY/FS1uPedFBbvpGCJ199pwikmbK5pxXh/mmUlBM89SaP6NXojd/ae68rfioOecLPN4qWpdyQ2ZGxMUIkjP+93v5WD5JUUHnHGq+y2zna8nrIozO8WRxCVcK51QNpxuJRVTvJ02oyxvjJEq1f0Q9vt9bptHJGDt5sOcO6liZLPuoOiaJY1YN3/Qr++lltY9xyUWaQAt8o15HtM8cQ8fdJMblkxAizY5VY2e938tdYaposPczgkXS0Dm6jyA3fbeI8343WLgi+5H/OZNgS+N9/AVFx7+hfVB97hj3bMLxa3HRAh09XtpxSOUm1iIYPZY05Y51Kct43+W/Kee8fmOT67aUrcnx3sGkYon7VWNvfg8aU+cMeSCU26hmEf/Hs0UqABFDRyTd1sceamDLZ/T0ry1rr4leE3GrXGNuwC3UdUmEawnV2DfkHbVsAbGleMhpMLyN1qxmS4et0aB4acnuNfw+tphsa7H9cTrEN33nnENXhs0LgjQztjI5+VduIZ935Au9qhALOdLo2BlvsND64efK7touYldFdd7kmKk6p2VpDn18kUZZEIruMBtcxBnT1l9RW1tb3OVXW81+ybK0mq2nWKuv43ina13hsoTC1NHL4ysrs27Ug7TLY53sP9lN4/wZ71zoERpl9UWtk47L/Wq/2beaDSWldCe/pe9M9Hgdx7uV27hiQVSc61dVs4XFlk6b3Mg1HcdPsIizQN9ri3hySEzO9bkvdPOxWHwqSz0xukTjT8atmTxb7mXLla//Psuy3d/WydejlFZ7RVy+J8vyixmbwCpZwZ/hs8vR4wVyYUBd+7lF3u8RTBV5IJSVVFTAlspwr1mPj+MG9HXRGbHr+djjmvti2HUDdm7IVfdHb9w1y1gUxy5SlyOwDQ9QFY+p/3xQZ34j8GPDdNVscXDd9NX5i6lECbP+rFRZqy2sO4o9bl2+Dpc+ykDGr7aQY4/VS5LTUlhs+YmZqTgnjQy695PEHbYs4/0w0T84nOtoaP05NTY2xl1+3mr2S5ItIjrhfupI4mIka324MDGrGBKd89bZlvvWTTT+FaL6Sv57HBjwiJGJx87m1/UGRqwvqwxDFpeLOB5OsoqHBOOvX1jOxx6kC95M0rSIZ/3pTOZZczy93bwZpyaz1na91qv/lKkk4MQ5F5gy8ifrNSFVtFzFyjwWmKFkfjH/G6LlTU4/RLN4Y4x8Q+5kTY668fQNPu2SFO8N36JwPotx+2BUNEXMe0/R2TH7hj9MQ1a8MyMoS5XPL+5N+1pks0fkVJwzo4Tottn8kMFUfqd2M7rYMbUUMJZcxYpotqW2Hm0rqEC0ULtBXeeUeJreI4rE16IuULUcFGvXg3JxJjrWJFMSorn8oFyqrrH5x29BfgChjCBJIRI/EzGMjWVpi0MSbaLxM3uxLZWu8z1R96uyRJOPj6aCHXsU0RQx7z/PgjyiLVol7j4W6YRR4szn98QTI0vEzZpBpuKcGXW9+lle6eMkrkgMMSpI4h5MByOCoWraaYRBx1Ft16ipDR2IxiddSxJJKi6cRCTP8aamvtHCySS14pOuxXI7g/whD4QyjmvOlxY6+ojEvEQsPQkiHhdrICqpR4uVcrt646Pmpq8swggmbhnBxM0cN6qFOzlJfz5xu9YsYgOUrWERarFoVbwtwCINxsQ72WqLrTFM5ZomS6JjZuOcUbTHwGN9Z9j12nedv89QOdWnkfjixrhB/QrX0yASe3SJgid+mGmhV+7SMJ07OXHh0TWsBXSbfV1N3DJ1Mu/29B1fIPqHC8o+coc8EMr4guNPE7225xQLmScb1LhU42ZOutDnFDfhuko7icehiS6Ke/aeH0fGVLPvWVrONw4RUIeh5qMqUWWdPc1awwHaqJKK3jLi28IWpBxrE7/fxEH3nqP+gpW0TvZLIjbri4mjCuXLvNO88Q+KY5LElMlZbfTniCZGecnGOR3ix4MziU6QiZ19pX5VXYpZo0a0bNE1mZrpuF6TvZGrZCGxOl3Zt+mhz2knHumM4LRcryr5xU4oKqUXpRQlLCZwqoRp9xkW77K6zE2OYMYXm2QVB5X8g8krcom8cL3q5JcqWpLs7CtmxhZisdlmlR50bZcyA4qNU/qUV+hzMnYSj0XXdlMmYY5RN/wCPf+bi+ZVBxZtpwTFOZcpKbHLJlSJCBNNdNFCLNju2ZQwJROCb9LR3oZoqYozNrWkP1etvibuOLBLFLNwToWTXJX1qQ0HaZdT6mHFv7ZTd2zWawL0LC4iuuY4qnwiTdfrhU5TWhIdU2SxRVElqvA5fOKUMXOXJoLPKaUU0VjgWpp9Jl3XK19XiYFGxlVNNw6+Qfs8vxHtmK4SZMvV7BJFHpvEVMknTplOGYyMj7XSJ5vXH530lRlvAcgM+THhAONb8J9NJrmIHaRP8KQNMx9d4B5btqIm3W4ojZkEAKSBicm6J1zwwex3zWfSAjB15E0yj5oA2+vGzCJOHLETIpnb7GjXdbN5O1G+ycb1K8FwJt0GE0dNei7ZtPcFWKUhal6nazhhTeYW+ZP16rhTsxLj8uB0KWmbJOsVpIdY/Xk/Ub5PvFNhbtr8etKF8iCQqLvcv0NIoknTwdSRN65XBzWpwKKLWXGz2fOWxp1XFOQMyuVK1ly9eYx2v5oVB5l1BjftDKPniCWva1W5XMvpM6/7G+QEeSeUAAAAQCrkj+sVAAAASAMIJQAAABBATgnll19+CbcrAACAnAIWJQAAABAAhBIAAAAIAEIJAAAABDA9hLLobnp061Z66AdmHQAAAJgkpoVQ3lJ5G9387WX603+ZDQAAAMAkMQ2EcgH9cNHN9Jf/9wV9Y7YAAAAAk0XuC+UPKmge/YW+6nXL5C0rHqWtWx9iGQUAAACyR44L5S10d/U8oj930x88M+R9c6abrrKE3rv1Ubq7yGwEAAAAMkxuC2XRHXTbTURXBz43G2w+pw9a36PL395MC/8ZiT4AAACyQ04LZeIknm/oD4da6eSfieat3EqPrrjFbAcAAAAyQw4LZfJJPJ//vpXeu/QXunnRw7T1R4haAgAAyBy5K5QqiecqdZ9JMdf1e9WIWQIAAMgYOSqUThJPH/lFJ70s+NFWelisz0vvUWvr2zGJPwAAAEC65KZQBibx2LCgbtxK936P9z3VSm+nan0CAAAACchJoVzwjwuTmIlnAT209WFaeNNf6PJ/ttIHmLUHAABAFshBoVxAFWwhJkriuWVFtYphnoSrFQAAQBbJPaFMMonnmzNvU2vrB0nFMAEAAIB0yTGhTC2JBwAAAMg2OSaUegKB1t9DJgEAAOQGOZnMAwAAAOQKEEoAAAAgAAglAAAAEACEEgAAAAjgO3feeed/m+dp8dBDD9Ef//hHun79utkCAAAAzBxgUQIAAAABfKesrGxCFuWGDRvoxIkTNDKC6XEAAADMPGBRAgAAAAFAKAEAAIAAIJQAAABAABBKAAAAIC5E/x8XgQnBZ3FuJQAAAABJRU5ErkJggg==;imageBorder=none;strokeWidth=3;" vertex="1" parent="1">
                    <mxGeometry x="-840" y="3428" width="458" height="204" as="geometry"/>
                </mxCell>
                <mxCell id="125" style="edgeStyle=orthogonalEdgeStyle;html=1;strokeColor=#FF0080;strokeWidth=3;" edge="1" parent="1" source="120" target="124">
                    <mxGeometry relative="1" as="geometry">
                        <mxPoint x="-1105" y="3432" as="sourcePoint"/>
                        <Array as="points">
                            <mxPoint x="-1304" y="3463"/>
                            <mxPoint x="-1304" y="3578"/>
                        </Array>
                    </mxGeometry>
                </mxCell>
                <mxCell id="126" style="edgeStyle=orthogonalEdgeStyle;html=1;entryX=1;entryY=0.5;entryDx=0;entryDy=0;strokeColor=#FF0080;strokeWidth=3;exitX=0;exitY=0.5;exitDx=0;exitDy=0;" edge="1" parent="1" source="121" target="122">
                    <mxGeometry relative="1" as="geometry">
                        <Array as="points">
                            <mxPoint x="-1147" y="3225"/>
                            <mxPoint x="-1147" y="3394"/>
                            <mxPoint x="-282" y="3394"/>
                            <mxPoint x="-282" y="3564"/>
                        </Array>
                    </mxGeometry>
                </mxCell>
                <mxCell id="121" value="" style="rounded=1;whiteSpace=wrap;html=1;strokeColor=#FF0080;strokeWidth=2;fillColor=none;fontSize=21;" vertex="1" parent="1">
                    <mxGeometry x="-1064" y="3212" width="146" height="25" as="geometry"/>
                </mxCell>
                <mxCell id="122" value="" style="rounded=1;whiteSpace=wrap;html=1;strokeColor=#FF0080;strokeWidth=2;fillColor=none;fontSize=21;" vertex="1" parent="1">
                    <mxGeometry x="-792" y="3553" width="285" height="21" as="geometry"/>
                </mxCell>
                <mxCell id="124" value="Se asigna el property binding en el input donde se llama el atributo de la clase que guarda la instancia de la libreria FormControl" style="rounded=1;whiteSpace=wrap;html=1;strokeColor=#FF0080;strokeWidth=2;fillColor=none;fontSize=21;" vertex="1" parent="1">
                    <mxGeometry x="-1241" y="3522" width="359" height="181" as="geometry"/>
                </mxCell>
                <mxCell id="139" style="edgeStyle=orthogonalEdgeStyle;html=1;entryX=1;entryY=0.5;entryDx=0;entryDy=0;strokeColor=#FFFFFF;strokeWidth=3;" edge="1" parent="1" source="127" target="138">
                    <mxGeometry relative="1" as="geometry"/>
                </mxCell>
                <mxCell id="127" value="" style="shape=image;verticalLabelPosition=bottom;labelBackgroundColor=default;verticalAlign=top;aspect=fixed;imageAspect=0;image=data:image/png,iVBORw0KGgoAAAANSUhEUgAAAmkAAAG9CAYAAABONuF2AAAAAXNSR0IArs4c6QAAAARnQU1BAACxjwv8YQUAAAAJcEhZcwAADsMAAA7DAcdvqGQAAABhaVRYdFNuaXBNZXRhZGF0YQAAAAAAeyJjbGlwUG9pbnRzIjpbeyJ4IjowLCJ5IjowfSx7IngiOjYxNywieSI6MH0seyJ4Ijo2MTcsInkiOjQ0NX0seyJ4IjowLCJ5Ijo0NDV9XX2PAEROAAB3CElEQVR4Xu3dC3QUVaIv/D+jI2ieYiZERAik1eGhElEy4KBiyJEsPOMnETgXlvK5JEQR5s6cM2qG12LxOqDOnTkDoiHM8hMvuRcxujwjK3hCjI8RBhATHYQz0pGACCFGzFOB8fHtXbWru6q6utOddJLq5P9bq5Ku3ZXq6ke6/71f1W/YsGE/wGT48OE4ffo0zp07p0qIiIiIqLv9SP0mIiIiIhdhSCMiIiJyIYY0IiIiIhdiSCMiIiJyIYY0IiIiIhdiSCMiIiJyIYY0IiIiIhdyTUh7ePNTqHhlNrLVOnXQgoWoqFiOtTlqXdAe2wr/UrRAXdGN7vzpyyifshJ3qnVDwfgylI+fp9aiR7u9e8W+730ZaxJUIRERUQxhTVof8Nz8x5CdLZZ1VWhVZd1q8Eb8dmQcvIeX401VZCg6cgCtV+Xh1Z9OViVRoN0esH93LnJevQ9LWlQ5ERFRDGFIi4psFFU8hddWe9S6n16LtRAPq/U+J2ElXs3KQOuRJ/HIKVVm1rIc9+6rQfzIx/HsYFXWSQVDMoDPdzGcERFRTGNIoy5VMPIWxLccwIb/rlQlDk4txMufA56sjShQRR03GUMT1UUiIqIY1o3n7pS1TVPhr2s6jh3ZG/GcWpM1TjNSqrD2WeCXhZmIV+Xe0sdQsEmtKNq2GWpFqtmF7PkVakXc0urlWDzKi7XTz2Cm6TZb9xbhnqVetabIPlx5w9SKmfX4tH1O8Hdusu5Lv29pDvvXj9XhvoY4fuTMxmuFHny8biVOzDBt2yQen+klMG2ptvU/XroW7BN/u7hcrRrUtnUOj6nOg7WvFCArSa067Ed/HM6K+7MLQ83bOh2brEWbcgvq9uU616KZqW1x5EncGyrQtWsy1kx5HOObS5Gzf4sqIyIiij3dU5OmdWYXYUmGEdk3SluOIHOzbZhAUiYWa+FE32bt3hZ48qxNhTIkZFYb+xCL7GeVMRUVTvuquBVfqn1llx5H/IQCa6d5FdBkENT3twtaxJKBwxaq9GCithO3CbEvp+bN9oR9/EhAVuFTyK0v8h+bvE/m7eTxq9Dl25+4nx0jg6YIXQ3+52jtXohjsA5C0A3DDLHt6MMhjk2486pRIjzWoLq9gCa1VOJwCxA/ZHLA4AIiIqK+qBtCmgdrpwwLrC1CBQos65K15qbibS9aRSDINAWriqUrrbVA5SUoqxG/M0YG9PvylppqgTYd0QJY2mB/sHp4rDguEche8u2vAi+JYIgkD7KNYJIzG7kZcl/+0CZv849iu/gJUyPuaxbJ8cvHzF8zV4EquV3KIDUC1v+4OteKRSZ79a1ij8exw/ScVCwtwb4mERZn2AOkXsMZ/NikycgeEgd8Xo0iVRJaJSpOtolsOhDXqBIiIqK+rOtDWs54jE4SH+rV9kDmoMmLCnsTXRiO1jv1ED+OqpDhxYOhKepigLM4oY4j+3YP4h32VXHqrPg5EENNtUyyps481YVcLM2aQTgffzuPWSSPa7tEKB2VIALfEX8Q1XhxokH8soQvqQVfHlUXFW0EqaW5MwMDxS5bm2V6C8+bzXXiZxqGdmbKjITJkHfFe5JNnUREFNu6PqRdM1CEnMAP9Y7TR1Kag5C5r1j4vFi8+7jWLDrTV1OXjZlyX6awck2q3Lds3rPeplM/NtlPzdfsqJYdARklWscfTcNwhexbJptdbccWTsh0BdmnTc6LlgVseDWMPnBEREQu1/Uh7ehZtCIBV0SlDUsNPtD6jPmDkOy71hHZgwdqvz15RihR/eZMTX56LZfs+G8NX/ri0Dk/pOgef/Qcx5dN4pelz6BpsQ8IcCM5lYcIZzn7gEUirEVrOg8iIqKe0vUhrfwMZCOWZ2xgv6aILRgJ2aPMuzsaoUGvNQuo/bL1k3Nq1uywaB6/elzNfex8/dQiFqxZszNqcFZkz/jE8Kvi7kxMEz/rcKIzmVUNQPAMif5ZDIiIiLpTNwwcUJ3xM6baRkNmoyhgRGM7tFo5a+DTR152pLlQrz2KT20n1GzapXeeL4zChLRRPX69s7558MLDmwuQhZYOnVXguR1VaHUYodlxaiDAVWPDnPtMDTRoOYuotYwTERHFsG4IaSJOLF3pmwLD399pJKoCRne2o7wE98gpJkx9p+QUFR1rLvRi8bNq+gvfMRmLedoJsd102bfMoV9apIEmqscvO+sXiQDpPy5tuo5nrfO06U2s6njVfGr+5l1T8JTHJqfScHg8Onquzzc/PywCYwbGhtP0aHT4dzh1FBERUV/UjZPZuowxCWzA1CDGhK7WCWipY+QJ1O+7qgYvv7ow5FQc2naJB/Dvuzsb0jiZLRER9Q7dUpPmStqoUzhMYaH6Z1FUaCdQRwbuGx+ij9jgjSLIRasWrRInmtVFIiKiGNZ3Q5pD/zDNgoX6tBMBc4ZRh6gTqOOqPLz608mq0KS9E7B3wNFm2RduKtb09MwmREREndB3mzslx/NewvF8odQ5d/70Zfx2yOGA5kytmRPRb5rUbm9knLjUhv2778OSzowYJSIi6gF9O6QRERERuVTfbe4kIiIicjGGNCIiIiIX6tKQJptOBwwYoNaIiIiIKFysSSMiIiJyIYY0IiIiIhdiSCMiIiJyoZgNaXOmvYCSghew5dYJqiSIn/wrtojt5Lb68iwe/4m6rqPG7ca5FbvxvVoN3zykLyvD6LscJnV1NBmDFpUhS/xN+k2qiDolbfWHWFZRjky17h75yH3lmDg2Y/kQub7zx/awBeWm4xLL5nXqCmeZm/XtFq3OVyXtyNmGRWL7+y3niM3Hd7+qxT9yw9xH2PT9nlshll+VwDL/EBGRy/TumjQZ0KbfiMtOlmF20Vy1PIInv1DXd8TgEvzjnz24aN92hwcv0hBGsW8d7o8kkARVjLLpw7EqWyyl9pPk97BNOfpxZa/F+02qrMsV46J3vfguawm+HaeKouD7+5fgH9iD/ivSMeAPs9FPlRMRuVHMhrRtO/XQNe+9vaok0K3XXoPL8DWq9/9fVdJZ6/Ht/In4rmY7flxWrMq6UiXObMjFvlW5qP1AFfUW9tqZgMUNNUl6ADMfV+fDWO9XNV8PmxuWdvJ/5OAU9N/XjG//+SN8N1iVdcp6fJ8BXPwuwxkRxYY+0CftC3zemZozkx9yc/EtvLjkxSdUCXWYr3bGVEMjwq+/7EaUleub9ggtRM5CuuWYhmMHZrqnGbIP6Fe2AT9uTMQ/ZkahaXLw1WzeJKKY0qWnheqKU0zJvmjThqgVofaduVh8RK3Y3Hrrs3h0zBfYWbQc21RZx63Htytm4Yd9awJq0frf9TLGjpfniXTWuv9JfPxGpbgkm0PzECfWvXjU9Dc1OLJqIZrVmt4X7XGkJ6tVtKH2T/fhjNMJyAevxOiHbjGdf9S+rzDJfkGFY+BddyPqZhzD3fIk81LTHhRPn4M6taqTNUwiwKg1iHvzenYOquRFGW7yUvG+2I9TyJL9le5Ose9T9sdajJsbRCCaX6jKrLS/M45JkuHJYVv7do1711pqdGSftPwJ9f7jFXx/47uv6v4FuQ1J30+iWgtkvl3/bb6ENHk/k7TiII+t0M5j2B79/pieEx+n+6Uee+OYBPtj5hf6ebI/9rWlw/Gi4zlw7a8fXdDtZR/Qf/bg4j+n4+KDqqwjZFeF+RPRr7P7ISLqJjFXk2Y0c85+5UN8rcosRq70DRJ4dMxlomAYppkHDkz7F327SI0bh29F9PnRh4EfXuffuE9rkty3qhRnxLoMZfq6vugBzS9+/OMYe+1hVGvXP4naxgyMnDNPXSv5mzn37axRZQ5UQIP59v50Fldb9hWJRNxceAw/r1+rao62ozZpIvLNHcW1Tt6zkCw+yI3apddrPLjb6Ix/tB6NYj8p12hbO2v4LDCYhCBDzphqf23WqnV70JgxK6ADuz+c+Lf9S+rCkDVfRrCQAWGVEZgWjNMCRG21c0CT6pbeqG5DPEZiXQYb3/GJJTDkyMdoMTyHQzy2UVJVLfu0eTDG0hFf0O5XM97f4b9fmZsXAs/6j1v2h0uesLhDzbpGM6f2/KiyAA6vn5DbSwcP4mLx69tR6/V1IqI+ovc1dx5Z7hsk8MwhGeOOY6da15adHeuf9v0oj/gkPoQfOdVmRarxAKo3LMd5baUSjZ+0ASPGimgTobSBiEcbGv5mCoGnluPjbVvUSgfUbDcFjEIckhkx5Wqk6QXInDERyU17sMMUQqrmy6Diwc/lB3v5Z5YPXOtoynykpYi7Xx8ieDqQgchSw1I+B3+Ru8gYZxqlqe8bNQcttUdV84PXRsljMwKaef+ZY8VzDS8OOdYCdZy8nVCPbdRsOqgFx/SxthAr71fTIVSZHo+Ax2fTS1rTc/KoO6J/XILT66d9T+BH8rG6gs2VRNS39IE+adGQjx+uEL++/CwqHY5bP6lUAa2T6s6iFXFIf+hlDIpKx+rQtUeymWqMCDWNh9+y1YTVoEF+sKfKti51ebBeE3NlqoyeRq1OBlJMzWqdcbre3qBbjLoG8cuhhs2J0VwZvEku2prRcFRdVLSaJ6fmzk4rRPle8fhYQmyw585OPY5dItxjCNSvQdyf5NROhbQfbhyD70T4/hGbOokoRjCkxTJZa6Y1scqgps+nlrVsY+Q1cuHKuRqym5xsDjOPeFxWYe7TpH/I64FNfih78b4IDEZokxpPRVKLIgWOsnTqDyZDT7EWTkRQU9s5N9t5cLP294HBqbeoe/sQGs1NnlpTpxd/sddgqTnKzI+tuV9Zb/BD7kfavGjfYgMGrJjCNz0iihl8v4p5W1Br9EfT+q9lYGRXBTXVlGnvf+VbzJ3JZTOeDHU1B1F2ql5vPtNCXqTBSHUyl53sTbelhTEH/r5i+ohR5/5Vst+avF72wQuc6kOvpXPo0xVLyt+CV9x/o8lTa+q0NQXrg0Umiudou+9xlcvrkbVGu16/shtEOEvHxVjUwUmoiYh6BkNaWIrR70vxq90+MTX4RqSY+JQeqor4YKEKamm41KH5c+7vSlFaWoqthZNUSaTMzZrBGU2RV94+BpD9z2QfqaQxyNQGE9SjLpIRi0Yn/t2RNgvKyWFVUHM8Xnm97Esng5r1DAR6LVRgny5n4T0mUXf7EmwVz2Vp6dOYq4qsxP3b7VVNnnozo70pO008PzI0mwcSdC3nx0rrp6YuB/NDivja0Vjfqe4G/T48hItE+P4+ipPjEhF1JYa0MP3osPjASx6D70P2/arEN2fFrxFTo9ZHLBQ59Yf9dFGJI+UHYB2+CRjgMBfXqzkP4q67DR2LacYH/6yQo//qTtUDSRNx9wTA+7ZsXpOd5EUYypOdxutxWt8sPNpoUWtgkiMyA5s71+H+V7ZZO7vn3AFPkvxsD1Y1VIgXtZGFHtxt/tvyOdhhNJva+relrS631bwZfeFyu3X+tEkTroM+gctwXP+gdiGQNoDAgzGbRdBt2oNyW9877XkSIdVzu/Fc6qem6rrmzmJUHZaPq/+x0gZvpDRrz3Fw+iS00eoTSkQUK2IspP0L1hpTacjTPYmS9NuM6TVWYo6+UdfQpgFIxPc3Bg8nUvM2OaWGuY9YB04TJafWUH+bNU1+Opn2t2gl+utbaVN/nB2pytUycuABVDvOk/YC/iaH/Altf38H7+oXIycnoRXBBgH90kzNhipYmUcS6tNCCBFOvyED0wZ5miRTPzM5RUhgc6cIXM8CM8zHVDgRjZYRlQ6M/cvpMEzn9NSaTY2pPkz7nIGXAkaLVs03mk7920U8hYW5b1ieHF1q2p89fArv7v072rRLx/C357ULDvQRpOkZHufO+uK5lI+jv4/hYqTsDmzulKHYuF7re2h6TPzn2zT1G5RNqKIkPc/4O+vj+roM7Oq+5aeWYdX0stAhTU1/8+MKTiJNRH1LzE1m25NkB+TzWcCPN9+Ai6IxFQcRtUOeEH0J/vHldgzo7Jk+OJktEcUYNndGoF9ZmVabFpVT1BBRu37IXYR/JEepFu0Um0uJKLYwpEXkCVy8eQ8uSp6I8/dz9nOiLjVuN85nJeLiP0er5tqLfo3At5P4JYuIYgNDWqROzcaP/yz7SI3jUH6iLpOP7yZ5cNG+NVFsmizGRX9Ygx9DfMlaUYtzv2JYIyJ3Y580IiIiIhdiTRoRERGRCzGkEREREblQzIQ02XQ6YMAAtUZERETUu7EmjYiIiMiFGNKIiIiIXIghjYiIiMiFGNIoMrN3Y+zWWv+yuu9O6itPcJ+1bCPsp3oP6qaNAedfpc7Qzxca8XlSu8OCcnXeUrXYTtTfc/KR8ozp/3frR0i5VV3VG+XMxmsVT6GiYiEeVkXRkL/iC9RubxOPptX6TcdRu+m8WiPqPIY0F0uc48IP9JIpqH4gXSxrcLJFlfVSEYcwinlpqz+0nBC+wzblYFX2cLHIk++rMlcoRsOj8v9XLLu8qsxFVKgq8p2434UKmrDkZ1/D+2aceDStnihNQfOIOny04jtVQtQ5DGlE3eWDhdi3Khf7NixH7/qunY/cV0y1Rk6LC2qS9ABmPq4ohDFyt/IS3JP9GLKzN+I5VdQp2W346N5GNP91CKYUqTKzijjc8GoyEn92ErsLVBlRJzCkEVEnFaNsuqw1UkuprKFpxvvrTGXzC/VNe4QeIvMnwHpM2QcxxjXNkBQL1uc1ILEpBRtWXKRKHBQlYfungOfeJvAMz9RZMXNaqK48xZRs1ho7Pk6tAa37n8THb1SqNZ1sehw5Qq0I9m20fVx7GNUbTuDKZXkYpMqd9mW/PXxain3btuiXB6/E6IduQby+FqjxgLiN8Gti4lfXwjPUC+8DU9CqynTrMWTrLKSc2I7qpU/oRbeW4JqCifAfWTNOFt2AhvfUqoXs27IEQ74y/b1B7eebXek4WaLKBO1YLt+Dw4/OxgVV5ttPgloNeZvdYR7STc9foBocWbVQHKXxPNaJ9WoMDPWcy75o0zLUimB+vm3ae52FR/bVmgWUDkf54A9FODEabL14PTsHVWrNIGuY/NuIl9jetdiwVDbkyHCzGDc3bHcOWTnbsKhwIhrF7by4SZVJsj9WXqoIRDeirFyVmam/S1areqBz2DZgO/vx6/cz2Xe8gulvatVx6fdPBrQgx6P2k67WAplv13Sbp2aK++nRSiXj9qzaeQzbo/6XULUGR39vbVy75NcfYVQmrP8vss/oVP8xyWMP/N9XtG1THf/f9H3X2/5Wf8+41H4s9ts0v6eE6eHNT2GG6V/Ezlv6GAq0x9aDta8UIKthF7J3DMJrhZm+98rWvUW4Z6lqwpXNpqbr0FSFtdNLUKFWNQsWoiIP2LHuLHK1bY9jR/YuDJX7TxLX14jbmG/6C1mL9lgD6l8d5lyLZqa2xV+H4IYggW7u70rxi/Q2fPDHB7DmbVVIZNPHa9ImY9CiMvFBK95g/5SrN0WJxQvxgTtYbaJ9aIsPzoEiHKnr9/3pADD+cWTNmae2UZJvwdhlU/GNsa+dNYgX26XfpK4X9A926+1VN0z1b3NqOT5W5UfEtzEtlKl1bYmwqaz1sHzT8iB5tr7uM3scUmQgKjPeTMUbsNjmuNbfTF+8JxIxpKArOxbLN30V9NRtHhafhF17m+3Zglr1WFfvbxPrMpSZHn8V0PwyMFIENOxU12vP+aOm149gNHOuehK1jarMgR7QrLf3WYptXxFIzzuG/NQyVWsk+0Z5cPcr25CmrpcyN8sapnoRQlTt0ro9wITFqjN+MerE5wxSrrb8jVUzGo6qi2ERIecR8cHoq80ajtdrEnFz4YfIzVGbSCpsQYQhY7tV6+rx81A1X0ZAa9qDYrG9HpjykTlKBNCmQ6hyDGhSIV5Ut1G8Vz67MpT5j2+VQ7BNFo+RfNqN7eTfpefZ7kM0vFeJr1qAOM9kXKKKdPlI9Ij7daLMH7BkoBt10Pe/pPcb9cCzdXfwL32dJMOcHvSM29yOhqGzIh5Q9Nx82SQplnVVWiiUoUxbV4se0EwypqKi0IOP16ltSo8jfkKBvy+br5nzMeyoUWWOBiL3kYEoE+HMi2EiUM/G6MNFWLtXPOgZIy2DDfInfY1EEf8PthfQpIoBONQk/qdHnhPPlJO5uF77VhCH6yZM0kqInPTtkHZTHtKT20Rgug9nTqky4fwbC33r/e+aikHyg9ocjkSQ8soP8BHiOtsH6Jmdpn19UI0z4lfcTybr60L/lDgRvA6j0XJ796H2A7USbSUHoX3OjrK+acaPEt98Ww6h2fcN+gmctNRwiYBXtgdt4m3p8vFdM3rukl/niqAovumbvnVf+P0G8cEiwmFuZG/ydyx/CTt37gyyvIQVd6oNu8AZEdB8z5/2nMch5Xr/cx6eybh0oPj1abUlBDZvs742IyLDiq/2phhVh8Wek1JxpSqRoebnGbIGyBRCyudghwgcyRNmav21Ttebj0bWIplGU16TKj6y6lEXNPw4EYFo+hzUqTWpasceNIrXmed20+tM23czvG+bamzEsW0IWhsljs0IaOb959wBT5L8l3vLcpudpgVB/+NW9/Yh7T6kXKMKoqYYzV7xHCSMQaL5i8utk3F5AtBw2FRj9d5sHLXUYBWLABfkS1pUrEdqZiLaqjaYauLE+4gckDBU/G936RctWeu1EouN196mI+KdBEgbbK5FDId4EA/v8vVXixd7+aNRGycC3FBf6P4Ok0d+Lf4/B4h7GI6LUHnkMvH/9q149J28gL/Vyt9t+Pved7USIid9OqQljhSfULbAZDUZydfKUHU2oPbq/N8Oi298cbjUUsVQg7PthK3zDSLcyRq3bhu1+QTqq8Sb/NBxpm/T65E8VLw9eCstoSzAe5/hG3Ux+oyagIO2pphinPtK/Lr8alvNQWhvrZyJadOmBVlmYsWbasOoa/85D08lvjkrfo3IC6yh7aD2gkna7WNEEPLikK2Wou5UvfiZijTxAaVdNoJdztVaM2LyqDu0mrW0wamytPPKPxMBx+ZovRZ6AmrYHN2hN1faA1pXavjMejsyQGY7NXd23oXfl4kvWtYvS5eMHyPefbxoNHUncHS8XsSALqJq47/ab22G1W8zEQOGqfWu0HQW1grcChRkP+Zv7gxbCz5+2/Q3DWesTaI+3yJVhP3m+ovVevuKT8t3sAu4Oltft3vh3/KQl8emTgqtD4c0VXNx9kT7zYchtjHXkoVD1prJJjG9abRMnzcrSh/KwVzYf0i8aZq+TWtvrl6cdujjYpkDTfZZU9dFnwcDZD802TRiuU3Zh07foq9p3qaaWGVQU6+N0XdFWiMXvitTZT80D+62jHgUi6mflR6W9MAmQx327kGtuTauqR6n1cVwBY6ydOgPpoWe7ajVgpqxnfNozOQJE/W/twenXuMJNJ4wN3nqX3DaqrYH9DWT/T4t/0+WPqbRdckgGdJll4juu02ivqYPhzRVczFwaKdqtNq+iLRTt+Dro6T6nUWx9sSR6tdiNHlqTZ22Giy9o3AiGnYZfUtU/xJ1ffR5cU7OsyY7Gftuz7TYml7b05PNndGkhXjttaH3X5N9GrsqqOlNmfb+V8Zi7mSvN+NdKT6TvW+/hYYmD8YsUCEvwmBkDFKQnez9tyXDmBN/XzF9xKgMlIFBTQ500K7PmBU41YeqpTNq/2KV1rfUaPLUmjoDa7D0QUJy4I3p/6hIdlnoGhfOyBpX2+2ZFvOgISLqmD7d3Kk3PY5CctCO2ZVo/ETWbIwVH1NW/a8fhfgoNHXJ2hMtqDmERf34BkahWVT1TdGaPPWmTktfFqPpsWUP6rvsjVW/Xb+ONWsG0xXNnee/kPEjDZd2sON+51TizAYV1FIchr3dvgRbS0tRWvo05qqiSJmbNYPyNUWuw5gM2f9M79uWPlYPQ431IXtl2xid+PegPNJmQTk5rBbUghyvuF7r9C+CmvUMBIU4JA8xaQwy2202DfMx6QJypF+peD63FgbpRF6yXeurKZs8taZOS39SSf1/mQcSRJtWA28ScbPmJCx5Xr+fTz+oiuzKz2ihP/K+ZV3tYtTLgQCp36r19uVfKb9mXoLPnNtPMalwa+jnnEjo2yHtjV1aJ+/0h6yzyve/a6NvQIC+TQZGmmu6Bq+EZ3wcWveXWjp5t0+OJrXPYD8PA+WUCw5NqnpIyMDV0ahJ0QYQeJC8WrzRBoQxFZjMnZPlSLGONneqvmz+wQpqug+1ZtAGJiRMxCi3nlqq7qzW7zB9ctc2R+vmId3eT3HwZKQki8epITAITZpwnWpSGo7rg33gtWfTS3i/STYnhprUtQYN4sMpPW8W0msOah3ltU7yIgzdLbt0nrL1RwpJjRY1ByY5ItOhuVPWuN1vm3U+c6z84A4+UKFu6Y14XfYkmLDY8rdV841mU3v/tnW4317zZvSFm9Gd86cZI/2AuOtuE1HGiT6AIM4zC6niC1XDe/aaZlUzbe57KqfG6GDTo15LZu4iYZ/aQxDHcPqE+D+fGuZo7Ntvw3XqzW/4mGBfLY7jS/F6i58wNaqnceo8NRBgxDnxbhYONdCg6WLxzDiZhNuu05+ZuFvu6fAXLer9+nRI06dbkLUVchoF1T9MLB6UmkbUyW3EuqmfUNZDt6BtZ24H5q+StSNyTi3/bWUty0Pc/ied5836YKHWR0k2efm27/CAA71fS8pQj+OAgdalcri+qX9JQSpOPxDY3Onv86LmNjP1KZNTeOiewEnZzOK7bhawS06vYYu0cjSavA2Hfmn+ffUgOR2K7D9ofu47cJoo7fRe2t8+jnTZ8960P//0LOJ1Vio+Fn23I5YQr7N39/5dNWMdw9+e1y50gD4J7es1Dv3SfOFFBSuhtlqNrCx/C17tVEeRTr8hA5OcCsTUz6wwFX9xaO6UgevQWNPxiOXuFOuISif6/vXpR/w1anqzqT7Vh3mf43DIPlpU9oUzmk5920V+ZgI5tYn+t4txs5xzy7Q/e/j0j/QD2v7+DoKN9dP6liZ4kJLgNGBAnu5J/r/KKTfU/9Gt9Thsb+7Uvnyp67XQZfqff6bEX6tdMkX7f02ZamwrYqDDqeBalxrT5qjtjMW8L8Pb7+Dv6i3g2KEX9AsBvFg8XZ8OY4Z2zk19ifQ0Udmrl/v+Vpt/LSkTi9X6a6s7VktX/O5l4hXfiHHhnEkg+xzGiOfd6dRRunex5p1j6nIqhtyuLhLZcDJbIiKiMMgTqM8akYztU5NCTsWhbXdFCtbMChbSpLl4uvQXGN78Af7w4Jqg4Zz6tj5ek0ZERBQe7QTqaMSsTSHmBChoEkEuVC2ablJhNoaL38feYUCj4BjSiIiIwqFOoI4RdfhoxXeq0KS9E7BLDz6tDRj41S31+M+8PPymw90VqC9gSCMiIgpXURLW/PUyx1M+aSdg/zQt6Pk6Nc//BnkinOXl/QbBeuYRGdgnjYiIiMiFWJNGRERE5EIMaUREREQuxJBGRERE5EIMaUREREQuxJBGRERE5EIMaUREREQuxJAmjVyJkoIXUDL7XxH6PMET8PhssZ3cVi1bbp2gruuggibU7moK86S9HeM/36a+uOK8mBYP4Y87d2JnyQrcoUrc4rbJ0/Dqv/4P/O/Joc7YeTV+J7Z59V9/jv9XlVh9h5Ltx50nv+wUfb+1u8SyvS1gziYiIoptDGlhkwHtYYxNOI6dRXMxWy3z3turru8A3+zU8SHPA9dZ8iTI1Q+IxX6yZbf58jO8pS72Lhdh9pvJSPzZSewO5+TMYVq/6SQmIgVrpg5DeshzBBIRUSxiSJOOLNdDV8n/wnuqKMBPJuDaBODrQ2XYpoo65zx2PxbG7NTUo95paNJ+n2lo1n47a8JX8urmr/CpXhBIzVLuufcLlGSrsk45j3FhnB+QiIhiF0NahOrPdqLmzCR/RTM8SMb2Bf1VSV9Wg7N6FurVilcMxJ6mrzFxfhSaJrO/Raq6SEREvVPfDmlGXzRjmfYv6oqudh6zfvZ1kGbOfKQ8U4uxz5TgElXic2sJrtlai2t+bfqIn73b0t9s7NbdiFdXReKSX3/k8LfrMcR+exq9vLO3GRP+9hfc+7/+D/7tb2rdUTNWb/k/uHfLx3hHlTjTmz2R1IBZUWz2JCKi3qlvhzSjmbPoOVS3qDKLf8FaI8BNvxGXiZL020yhrmAl5ugbRqbgHDxib4fedWrmLEaztxlIGINE2yiGS8aPQRy8OP171cAlQ9uog3p/M21Zg5MtHni6MjRpQXEWLq1a47td74kuvs3epGiAeAYBz43n9XUiIqIg2NwZ0v/FYmOQwCsf4mtRUvuOWteW5R3qn7b+xkag6TJUVqgCmwv7D6ENibh8vLkGKx+JnkTgxEG0qhK8NxtHl5rr4orR8J4WAZDcRSM443MnIq5lD44bQVFoXbodDeI2rwyocYuC/D9ipxz5GWT5o7rJO5a/5Hi9vryEFXfq2/W8/jgoO65d8S1HYxIRUUgMad3uO1x9hfj15cXBO3yL8HX6BBDnmexv8rx1Mi5PABoOtzMO9Hh9F47gXI/koUCbtxIXVInOi3Mt4niv8Kj1KCr+JaZNmxZ0+aV6EN9aOdPxen2ZiRVv6tu5gbf+MiDpWxFrOy5/0tcixifjYJEqICKiXochzaVaD3stTZ5aU2fLHtSX6OsG+xxoYwsmIk5dF3W3Xo1Lxa+4zCXW29y6BENEgOysti9q1CUKJn/FF9q8aIswEOlTk7p06hYiIupZDGluVXIQDb4mT72p016DJQOaZ2gzThYZfdLE0pVzob33Gb4Rv9pM/dEsi6XpNUp6XXNn5xSv+IkIZ8OwAWe7fBJkIiLqWQxp3e4ifPal+NVun6QnUF/VrDd5ak2dzfhqv7mBVG96xIkyNASd3K2TZo9Dirqo66pmzbewYvY0zFzpMJVtL2zu9KR+DTRdrA0g6Kjidy9DMxoxjqNEiYh6LYa0HvDEh3Iahq8xuZ1JTbUBBAljkJo7BnEBYUwPTBg6zj+qUk7H0cHmzgtn6sVP04ADua+p9jCmBiYMneUwLUcn3LkCL8kaLxeeFir69EloQ/ZJJCIiEvp0SJszzZhKQ57uSRQMyfVNr7F2pL5Nl9CmYfgaYya1cy7H9yrxVUsiUoYmOgwYEIHpUX1UpcfoG3ZrPQ4HNHea5jRTAS5lqlo3T5tRMgWHq5r9100VMVCb0kNdbxDbySZVBPRL+wgpoU98SpKafmVPKScxJiKi0PoNGzbsB3VZM3z4cJw+fRrnzp1TJR3n1n25gewAvuRnwJ6nfoLZQabioN5GnhD9JCZ+mYb0zp5pQp739bEG1L86DFM4wpOIqFdic2cPKV6RqNWmReUUQRQT8lecxcSkKNWiVVwM2UBNRES9F0Naj+mPKU+loDmpAUs2cfb5Xq+gCUt+9jW8r0ar5lSEtCbAcydDPhFRb8WQ1pMq4nDDq8nAiHOcSqFX+w4ldzai+a9Dotg0eRFmzxqCPRAhf9dx1G5nWCMi6m3YJ42IiIjIhViTRkRERORCfTakyZq5AQMGqDUiIiIid2FNGhEREZELMaQRERERuRBDGhEREZELMaR1q3lIX1aG0XdNVuvtmYxBi8qQJf4m/SZV5EYLFqKiYjnW5qh1Rx6sfeUpVGxu54SlXSx79XJxrAvxsFoP2+CNKL93I7rufOb5SHmmB06z1eX3i4iIOoohLaoiDWEUExJW4tWsDLQeKUXXnYFJnos1HdUPiGWXV5V1g1Ol2N+SgfumrMSdqoiIiNyBIc3VKnFmQy72rcpF7QeqqLfQat+eCrG0VzPXXebh2Sm3IP7zUtz735WqrDepxJLdpfAm3ILfjp+nyoiIyA0Y0qhnbNqI7OzH1FKEfU2irGaXqWwlFpfrm/akO386FR7U4OX9W1RJb7QFj+yrAa7Kw7ODVREREfW4PnvGgWjur/9dL2Ps+Di1Fqh1/5P4+A1ZCyObQ/MQJ9a9eNT0NzU4smohmtWa3hftcaQnq1W0ofZP9+HMKbVqNnglRj90C+LVauC+IpAzG68VZpr21YJ96xzCUsB2UuC2D29+CjMy1IpBBrH59pNXyv5qBchqcLpOF7Avx/0Ebte6twj3LPU3H8o+aYsnnMWO7I14TpX5/qapCmunl8C/13l49t48pB15MrAW7dYSXFMwEahag6O/L1aFukt+/RFGZQIni25Aw3uqcPZujJ3qUSuSF94HpqBVrVlo26Za/17R911v+9v1GLJ1Fi61H4v9Nk9sR/XSJ9SK3WSsmfI4xuMA/n33crypSi0efBqldw9H24E/4IF176pCIiLqKqxJi4Lzb9ynNUnuW1WKM2JdhjJ9XV/0gOYXP/5xjL32MKq1659EbWMGRs4xNzX5mzn37axRZQ5UQIP59v50Fldb9hWubBQ9AvzRV5P1GHbUJCCr0NbsKJspRUCrK/Vvl116XF1p0AcJzEgRoce3P1Vb1gEyWGVWm25vXRVaM6YGDELQw9ZxEcD825alzg7ZbGoENK+8P5aAJgweK+5JGw5/7tDM+V4lvmoB4jyTcYkq0uUj0ZMoAlGZP2DJQDfqoN7fTFvW4GSLB56tu21BN3pkmNODnnGb29EwdBbGrg52lthKVJxsAxJGITtBFdnMHTNc+x133W2YpF0iIqKuxJDWExoPoHrDcpzXVirR+In4cBwxFuKjPTJpA8WHfBsa/mYKEaeW4+NtHWmaq0CBLaQ8t0OEISRg9O1GbYwIX1OGabVYBZtUkZMFU5GV1IJ9z9pCTwdVLF1pvb3yEpTJ7Jox0jRK04OhKeJXzRFfDZn03PzgzaYy/BkBzen+FAwRV7YcRoUIY4GK0extFqFmDBLNozBvnYzLRchpOGyqsXpvNo5aarCKRYCTtXseJM/WS6JrPVIzE9FWtcFUE/cETsoBCUNzg44affPzw+L5jsPAICHthUPHtN9tf38HrEcjIup6DGk9oPWTShXQOqnurPahmv7QyxjUFX2Jys+gTl3U5IzH6CQRaqpDR6+Hx4og1+RFRRf2KTtab09OXpxoEL8caticDNWaPROCBjTZ/DdUpubmE85Nf8KF35ehQUTry8fnqxLgkvFjxDPiRWOJKgjmeL2I111k9jikoBlf7bc2w+q3mYgB4ulx1HJCe77TEoOMTn7+N8jLy2NTJxFRN2FIi2Wy1kxrYpVBTZ9PLWvZxshr5BR9DjHzCEvZad4NslFkOa6ntIBl99z8x7B2rwhvMqip7V5b7XQPhiFL+/sWfHlUL+mYJ9B4wtzkqTd1tlVtD+hrFr/aPAeaWAomimeta1wyKFX8TMSQgu67TSIiij6GtJi3BbVGfzSt/1oGRnYgqOkd6vWaJV/fr+xd6MYZu4KQAU2ERdmp39TXTAtjDmTTqL6N3gcufkKBQ1CT/dbk9Q597iLUelg8QkaTp9bUGViDJQOaZ2izqX+YWIr2dFlN2oUz9eKn7fZMy8n2avmIiMgVGNKiqgbfNIoP5RTT8MLu9MFCFdTScKlD8+fc35WitLQUWwvt3b49yB6VoI1ufClUXzPV/Jk22Bx6VD81E60pMmkgrlHrGq2fmrociQUjtdo87+5I+7d5sXi6CmqpTu178noZQmVQczoDQSVOyCGyiUNDT/Jash0nW/QmT62ps+UQmi0jMtcjeaj4ZR5IEG1a86ZJe82awSQMFa8coK7ZYaCEdPsSbBWvn9Lnl3DgABFRN2BIi6pKfHNW/BoxtWv6iNnIqT/sp4tKHCkDYh2+CZiuYy6uT9cvBY7OU/25kkRYM2qV5DQbAc2dFagSGTB+wlRfqHl4cwGy0GJp3qt42yvWhyHXqMGS+8obiNaOjO48KvvdiSg41t/PTI7IDGzuzEbRK7PFTxPVh6613j761FCBAjlSVBzrDPvfCkUnxZ0NMdpRpw8giPPMQqonUQSx2bigrtF5cU5W+g0d5x/JKafG6GDTo15LZhpwEDC1hyCO4fQJIGVqZKeWuvOqUdpAlLPOlZSYNOE6/ZgTb8I9D2pFRETUhRjSoqx5m5xSw9xHrAOniZJTa6i/zZomQ5dpf4tWor++lTb1x9mRqlwtIwceQLXjPGkv4G+1+iWn0XnPzTea/1S/r8KBKHNo7tS3E6FG9fnKrS9C9rO2rcpLcE/pca2p0b+vlSiTQTBSal/mfmbyNgObO0Xgehb4pdpGv119qhDzPGkBjP0nZWKx/Zyep6rF/Y/DqKtCP38X9h9CW4IHKQlOAwbk6Z62o0EEK4/RN+zWehy2N3fKaTqM67XQZepT9kyJf5qPkik4XNUsApixrYiB2pQe6nqldWm62A6B/dLM+7KYjOwhIoJ9vgtLgoS0d9dVQB/fCaQOYl0aEVFX42S2Udof9U53/vRl/HYksH/3fUHDS68gT7Seldbu/ZRN5r9Ib8MHf3wAa95WhURE1CVYk0YUwpv/LWsT4zA+qzefgHwens3KCFmLprl9CbJlk3ltBQMaEVE3YEgjCmkLHtl9AK299gTk8nRQefC0HMC/Bz0/6Vw8LQcM/PIm1L+eh7x/e0GVExFRV2JII2pPy3Lcq52AfCwKVFGvMTgP4xNq8HKw83VqXsBv8kQ4E8tvnldFRETU5dgnjX3SiIiIyIVYk0ZERETkQgxpRERERC7EkEZERETkQgxpRERERC7EkEZERETkQgxpRERERC7EkNat5iF9WSTn8pyMQYv0c3LaT6ROHZO2+kMsqyhHplp3j3zkvnJMHJuxfIhc42T3fdGChf5zsMpls/30991Anirr3o1B58b7f/P+B1791/+B312vCpykjcb/Ftu8Om80blNFFgkr8eq9L2NNyJP4E1FfxZAWVZGGMIp963C/CFWLVuer9Y4qRtn04ViVLZbSECeE7yk5s/GaCEtFC9R6V9u0EdnZj4lFntBflXUnGZ6yMtB6pBRFqqhLtCzHrs/jMH5K8DBIRH0XQ5qrVeLMhlzsW5WL2g9UUW+xoNxUa+S0uKEmSQ9g5uPqfBjrhVSt12urParAKnv1cnH9cqyNmZrBeXh2yi2I/7wU9/53pSoL9OnZZvGzGV99oa87qmvGGfn7q2a8oxUEKtr/JPa3ZOC+Kb35/LBE1BEMadQzNuXotUbashbvy9qSmu2mshtRVq5v2iO0EDkL6ZZjGo4dmNm3myGdbDoCWfcXP2o8AhslPcgelQA0eVHRk89nBO786VRx1DV4Oei5TKOtEkv26eeHXfRT1sITkR9PCxWF/fW/62WMHR+n1gK1im/KH78hv5HL5tA8xIl1Lx41/U0NjqxaKL6TG2RftMeRnqxW0YbaP92HM6fUqtnglRj9kPjWr1YD9xUe2Vcrf9QhFE//DDkynKjyxr1rsWFpsVozyBom/zYQ9+b17BxUyYsy3OSl4v11ziErc/Mx3J2yR9zOHNSpMr0/1mLc3CAC0fxCVWal/V2GWpFkeHLY1r6d/fi1+zmh3n+8gu9vmozjUvcvyG1I+n4S1Vog8+36b/MlpMn7maQVm27Ppp3HMFyyBmvxBFNnp5pdyJ5foVb87Nu17i3CPUv1JteHNz+FGebH3cZb+hgKNhnbtWDfupVYbD5m2UxamAmY9mmU+V+zDn/n48HaVwqQ1eBw7Go/deoYDNqxpFRh7fQS+P9C7cd47IPe5jw8e28e0o48GbIWrSsUjC/DfVeJcPjqQucm1tuXYOsvb0Jc7X/yJPdEfQRr0qLg/Bv3aU2S+1aVak0bMpTp6/qiBzS/+PGPY+y1h1GtXf8kahszMHLOPHWt5G/m3LezRpU5UAEN5tv701lcbdlXBJImIr8iFw3rVM1RqRfJExbjfnM/pJxtWCQCTLIIIUbt0us1HtxtdMY/Wo9GJCLlGm1rZw2fBQaTEGTIGVPtr81atW4PGjNmYdnmdWoLnR62ZGD0b/uX1IUha76MgFZbKrY3AtOCcVoAra12DmhS3dIb1W1sR61Yl6HMd3xiCQy28jFaDM9hYzvxd/Lxtt2HaNGDF0QQkf269GVt/a0BfcpkoFk84Sx2qG2y14noOqHA13T53Hx/eatYl6HM2J9cjHD0XPVx8TMBo2+3Nnlmi/V4EYg+ftvoZ5eNokeAP5r2saMmAVmFXdkcKm6zQgU9dZtr98L5NgePFc9UGw5/3r0BTSo6Kf/XMzB2sL5uN2nCddC+1qVfj7laCRH1dgxpPaHxAKo3LMd5baUSjZ+0ASPGimgTobSB4gOwDQ1/M32gnFqOj7d1vJmmttRUe7PpoBZAkgf7+2FlzpiI5KY92GEKIVXzZVDx4Oeyv1b5ZyKk+cmA5R9NmY+0FHH360METwcyEL1oqilB+Rz8Rfs8G2capanvGzUHfTVkUtX84LVR8tiMgGbef+ZYGTS8OGS+zSiQt+MPb4U4JO9DytVI0wui6prUwCbGiqUrLTVOsiYqV9x/b+lGPKeKUF6CP+5tQfyEqXhYFYVl0y6tg7+1yVM1dda8Z6qxqkCBpYZLBLwdMgAGBrxoyV59qziS49hhqomrWFoijleEwxnWBtqCIeIBaTmMihZV0J1OVWvNxmmJzk2e7+79u/hvF2r/BtajEfUNDGk9oPWTShXQOqnurPhwi0P6Qy9jUJBv35FpL5iswxjxGdZ4+C1bTVgNGsQHdHKquNK4rILdlakyenowRqvByUCKr7mpc07X2xt0i1HXIH451LA5MZor7QGt6zSj4ai6qFTNN9XeRdnRepEykjKx+JXZDv3EdHot13FU2e5/xamz4udADI2oZksEwsPyNkUwM/4uZzxGi+fbWx3YxGpRfqZLHgOdERSP+IOoxosT8vWSMsj0+EzGUPlybT6BN/WCblaDs+IhjE+U/0cO3l6DB/Ly2NRJ1IcwpMUyWWumNbHKoKbPp5a1bGPkNXLhyrkaspucbAI1j3hcVmHqZ6XCkh7YZKjz4v29zZbauMZT9qbA9gSOsnTqDyZDT7G4LS2oqe2cR2N6cLP294HBqbeQtWbZpcf1oBZkrjGttg3DMMO43ljyhukbRKjiba+lRixYCNRHe5pvU3bU7yrDcIV8bWZMtd1m6L52RERuwJAW87ag1uiPpvVfy8DIrgpqqinT3v/Kt5g72ctmPBnqag6i7FQ9kkfdoa9HHIxUJ37Zyd50W1oYc+DvK6aPGJWBMjCoyX5r8vpE3FwYONWHXktn1P7FMN9cY7Lfl1iXQcUU1LTaNtkMqLaxLsE68odQvh8f+5o8nWuwjEEK1r5tu7Rmvq5xHF+KY9IGTVjun1psTa9ERG7CkBZVNfhGpJj4lB76iv7BQhXU0nCpQ/Pn3N+VorS0FFsLJ6mSSJmbNYMzmiKvvH0MIPufyb5tSWOQqQ0mqEddJB/+Rif+3ZE2C8rJYVVQczxeeb3sSyeDmvUMBHVvH9LCaPrYcDr1h/eYRJ0c6Seey9LSp8PqRC4HAGhBzdS8F1GzpmqSTBscqs7L1OS5wKmpUwW3piq81GVNzNnItDwVTs2awVTihHzpJg7tofnKMjBQPDytzfKJcjIXT0fwnBNR7GNIi6pKfCM/90ZMjVIfsdDk1B/200UljpSfUHX4JmC6jrm4Xs2ZEXfdbehYTBPBZrdXa04MNalr3al6baTo3RPER+TbsmlTdpIXYShPDjqox2l9s/Boo0WtgUmOyAxs7lyH+1/ZZu2En3MHPCIoBB+oUIgX5UhRER7uNv9t+RzsMJpNbf3b0laX22rejL5wud06f5pvpB+G4/oHtQsmcrqJhbaO/yq8NJzx1xxpnf3lyEr7tk70Gqn2BhQYTZ5ZeXKKDXtTpwpMln5r8kwGHWzuVMHRM9aIX3IUZ+C+tIEJstk3jFNLaSMsE0YhW7YEdzdtZKn4/2kOMrL0wevFsy0NR3aHv2gRUSxhSIuy5m1ySg1zH7EOnCZKTq2h/jZrmvxkNe1v0Ur017fSpv44O1KVq2XkwAOodpwn7QX8TQ7VFNr+/g7e1S9GTk5CK4INAvqlmZoNVbBC0yFUqVqzqmrVoBXh9BsyMG2Qp0ky9TP7ef1ah+ZOEbieBWaYj6lwIhotIyodGPvXph/x16hpzabGVB+mfc7ASwGjRavmG02n/u0iPjOBNrWJ+vs8+VFt2p89fAq+kX44hr89r10w8WLx9CPItPTBmoq0vUW2ucbkdrKGzaFfWkCgkdvKZknrtgGniVJNnpqAzvqyRk+e5kkGQ7WPwoEoc2julFOD6Leh5jYz9Snz32YFCuTUIL7rpgKlcnoN2YxrUl6Ce+RtOPRLCzh+bYRlHEZd1f2TyuojSw9gh9N8iNLzr+ED9bKP+8kI/QIR9WqczDZK+yOi3uHOn76M344E9u++D0tsea/LyHOFTrkFdfty8UiwkCZMKtyKX90Sh2Ov5+E3AeGciHob1qQREZm8+d+yZi8O47O661yak7Em6xbEh6pF08zFPSKgofkDvMaARtQnMKQREVlswSO79XNp/nZ8B8/eEYGC8Y9jfEINXt69PMj8bJOw5Hk5YOAXSD3wB+Q9uKbj3RWIKKYwpBER2bUsx737aoCrxqJAFXWJhJWYelUb9u8Ocr5OzbtY82Ae8vLy8MA6xjOivoR90tgnjYiIiFyINWlERERELsSQRkRERORCfTakHTt2jE2dRERE5FqsSSMiIiJyIYY0IiIiIhdiSCMiIiJyob4d0rLb8NGu46gVy0crvlOFRERERD2vb4e0ijjcMHUY0p9KAX52kkGNiIiIXIPNnZIIa2WfAomp36oCIiIiop7FkGZ2xbfIVxeJiIiIehJDGhEREZELMaQRERERuRBDmuKtv0xdIiIiIup5DGlK8elLgKQGzCpQBUREREQ9iCHNUJSE9KlDUH+nPm/aboY1IiIi6kEMaYaCJhHOzgKbh4mwNgxTilQ5ERERUQ9gSFPW39gINF2GygpVQERERNSDGNKIiIiIXIghjYiIiMiFGNKIiIiIXIghjYiIiMiFGNKk7DbkjgCajwxAsSoiIiIi6kl9O6SJcPbRruOofawBiZ+m4YYVF6kriIiIiHpW3w5pFXG4Yao+L1r6gv6qkIiIiKjnsbmTiIiIyIUY0oiIiIhcKGZC2rFjx3Du3Dm1RkRERNS7sSaNiIiIyIUY0oiIiIhciCGNiIiIyIViLqT9kPsRzq2oFctH+G6wKiQiIiLqZWIupPUruwEDVqSj/z7gH/MZ1IiIiKh3itnmzn5lZbgYifjhSlVARERE1IvEfJ+0H1Lz1SUiIiKi3oMDB4iIiIhciCGNiIiIyIViOKR50a9RXSQiIiLqZWI4pBWj35fAd1mz8L0qISIiIuotYrq580cvpmPA5np8p82btpthjYiIiHqNmA5p398vwtlM4OIVIqytmMIOdkRERNRrxHCuWY/vM4CL/l6JfqqEiIiIqLdg5RMRERGRCzGkEREREbkQQxoRERGRCzGkEREREblQzIa0H3Jz8S2a8aMPi1UJERERUe8RcyHth9yPcG5FLc5nJeLiP9+Ai06pK4iIiIh6kX7Dhg37QV3WDB8+HKdPn8a5c+dUScdFc19EREREfQn7pBERERG5UJeGtGPHjrEWjYiIiKgDWJNGRERE5EIMaUREREQuxJBGRERE5ELdEtIKxpeh/F65bESBKiMiIiKi4LolpBXtz0XOq7l4+fMM3MegRkRERNSubm3uLDpyAK1Iw9AEVUBEREREjnqgT1ocBjKkEREREYXEgQNERERELsSQRkRERORC3RvSWk6gTl0kIiIiouC6uSatBmdbAM+olbhTlRARERFRoH7Dhg37QV3WDB8+HKdPn+7ac24O3ojyrAyg5QD+ffdyvKmKiYiIiEjXzTVpk7FmShnKh1Rr86blMKAREREROerekJYwGaMSAO/JLaqAiIiIiJxwdCcRERGRCzGkEREREbkQQxoRERGRCzGkEREREblQt4a0gpG3IB41qD6lCoiIiIjIUbeEtILxZSi/twz3XdWG/bsXokiVExEREZGznpnMloiIiIhCYp80IiIiIhdiSCMiIiJyIYY0IiIiIhdiSCMiIiJyIYY0IiIiIhdiSCMiIiJyIYY0IiIiIhdiSCMiIiJyIYY0IiIiIhdiSCMiIiJyIYY0IiIiIhdiSCMiIiJyIYY0IiIiIhdiSCMiIiJyIYY0IiIiIhdiSCMiIiJyIYY0IiIiIhdiSCMiIiJyIYY0IiIiIhdiSCMiIiJyIYY0IiIiIhdiSCMiIiJyIYY0IiIiIhdiSCMiIiJyIYY0IiIiIhdiSCMiIiJyIYY0IiIiIhdiSCMiIiJyIYY0IiIiIhdiSCMiIiJyIXeHtAULUVGxHGtz1HoQD29+ChWvzEa2Wu8RYR5rgMEbUX7vRhSo1Q5ZUI5lFcew7JVtSFNFEcvZhkVyH8bSmX31IvFP/gdufOk/cM3j16qSLhSN14ITbb9l2vLsYFVGRESux5q0npSwEq9mZaD1SCmKVJFZ5ubohaW01R+K8FWOTLUeoHwONmQPxyqxvF6jymKQFqq2PIBL1HpMOVWK/S0ZuG/KStypijpNvca8+3KR82ouHjmlyomIyPV6X0jTarSeCrF0oLarS8zDs1NuQfznpbj3vytVWQdtytHC1arpc1Cniig6Wh//n/hw5v/E0Sc/USVdqRJLdpfCm3ALfjt+nirrnDuvGoX4lgPYwXBGRBRzel9I27QR2dmPqaUI+5pEWc0uU9lKLC7XN+1Jd/50Kjyowcv7t6gSImkLHtlXA1yVF5WmyWsS49QlIiKKNf2GDRv2g7qsGT58OE6fPo1z586pkmjwYO0rBchKUqtC694i3LPUq9aUnNl4rTAT8WpV14J966zBKnv1ciyekKDWlKYqrJ1eggq1qlO32yBC2nzrNT6y5i1vmFqRjmNH9kY8p9YMst/bjAy1IgQcv7afgZZj9R+nfZ/z8Oy9eUg78mRgLZrsG1Y4EclqNUDTHhQbNWayL1qeRyvW1GzHqvmFakVah/srZiFdrQXy4vXsHFSpNYNsZr07xXQ7Aez7dd6P9NCGnZg+og0HfjcTK95UhR1wyeOrMPLmRLUm1O7Eh4//l375tgdwzcJxuExfC9R8EEfmbcUFcVHfz1nUzNyJAVsexVXGLk3bSLLZNMP0wDXs/J/4/AW1omj7uvao+Ls6/OSlaUhR5V+//0xgzdvcX+PGaU7PRK04lt+jVa3pJmPNlMcxHgfw77uXoxMPGwrGl+G+xM7vh4iIul+31KQ9vHk28KxRkyWW0uOIn1CA11abAoYMOSKg1ZVat7OTYWnxhLMi9Pi329HRPlQyFI494r89reZtGGZULMTDahNJD2gyaPlvsyx1dshmUyOgyTCXbQ99g8eK+NiGw587NHPa+4bJUKbWA5o0jWbO7LV4X9YYBijEi+rvivc2i3UZpkz7ChKsQtIGGMxC8t61vv28XuPB3Y793R7CjSPk7ziM+vkdWklH6MEK+Hyj3vQolyMNk3DVXLXBO1txVJXX1Ip1GbjUuraYwpcuHRkvPYrLP3lGbbMTDYnjMPLJf1LX+5s5P9x4EF+rMkfy716ahPPGse2sxWU3i/BnHJukApoMer7bk+XacdoDmlSJipNtQMIoZNu+ixARUd/RLSHtufm2JsZNu7RmyPhR49WITA/WThmmNUsWbNIKnIlQlZshokZpYE1Xh5SX4B5LDZsXi3fLYDgMmQv0EnlsQ2UVSc0Ry20G3CczETiNgBZQWygUDBF3ouUwKlpUQQzJnDERySI47lharEqAqvnbUSsep5+vzlclhj/hw0/lbxFI//KWVtIRl6QkikBzFM3vqALhwpPLAmq2IiEDk7+267/QJMPdwLQODTho2LkMDcaxvfCxFsAuG+QfDRo/Ol0LZF/4jve/8MX7IjQnXoPE21SRzZufHxbhLQ4DGdKIiPqsHuqT5sUJrSpByRmP0UmitDpIk6SSfbsH8TiOqlBBrrOOnrXVbKhjzZiKis1hTPJxu958GiygyaasobKJrflEDDY/rcMYkS8bD79lawatQYMI3cmppvZg5U+LpmHatM41dV5okIFmHEZGbdRmM84fUxcVreYsoMYtHLVoChkWr8WAgepigLM4ZwqeFi0ntMc4LXGyvt4h8zD2KnHfTlayqZOIKAZ1T0iTzYq2UZbm/l09SZtjzXxsAX3iZK3ZY1i7t0UPamo7S1OtTwKyJuj92+pOOQW0GJdztdZXLnnCYv98atqyGDeb+htGm6w1k82IetOiPm/ZjaamSXf7BA3v6sf+E18T6D/hJ7J/Xe3HDk2d0SD7PMp50cai+tXczo8eJiKiHtH1Ic0YDGAZYdmJfmRRpPc1kwMT/MeVva7K8YOzYulKtY0+YjSgT51G35e8b568p1DkazLtJco/Q6P41Wjqj2ZZLIMWouyF36v+XKrfWfq0mAlqlwzSq9JSpqmAKQcZmAc+RN0WPCLCWc6r1RgrwtqrP+1MbRwREfWULg9pehOlCC87QjRllp/Rm3YGm0OP6qdmUnHqrPg5EEPNHfZVP7XIZSNT/l3NexFOyeHF4ukqqKVaj8/w3Hz9ek+e05xslTgh+/AnDm13wtLT9WLDpFRcqdY7o+5UvfiZirROzREXvFkzGDm6c+fOl7AiarOz6k2TWlBz6EOmN41e4aLJbPVaMzni0wiZ2tJeQEsYqk1iXNfcmVqwLaj+XLxOh0yO3uS4RETUbbo8pOnBKgGjRVjTyWkx7M2dFaiqkbVTU32jKh/eXIAsEe4stVqbjoiIlICsGUbfsGwUFWYCTR3pgX8cX4rAgYyR/pGcaoSptblT3Ib9lFOqD11rfeDoU50Mcrv0Yy20jhSVik6KOxvGyD09WDl1yO+Ao/VoRCJunrFOFXREMcp2e8VjNguLwjqmaIzuvBYpW35te07+CUlyNouzdQF9yC6cka+3dFzZHadxCkstzovceFmK0/QbwWmT0KINZ2NwcAkREUVHt8yTZp/XzFv6GKrGiqCWYp7bzDqXmtbx/u3xeK3Qg4/N86QZzafaij6HWsXtYv+jvB2YJ00EsAo5qawi51p7Fvil2L+cCsQ30tRymzp5HywjUR3mSfP/nX2utxDzpNnI0znlTzDND2aaJ02bzyxIpVZt6XC8aB9gYZ9XTcRIY36zgNsxkc2bG0yjOZ3ncmvG++tuRJmtVjI686T9E64yzUMmOc5FpgTMqRYwT5qczsM0IjNA4O35+ec188+5Zp5GQ//by8zHF3Qet+Ygx6HmSWsuRU4nJzvmPGlERLGrmyazJbs7f/oyfjsS2L/7PixhbUnvZQS0gD5osoZQTqbrMJmtPCF6VlpUXhsMaUREsauHpuCgN/9bNofGYXxWFE+mTe4z/AqtBq3hY3sftE9wTrbMBpiHZ7MygM93RSW8H21uU5eIiCjWMKT1mC14ZPcBtEbxZNrkQse+1M5YkDLaNhJ17q/1005ZpuGQzZx58LQcwL9H6ZyubzbXAeI1NiMK5wElIqLuxebOnqY1bQEvv7oQRaqIepkgfdICzgfaVa8Fbb9650Xvvlw8ckq7SERELseQRkRERORCbO4kIiIiciGGNCIiIiIX6tKQJptOBwwYoNaIiIiIKFysSSMiIiJyIYY0IiIiIhdiSCMiIiJyIYY06jmzd2Ps1o+Qcqtad6txu3FuRa22fDtOlREREXUxhrSomof0ZWUYfddktU4xb3AJ/vHPHlz853QMWJGOiw+qciIioi7GkEaqRqs2xBIDtV1d5Icbx+C7xj24iOGMiIi6GUMaASVTUP1AulrW4KQ8sfeJ7aayG9Dwnr5pX/NDSqK6RERE1L269LRQXXeKqckYtOhxpCerVbSh9k/34YzlnISy6TEPg9Sa0zaJc8owEqXYVzkUox+6BfGq/MzOXNR+oFYUbdsRakVo3f8kPn6jUrvc/66XMXZ8nHbZiXnbsNxagmsKxuCrohtwLrcWnqGqvGUPDj86GxfUqm49hmydhRS1BnjhfWCKftJubT8T8c2udJws0a60uOTXH2FUZr1/e00+Up5ZgiFfiZC29AlVZiNr3qZ61Ipkuk2T+NWmYxfaqtbg6O+L1Zqg7ScVJ8X9NEKgfkwyGDnvs7t9f38tLlyxB/3/MBv9VBkREVF3iL2atMErMXqZCGg4gOpVudinLc+I3LYS/dUmuGkjskRAixPhSL8+F9X7gfSHypB+k9rGMCIPWQ8NxGe+7dowaNrLGDRYXS/oAa0GR9Q2cvks5VHfNuffuE+Vl+KMWJehzNhOLhEFNJ9EDCmoxZVfrlG1WdvRkDARo1avV9cLMoSJgHapCD9GrZf3hAeerbv1wPneZ/hG/Lp0UL5cc9ZSbwt97ZC3Oeqg7/b0mjfTbSp6QJNBy9guHaevWBSy2dQIaDLMVbsgoBEREfWkmAtpiZNvQXyjCGgbluO8KgMqcWabsT4Zg27NAD4ttYSj8288g9pGiOtMYU4ja9gWolmtnf/bYREO4nBpmioQ+7t0oPj1abVvG6l5m73mrguc2G6qeXoCjSfEr8uvxiV6AeJzJyKuZQ+Om2qnWpeKMAcPrvy1DGZenJNNlwbbaMpLrkgEvvosspD23mwctdSwFaPhPa/47UHybL1E1sYNuFz8OnHQErRal4ZoNhXHZgQ0S21bmO5Y/hJ27twZZHkJK+5UGxIREcWIGAtp8zBwhPiw/6TSFNBsBk9GSrLYpqFGFRgq0fhJG5A80BrSGg+jMWTYqsQ3Z8UvWeM2Z55e1E0aDgdpbtSsR/JQETG9lbaQpQezuCtkc2Qxzn1lXBahbFCq+JmIy8fLAKeCVDQcrxdR10y/XQydhbHmmr9gxuvNpx0NaNJbK2di2rRpQZaZWPGm2jAi6/G9yPsX/b2STZ1ERNTtYiukDR4K2fOr7Yv2mw+Db5OGS01NmeFo3qY3g2pBbVmZtvT4NBu3Xo1Lxa+4zCW2kZhLMCRB30S68GWzqn3LR6LIaiervL7QJrV9KWvBIiObMi23WTBRe17MWpem43CVuG0Z1NR212i1e3aJGJKpH883ZzoW0KJvPb7V5kUbhx+tSMePy9xyXERE1JfEVkg7dUKrsYn7SWcCUh2+6UAzpb/f2ZNas2n8+Md7Nqip/mZ6/y1/vy/fYm6STEgVIc2DATiE5v31aBs6DvFyXYS5SIOR3tesGSeLTLdVtMdWk6a78Psb1Db6iFEZKAODmr4v7wkgZWothviaTCMT3ebOJ3CxCGcDVhzE9yKs/SM3RJ8+IiKiLhJjzZ01+EYGpGsn2/qVmZyqRIPsezbS3jQ5GcnXxgX0LYtcJc5sUEEtJUOVGdTxBZR3BXOzZnAXztTrF2aPQ4rsf/ZeJb5qMfqPNePcce3aMOlNrDhRFuGUHMVoeFQFtSDH27pUvz5lasfmZOua5s4n8KMa4LvrJsMyBJqIiKgbxFhIEwHpPfGpmXwLxlr6h03GoDnGgAC1zYg8y0jO/nc9ivTkNtRWblEl4ZqH9EW2wQYh+r3p/demWkaHdg3VYX/orCDNiIrWX8wDz1SP6uNWjGZvswhDctqOepyLKGypgQhaTZwiByMENHeux5BnSnwDHDS3TsblCaGaV2WQk4Me5KhW60hRIiKivijGQprwwULs+9MBtJr6h2Ute1TkI9NoT7nNzhoMmmZcX4ax4+twZFVHRmRuQW0p4PHdllgeugVtO52n1mjeJmvZ4rTpPoztu6xZVE5CW7QHCOiXZqqNUs2iMmA1qrnSLuw/pDdPRjr9hi9IySk31G3dWo/DAc2dT2jzsg0zH5Oary30wADxd9q+5P777lkOiIiIpBidzJaoe3AyWyIi6imxV5NG1I36NXSuByMREVFHMaQRhdCvvh5InojvxqkCIiKibsKQRhTKwSkY8Gcvvv1nOW9aLb5lWCMiom7CPmlERERELsSaNCIiIiIXipmQJmvlBgwYoNaIiIiIejfWpBERERG5EEMaERERkQsxpBERERG5EEOatKAcyyqOYdkr25CmikLLR+4rYvvN69Q6uVH+ii9Qu71NPFtm36Fk+3F8tOI7tU5ERORODGl9xCWPr8KNL/2675y4vKAJS372NbxvxsF6ttCLMPvNZCT+7CR2F6giIiIiF2JIkzblYFX2cKyaPgd1qqgnxT/5HyJQ2ZdVSLlNbUChZbfho3sb0fzXIZhSpMrMipKw5q+XwXPvFyjJVmVEREQuw5DmVs0HcWTm/8SHajnyPnDVwv/ANY9fqzagYNbnNSCxKQUbVlykSgIVrxiIPU1fY+J8e3MoERGRO8TMGQe65OwFsi9anketCDXbsWp+oVqxytx8DHdnqBWD4/brcH/FLKQ37UFxB2vmZE1axkAR0uZtxQVVJmnl6c34fOMyNLyjCuf+GjdOS1crUi1qZv4erdrlf8JVL01DinbZiXlb6VqkbHkUVyWqVdhuK1w5s/FaoQcfr1uJEzOewgzjcWuqwtrpJahQq7psFFVMhf9ZaME+8XeLy8VFbT+ZqCt9DAWb9GvNslcvx+IJZ7EjeyOeU2VaLdpjDah/dZhzLZpZQRNq722EN5xtiYiIulnfrkkzmjmz1+L9JlUWQB8kcHeKCF3atu1sv2ActMiUNAaZOVpJ1LS+fhBfIxGX/0zVpt32AK4Z/bGvtu3Dmc/g8+Z0ZPj6nv0XPvfVxDWLdRnK/LVzH1oCmgx0IqCd3em7Xq+962gzawKyCp9Cbn0RsrMfE8sueJMysXizqX1xwUJUiICWttfY5jGs3Qvt74oWiOvLz2ghN22wKUjbNZ3FUXVRyp8kH6FkHAwndBUNgFf88tx4Xl8nIiJyETZ3tmfBTNyc1Iz3nw2zVmzTQRGFhKZDqJK1QV3gshRVc/bOVhx9/L/0y5pP0PCuvPV0JM3VS8J1yeOTkCJDnGl/F558UYS+RFx19z+pkgjV7MI9S2UMkipQVSN+pQyCHtM8WDtlmG0bsdXSEuwTAdgzZbbY7ji+NIdhLdQtx1oVfq9JTQAazphq5r7D5JFfA58OwBOqJLT+OPip+HXFt2zyJCIi12FIa0fmWE+EgasQL3bVIIR36iAiSGjHvmx/mwDXIvHaRKD2Y1PNmvQJzp0Vvwam4RK9ICLeamvDpkXOeIxOAlrrj6sCgxcVh1uApIG4Rlw+0QDEp4owJ2QPHih+JmD07bJmzYOhAe243yJV7LO5/mK13j5v/WXitr41NbcSERG5A0NaLLktDSJSWASMBF04LmCb9qWjv+yHlj7Nui+xZJi7u3WBulP+WjSrgRiaAxytF4FNq33zIHsUsG/vcV9okwJDHhERUe/AkBZLhl+hBbCGj/UmSf9AAlM/s42y31qkanFe67Lm749mWWwDGLrHWZwwai+1WrVhuELWsr19Fq0ZI/GwXE8KFfKIiIhiG0NaO07Xi/SSlIor1bpG66emLgeQozsjOXtBuK5FyiRZrVWLphfk+j8hSVt9N6zRlxfOaO2WGOA4CKADzZoPPo3S0lKUPr8Ek1RRRMr342PZ92ysfaIyWWOWANQc0UZsVpySByYsGAmP7H+m/d0wZMqBBWjBl+ZRA7gY9WKfianfqvX2eVJFpG26WBtA4GTu78R9FPdza2GH7iUREVGHMaS1o+7tQ2gUweHnq1XX8pxtWJSXisZuHd3pnxqjYacxIlPVfqWP9p9FQE7HEay5U+urFnwQgDZyNHEcRj4Z3iCBuWOG6xcSr8Ntt+sXI+PF4t3HgYyp+khOJXv1bGQltWDfDtWf7ehZcX+HYUbeMNXHTe+z5smT03aYats0F6HyiLj3I85hvSoJ7TzGjRC/vrzYdlYCwyQMkd3ghLhb7kGEYzGIiIg6pU+HNDn3mXbOzorFes1Yxiy1fgz3G8GhfA42lHqRPGGxfl1hKv6SfSP+0qCut4vW6E4ZmHx9w/xTY3yu1aJJn6Bh3k40iEiYYWw36UscCdbcKUeC7hRHZul3ZjpNlLx+ptifQ7+0qxzSyQuHjukXmv+Od97WL0Zs00Zklx4XgespVFToiz7vmZonTVLTcADHUaXmSqt426sHVdv0G1Lxu5ehWcTqceGc8qngnAh6l2FPaX9VYPcu1ryj7icREVE369uT2VKvtH7TccwakYztU5NCTMUhT7R+EhO/TEP6gmAhTZqLp0t/geHNH+APD64RsY2IiKh7sLmTep0nSlO02rRZm4JPUpu/4iwmJoWqRdPN/Z0IaGjDB/8fAxoREXUvhjTqfSricMOrycCIOny04jtVaFLQhCU/+xreV3+C2cGmclMDI36Rfgz/mfcA1nS0SZeIiKiDGNKodypKwpq/XobEkedsZxP4DiV3NqL5r0NCn6/z+d8gLy9PLL+BrxsgERFRN2KfNCIiIiIXYk0aERERkQsxpBERERG5EEMaERERkQsxpBERERG5EEMaERERkQsxpBERERG5EENa2PKR+4rtvJ4d4D9faOf3RURERL0XQ1rONiyKWlhah/vFvhattk6falY1fzhWZYtl3R40qjIiIiIiO4a0sBWjbLoesF7cpIqIiIiIughDGhEREZEL9dnTQsm+YXdnqBUHtaVGjZnsi7YYNydpxUIz3l93I8rK1aqQtvpD5E9IVGuBGveuxYalxWpNkc2shRPR6LudQPb9Ou6HiIiIeiWeuzOMsOSzoBzL8lIDQpqf7JM2C8nhhKl2blcPkV68np2DKlmgtgeDGhERUZ/A5k43EoHs5xmyNk8FNKl8DnbsbUbyhJnIVEVERETUezGkuVDa7WOQDC8O2WrY6k7Vi5+pSMvR14mIiKj3YkhzoStTZT80D+42zaemLXkefQMiIiLq9RjSXOh0fbP4KfujqTnVLEuw/nBERETUmzCklX+mTSqbPDj4BLThq0FDk9hXaohho2GIuFnzwadRWlqK0ueXYJIqIiIiotjGkGYEq6h0yC9GXYP4lZGL3M70G9v0Et5vSsTNheVhHdOkQan6hcSbcM+D+kUiIiKKbZyCQ6NPnZGu1iTfPGlq6otkvdiqaQ+Kp89BnVrV2edVM89vFng7fqbpNhTHudxqtmPV/EK1YpiLp0t/geHi0rHX8/Cb5/VSIiIiil0Mab3E3N+V4hfpbfjgjw9gzduqkIiIiGIWmzt7gwefFgENaDtQzIBGRETUSzCkxTTZzFmK0ruHa82cD6x7V5UTERFRrGNzJxEREZELsSaNiIiIyIUY0oiIiIhciCGNiIiIyIUY0oiIiIhciCGNiIiIyIUY0oiIiIhciCGNiIiIyIU4T5or2c//2Yz3192IsnK16jYLyrEsL7VbjjFxThlGjlAr0qel2Ldti1oJw00bkTXNdELUSP+eiIiom7AmzZWKUTZ9OFZli6XUq8o6J231h1hWUY5MtR6L9IDWhto/5WLfKrVEGrA+WKj+9knUNqoyIiIiF2JIoxgxDwNlDdqnu3DmlF5CRETUmzGkUUxpbahRl4iIiHo39kkTZFNg/oREtQY07l2LDUuL1Zouc/Mx3G3qymTZJmcbFhWOgXddGVIKZyFd9SGrm6H+pmkPiqfPQR3W4f6KWUDpcJQPNt+mF69n56BKrVm0299L32e6WrPuy36dnf12w+wLp93fiUhWqzrnbfXHLRp96uYhfVke4vY/iY/fqFRldpMxaNHjSDcdWGvQ7dW2Z4P3Set/18sYOz5OrQmO/dfstymbY+9jbR8REXVaH69Jk6HkmAhLECFC9QETyw7MRG6O2kQLOiJopIigpa5ftW4PMGExlm1ep7bReR7JRcO6tXi/KVFc/hB3Y7vepyxpDDJ9+wPS88Rtjjqk9ie39+DuV7YhTV0fNhmWRAhLFoHROPbXa8S+fH3PCvGiKi/e2yzWZShT90FbzAFN3k8R0BrEMfv+Bri58EPTYyHI0CgCWqMImr79BO03tw5jtGArHo/b87WSyMgAVIasZXLJwyBREj/+cbUul5cxaLC+pZQ451ERgE391XbWaNuPvmuy2iJ8ekCDpf9bdcNUpN+kNtDI4KiCnrHNfvH8PmQ9LiIioo7o2yFtwUzcnBRYy1O3NMe3nrY6F+ky3Gg1YUr5HOyQoScj1xRgEpHcUOb7u+Skerw+v1BfEdelXKMuSr6aNakYZbsDg1w4MmdMRLLY1w5TrV/V/O2ohQc/Xx1ZKPLdT98xy8dhoxY4b55hhFERaqd4gJrteHGTKgqpEIe01slmeN+21kyGpxJnNhghqRRnRImsGTMC0b5V1hqr5m22GqwPSrXBAfHXTkZ/VRSu/ilxQONhNJr2d/6N+1D7gVoR+t81VQTHGhwx1a6df+MZcZtxSJ88T5UQERF1TJ8OaZljReBoOoSqoM1w+cgclSi2qcdpVWKoe/sQGm3hq7baH3Cc/sbQePgtf+CTjtYH7Kt9ei1VwL5EaGhoEiEx1dQ22y51P2sO2ppci1HXIH6lXK3X8uXcAU+S7X62o2q+rG3rbFNnR1Xim7PqYoTON7SJB/EWjF20MkjAm4zka0WQ+7RaRFAzdZsDh0YcDImIiMz6cEjLR1qK+NXwmS3kOAixTfLgjjTjRUHO1VqfsGTZ7FpxzLSY+5SFKwMp8m8yZtn2Ze2H53qDV2K0rylUXyxzqkVA1prJ5lItqBn7m2OuHcvApfIJGJFnub3O3CYREZFZHw5ptlqiDmo81ZFmvCgo/wxymi85gMHXN8y8mJot26fXvslmTMd9mZt63UoGtIduQbzs3O9rDs3FkU/V9R3hm1NN7UcGMl9Qq8E38gmw3Z5v2bAc5/UNiYiIOqRPN3eerm9upy9YMaoOy75n4wImgU27fQyS4cWhsPpmhdaxfUXWrFl3ql78TEWa430NM7CqYGitPVT91IKQozuXVdgGH3SB/tePQrwcWVnZNWcPaN6mgpqvGZPNmkRE1LX6dEirW1qGWiTi5kLrTPxpq8t9oULfxoO7zSM5c7ZhxoRENO59yXnajEh0eF9qwEHGLCwKZ5CA6vfmHwRgVbVjDxqTJiLfNmLVSh8IkDxhpu/xyty8GDejWQtvgTo7ujN857+QdX1xSLneGMmpjwztWNOj/NuN4qjN1GS6Z0/4asiaKw+gVTaHWppBiYiIooPzpMmaIMvcYHoTonWetMD5xmpLh/tHOKp5w+S0FC9uUvuDGsGpzXPmUds7z1tm2ZfkOA+ZYhkZKjhuG2ReMnUsfvZ50sI5PuvjpT1Wb9+h5onr2XnS7POandmZi7MjRVAbeADVqvkx4NyfJnJ7/+hN/fbktB8G5znXAreTrPsiIiKKHENat9JDkJzXzD5ZLhEREZFZn27uJCIiInIrhjQiIiIiF2JIIyIiInIhhrRupZ9Lk/3RiIiIqD0MaUREREQuxJBGRERE5EIxE9KOHTsW49NvEBEREYWPNWlERERELsSQRkRERORCDGlERERELhRzIe2H3I9wbkWtWD7Cd4NVIREREVEvE3MhrV/ZDRiwIh399wH/mM+gRkRERL1TzDZ39isrw8VIxA9XqgIiIiKiXiTm+6T9kJqvLhERERH1Hhw4QERERORCDGlERERELhTDIc2Lfo3qIhEREVEvE8MhrRj9vgS+y5qF71UJERERUW8R082dP3oxHQM21+M7bd603QxrRERE1GvEdEj7/n4RzmYCF68QYW3FFHawIyIiol4jhnPNenyfAVz090r0UyVEREREvQUrn4iIiIhciCGNiIiIyIUY0oiIiIhciCGNiIiIyIViNqT9kJuLb9GMH31YrEqIiIiIeo+YC2k/5H6EcytqcT4rERf/+QZcdEpdQURERNSL9Bs2bNgP6rJm+PDhOH36NM6dO6dKOi6a+yIiIiLqS9gnjYiIiMiFGNKIiIiIXIghjYiIiMiFGNKIiIiIXIghjYiIiMiFemVI63/Xy8hathGJar1dN20U25cha9FK9FdFvUc+cl85hmWb16n13uHhzU+h4pXZyFbr7pCP735Vi3/k5qt16tOy2/DRruOo9S1foMRdL1iinjV7N8Zu/Qgpt6r1oM5jt+V/6Th2F6irzMbtxrkVu/G9Wu0NYjKkRRzC3CZnGxZVHMP9C9Q6da+c2Xit4ikURfnx//7+JfhHshcXlfXCCZaj+ppdh/vFvhat7hth1vvqMKRPlctPMLtCFVKnpK3+EMsqypGp1juF78cxoD+maP9DYnkqBc2qNMDB7fhxowcXflUCy9xiMYzNndIHC7FvVS72bVgu8jpR5OQkyxcymvHjzVNi7J9K1bSKDylj6SvhiVxoQbnltRi1IEahaTVatSGWcGq73KAYF/1hOy5Onojz969XZbGNIY2o09bju6xEXLRvQ4ydAUPWaC3GzdiD4uzhWKWWHVjYJ2sVYr6GPsZptWN5HtSW+l+Lq7IPYswr25CmtqEuUjIF1Q+kq2UNTraIshPbTWU3oOE9fVP3ewIX/9kLZMzCt+NUUQyLoTMOzEP6sjwMUmuBanBk1UKtGlS+2Y4dXyfWqzHQ9Det+5/Ex29UqjVB9kWblqFWhE9LsW/bFrVilTinDCNHqBUhYF9hyNx8DHebbs5Ovjm9uEmtaDUc4gM0Sa0KjXvXYsNSW1OarKovnIhktQp48Xp2DqrUmm8/Dduxan6hKpMfzrOQLi5Z9+kv1zXj/XU3oqxcrYZLNicWZqKu9DEU+O6P3o9sRkoV1k4vgWz1yV69HItHecX6GcysmAqPvhla9xbhnqXin8xE23ZCglpTmvz70nmw9pUCZJkeM/O+tNsP8fh7bceLBQtRkTdMrQg1u5A9P7C9Stainc+qxyUrnGvRtOcd4vHfcbXlubI+3/pjnyyfj1MztQ8rg3U7yf7asD5P+uvM/jqQ1PNbo78W5Idi/gSEfI4je806bK9uS9JvL3gECnx921+PTvcpmoz3mDbU/uk+nOls4JZ90h5rQP2rwzClSJX1NO39Ygy84jmvm2F6rppEUJ8+B3VqVavRykvVXhuW7ZyeA21b/+vV/Jz7Xqvyi4B5/5J674L2vGdYXpvO7K8HO9uxBbw3Ov2f6Jed2F/b9tev4/txtNxagmsKxuCrohtwLrcWnqGqvGUPDj86GxfUqm49hmydhRS1Jh8H7wNT0CovavuZiG92peNkiXalxSW//gijMuv922vykfLMEgz5SoS0pU+oMhtZ8zbV9Jybb9MkfrXp2IW2qjU4+nvTY6btJxUnxf00QqB+TPJxdt5neP9Xsn/wEvxDvO76/2E2+qlSiwefRundw9F24A94YN27qtB9YqgmbQtqZZOkWKr3t4l1Gcr0dX3RA5pfBkaKN1zsVNfvrEH8+EcxaLC6WjKaOVc9idpGVeZAD2jW2/ssxbavMFTNV98O1+2BvDn5JuD/xmj/sFsIPGu6vtSL5AmLrU1Rpjc533br6vHzkIMEjDc6+YY2PDCgyTdJY1/ZZUh5pIu/xSZlYrEIaBABKTtbLKXHET+hwNJfTIarxRPOYoe8Xi07atSVJg9vni0eM/82xr5eW62/mTw3X5Wvq9L+8WUo820rFnNAk6GwIm8g9q0zrt8Fb8ZUVGy29/zOx/fXiTeUmoOh/5nEt7pl2oej/tgW721Get6HyM1R1yvyOZYvW/ncOG8nnycVun3bADcX+repqpah1IMx9tqwBePE8y4+qHaYPwQTkXKNuuggktes/BAbU226Xv6NvN/q9Vi39EZ13XbUinX5IefbViyWDzz52havRxlajetfr/Hg7i5t/pLvMfK9IA7pD5Uh/SZV3OskiteLCCjyi4P22IrnI2ki8gPeN+zbrcX7TeI5MNVs6bVfMswZz6PYl+k5l81PVYfFO3PSGGTaXutpt48RAcqLv5if95SrQ7zfFOJF9VqQ/xd6KDNuVy7m8Cj+Tx6BeM/wX/96jbw/pv+TiN6Pj4mAVu+/PfE3sL8fR10ihhTU4sov16jarO1oSJiIUatNzXgyhImAdqkIP0atl/eEB56tuxEvr3/vM3wjfl06KMRxttTbQl875G2OOui7Pb3mzXSbih7QZNAytkvH6SsWhWw2NQKaDHPVTgEtbMX40d/FayR5DL4P8jk9d8xw7XfcdbdhknbJnXp1c+cZEdBqP1ArH1TjDOKQcv1kVRCuybh0oPj1abUlBDZvi8I37RCq5ttqNza9JN4gxWtu1B3+N7FrUsWbXDO8b5ve5MrnYEPQb6LyW60R0GzfhnOu1r5x1lab/1a8Kdq//XYBSw3Wpl3YJ+6nZ6wKQzmzkSu+7XpLN+I5vSSo5+avxGLLY6bvK37U+AhHgWZj5oQEtO4tMe2vAgUi9CHjVqw1f9gMnozvxQN38eEg3zh9rN/i65aWiaCSCM/ttjdPWaNhem7q3j4kPkD8QSptda7+/Jme47qlG8VrQ3wAzVAfjJsOaiEofaz1QzdzrAirTYdQZTkGsV1edPr+yBBm/mCTr8W/yDCdMS7ifWfOmIhk8VjsMH2AV82X4c6Dn0f0wTgZgxaV6aO3nZaAEd2VOLMhF0c+BQZNK8PouyJ9v4gRlhqrQpTL0OPwPGlB2redEbhScaW2vg45ExLFNhtN71XiPUN8oURGri8MGa9h62s9H5mj9C83+mtdHYMMi1HpFxn43lW1Q4Yxh/+59ogvDD8X70G1pab3TPHa3iGON3nCzK7tM3diu6nm6Qk0nhC/Lr8al+gFiM+diLiWPThuqp1qXSrCnPg/ufLX8n56cU42XRpsoykvuUI8B199FllIe282jlpq2IrR8J7+xTBZfE/W5WPA5eLXiYOWoNW6NESzqTg2I6BZats6qN+Hh3CReL5/0F+sAV44dEz73fb3d+DeerReHdJqcNYIaJ1SiW/Oil8j8pA1Z55e1COKUdegLhqO1mtvOuZvh8FdrZrIHAKaVP6Z9m1SfmB3b3+k46gyf7CLN5UT8n6mDNKCVfbtHvHtzL5NuNS+IrVgpHi7acHHb1ubXHH0rHjDScAV5pqnK1PxnQhg/U6r9WBM4UhXgwYZulNt7S0Nn1lDsQzdvm/19g82g3pt+GohnD5012GMuKnGw2+Z9q/XTOi1ErKWSu+sHc3n/3S93HeknI5VCvKYhaSHLqMGPGAJMlioeZteYx8//vEe/r/vGtYvYyJInaoXP1ORZnsfaTxl/bDUa0PV+4eqmbV8SZTU+5KvhlaFdcsXzJw74EmyHoe+b72WVatRlq/HaPZHU+9xkTJq/A7Z3oOCPWbR1BDyy996JA8VIcNbaQtZejCLu0K2IBTj3FfGZRHKBqWKn4m4fLwMcCpIRcPxesj2LT/9djF0Fsaaa/6CGa83n0YroGlOfaY1c/6QGiSUP/8b5OXlubqpU+rVNWnRYrxha0FNfQPv8m/YWnOPMcJJXwL6T2gf4PJNTW+W0LcLUiOSMVHvw9RUD+c8IT+wZXOGUbMil3DCn4uoqTUqTEuoPmjBZA+WVacJyCq07quiMNNSnd/9MpAin0PZnGR6XcjF/trQay9MTZ7aB6qtaUmxN0Nqz3+H5tWTTbHW4wrVBy0oVavr+6D2LeZ+eN1oxNSIuzb0BWmD9Q98/3uPWiz9wHRaE7ypyVMLPk17UB7w5Uv/4iBfj9qXB61mrWPvQ1pTrPm4QvZnC+7KVPka9n+J8S3mfng94darcan4FZe5xDYScwmGmLrvXvhSPI5a7Vs+EsUhn6zy+kKb1Pal7ctoGGRTpuU2CyYiTl1naF2ajsNV4rZlUFPbXaPV7tklYkimfjzfnIlSQOtFGNLCdP6N+9S3b73/mvyG3WVBzejwaukfJvtUqOst/G9qst+a/mbiENTkvmTfC/mmF/TbaTHKpqt9af00wq2lcwE1WCFedu439TNz6rvWnopTsuq0xdQfzbpYBhd0K70mSXsujefcvJibd8rfglcGbtXkqTV1BtTA2emvJe11ZmquCo/q06g11/qPSa+li5Cq8bD3WfMtQZvznUTa3KmT/VDHjo/TBgjtW9W1XRtilV6TJJvxHZ4jsViavrUmeKOpUa8RDqwptdK+PBjvQ0ZTfpiMTv7Wfmb6l5BI6bXB9v5vxhJ80E2XU/3N9P5b/n5fvsXcJJmQKkKaBwNwCM3769E2dJz4winWRZiLNBjpfc2acbLIdFtFe2w1aboLv79BbaOPGJWBMjCo6fvyngBSptZiiK/JlKSYDGnnv5D/2mm4tEe+3crmExXUUhyqaW5fgq2lpSgtfRpzVVEA9SGUPNi5GlavXrd38A7DphwV1IJUwcuaN3m9YydhG7mteoN07FguR8bI+/n8kjA7XWYjM6xaLX271sP7tVGbemAaiKHm+6P6qZnpzaIiWO0IY7bQ8jPah0Pa4CDfhJ2aNYM5XR+y30NQDs097bM3a4YiAvdu8VxrTZ5682Fkt2XTzmtWr6kTt7E7nD6M7TVbdqRZM5hImzv1UCdHcss+rZGO4O6ohzbsxM6dO/HS8jtUiYM7V+Alsc3OnX/EQ6rIUf4ftX3tLFmBEHuzsPdXDIu9WTMkvQlea/LUXvsOzaQRCN3UqLoFONbUOWjntR1xs2Y4nwFRYW7WDO7CGXn8wuxxSJH9z96rxFctRv+xZpw7rl0bJr2JFSfKIpySoxgNj6qgFuR4W5fq16dMjdKcbIOv1ia07Vcf5HVmPE9hf4b1jNisSauTH6JxSJ/cHX1F5iHd/m178GSkJIsXVUNgNc2kCdepat/huP5B7YID9SEUpNOp/qZg7uAqO/wHNmnJb4v2/kPamy3qURfszVYEOa12I2OWtXPugvKAzrpGWGw4qgpMjJExSLwOt92uX/RRIcjX+V8EryLTFBuhPLxZbnccZcYUHJuOiLeiBGTNMO2rUDxqTeK/2UQPcwkYLcKaTk7HEay58zi+FI9//ISpeFiVWJSXoEw8tZ685dZBAk5OVeJH4h3+21GRTJwons9H9I7xYX2ImGidn8MJ2ZJWe+HBmM0iQDncVuZmh1pS1UkaNWW2GoLQr1n9A9tfcyfpI+KcmjtV2AxaW2cETNtrtMvJKTgeR3qynILDNOioyz2EG9X0PnE/vSNosLrj56PUe0sGbgzxsDx0g3rRJ43CHXfqF0MS//vyvSW8gG2i+po5jVJ2ojXBJ41BzgzxvmJ/fcnWA4fXtDaAxOkLq9Ef17GGTb2+zCNKte4jwZo723lta4O2ZKtCmINrRlzu+wzILuzKj3/VYX/orCDNiIrWX8wDz1SP6uNWjGZvswhDctqOepyLKGypgQhaTZwiByMENHeux5BnSnwDHDS3TsblCaGaV2WQk4Me5KhW60jRjvjhxjEh+wv7PqsTb8I9QT+re14MzZNmY5/jTPyjBc6TZp6WQ58DKc40v5l97jMzy8jQwSsx+qFbLC8ay/VmMp3/8ibx5B/Df+b9Bi+o4kCqeUitSeZ5eYzqeoO87tBYEdRSrPMNBcz1I5ubLKOa1DxFlnnSTH9nGuVlv029it9hkIGk5phB8wf4w4NrAkfHGM2PalWO4HxpsDEvmmmetHbnPhMs+5LNkCtRcbt1X5J9f/I2q8Za52bzCwyO9nnSwj2+sOZJMz9HkmV0naReDwHlTgJfO5L59WMwbtt5Tif12rD183Lajy70a9Y+X5a8TTkxrj51gf11FHjbAcdoNPurVZ11lGw0Ob9vdEIE86TJmrTp4r2obd9TmLnyLVVqI2vS/u0W8d5Sg1em/RJ/UsUBZE3a/yOe9KYDeGr2Clj2Fu5jqp7L4K8Fv8D3DSHgfUjyP+eO+7XPtyY57kcJ2N78fmV/fcnrDmKMeP1qcxEG/C+089oWwvs/liZhyfO/wk3iIenwHFxB5jfTmhovt82Vpra1hiTZhGiMpDTmUQucP02ODA2cd629edJs87LJfYhjHGY/XofjarDP1+YwT5r/78z3wSSSedK+3I4BLwYbfDEXT5f+QkTpTjxP3SB2QxrFPD0EyfnP2p9ew93W49sVs/CteMN2ekPQ3txt4Zr6ANdOZjsRjWGEL+q4SYVb8atbxFf11/Pwm+dVIUVHOP9X8kTr/5yKH2++IeRZYOb+rhS/SG/DB398AGveVoUuw4EDRJ32BC7apzch94bTkBBRJ9y+BPkioKH2PxnQeoT40vzPHsguGyFP0yeep2xZdVpb4dqAJjGkEUVBv7IbcEkNxJvDR/iO0zUQ9UGymbMUpb+8CTjwB+T9W/DOLtRVZDOn+LLcuAf9QzZz6s9T/et5rn+eGNKIouRHL67BjxsT8X2oXt3U53juPY7aXXL5AiWRnfqCYsq7WPOg+NCPgQlSY8957Nb+h8TymBxaEMS4WfhHsheXBDtfp+YF/EY8R/J5ioWaTvZJIyIiInIh1qQRERERuRBDGhEREZELdWlIO3bsGJs6iYiIiDqANWlERERELsSQRkRERORCDGlERERELtQtIa1gfBnK75XLRhSoMiIiIiIKrltCWtH+XOS8mouXP8/AfQxqRERERO3q1ubOoiMH0Io0DE1QBURERETkqAf6pMVhIEMaERERUUgcOEBERETkQgxpRERERC7UvSGt5QTq1EUiIiIiCq6ba9JqcLYF8IxaiTtVCREREREF6jds2LAf1GXN8OHDcfr06a495+bgjSjPygBaDuDfdy/Hm6qYiIiIiHTdXJM2GWumlKF8SLU2b1oOAxoRERGRo+4NaQmTMSoB8J7cogqIiIiIyAlHdxIRERG5EEMaERERkQsxpBERERG5EEMaERERkQt1a0grGHkL4lGD6lOqgIiIiIgcdUtIKxhfhvJ7y3DfVW3Yv3shilQ5ERERETnrmclsiYiIiCgk9kkjIiIiciGGNCIiIiIXYkgjIiIiciGGNCIiIiIXYkgjIiIiciGGNCIiIiIXYkgjIiIiciGGNCIiIiIXYkgjIiIiciGGNCIiIiIXYkgjIiIiciGGNCIiIiIXYkgjIiIiciGGNCIiIiIXYkgjIiIich3g/welXKBy6KPi4QAAAABJRU5ErkJggg==;" vertex="1" parent="1">
                    <mxGeometry x="-593" y="3818" width="617" height="445" as="geometry"/>
                </mxCell>
                <mxCell id="130" style="edgeStyle=orthogonalEdgeStyle;html=1;strokeColor=#FF8000;strokeWidth=3;" edge="1" parent="1" source="128" target="129">
                    <mxGeometry relative="1" as="geometry"/>
                </mxCell>
                <mxCell id="128" value="" style="rounded=1;whiteSpace=wrap;html=1;strokeColor=#FF8000;strokeWidth=2;fillColor=none;fontSize=21;" vertex="1" parent="1">
                    <mxGeometry x="-792" y="3579" width="344" height="21" as="geometry"/>
                </mxCell>
                <mxCell id="132" style="edgeStyle=orthogonalEdgeStyle;html=1;strokeColor=#FF8000;strokeWidth=3;" edge="1" parent="1" source="129" target="131">
                    <mxGeometry relative="1" as="geometry">
                        <Array as="points">
                            <mxPoint x="-300" y="3804"/>
                            <mxPoint x="-21" y="3804"/>
                        </Array>
                    </mxGeometry>
                </mxCell>
                <mxCell id="135" style="edgeStyle=orthogonalEdgeStyle;html=1;entryX=0.652;entryY=-0.098;entryDx=0;entryDy=0;entryPerimeter=0;strokeColor=#FF8000;strokeWidth=3;" edge="1" parent="1" source="129" target="134">
                    <mxGeometry relative="1" as="geometry">
                        <Array as="points">
                            <mxPoint x="-399" y="3894"/>
                            <mxPoint x="-273" y="3894"/>
                        </Array>
                    </mxGeometry>
                </mxCell>
                <mxCell id="129" value="" style="rounded=1;whiteSpace=wrap;html=1;strokeColor=#FF8000;strokeWidth=2;fillColor=none;fontSize=21;" vertex="1" parent="1">
                    <mxGeometry x="-566" y="3848" width="311" height="21" as="geometry"/>
                </mxCell>
                <mxCell id="131" value="Recordar los estados en el input, ya no es necesario acceder al target ni mucho menos el HTMLInputElement (06.1)" style="rounded=1;whiteSpace=wrap;html=1;strokeColor=#FF8000;strokeWidth=2;fillColor=none;fontSize=21;" vertex="1" parent="1">
                    <mxGeometry x="-265" y="3660" width="488" height="100" as="geometry"/>
                </mxCell>
                <mxCell id="137" style="edgeStyle=orthogonalEdgeStyle;html=1;strokeColor=#FF8000;strokeWidth=3;" edge="1" parent="1" source="134" target="136">
                    <mxGeometry relative="1" as="geometry"/>
                </mxCell>
                <mxCell id="134" value="" style="rounded=1;whiteSpace=wrap;html=1;strokeColor=#FF8000;strokeWidth=2;fillColor=none;fontSize=21;" vertex="1" parent="1">
                    <mxGeometry x="-350" y="3941" width="118" height="21" as="geometry"/>
                </mxCell>
                <mxCell id="136" value="Este metodo del reactiveFormsModule se puede usar para cambiar el valor del input" style="rounded=1;whiteSpace=wrap;html=1;strokeColor=#FF8000;strokeWidth=2;fillColor=none;fontSize=21;" vertex="1" parent="1">
                    <mxGeometry x="88" y="3912" width="488" height="100" as="geometry"/>
                </mxCell>
                <mxCell id="138" value="Recordar que en este ejemplo estan agregando una actividad a una lista de tareas" style="rounded=1;whiteSpace=wrap;html=1;strokeColor=#FFFFFF;strokeWidth=2;fillColor=none;fontSize=21;" vertex="1" parent="1">
                    <mxGeometry x="-1121" y="3885" width="417" height="100" as="geometry"/>
                </mxCell>
            </root>
        </mxGraphModel>
    </diagram>
</mxfile>